%TF.GenerationSoftware,KiCad,Pcbnew,9.0.1*%
%TF.CreationDate,2025-04-18T16:01:06+02:00*%
%TF.ProjectId,K-Pillar,4b2d5069-6c6c-4617-922e-6b696361645f,rev?*%
%TF.SameCoordinates,Original*%
%TF.FileFunction,Soldermask,Bot*%
%TF.FilePolarity,Negative*%
%FSLAX46Y46*%
G04 Gerber Fmt 4.6, Leading zero omitted, Abs format (unit mm)*
G04 Created by KiCad (PCBNEW 9.0.1) date 2025-04-18 16:01:06*
%MOMM*%
%LPD*%
G01*
G04 APERTURE LIST*
G04 Aperture macros list*
%AMRoundRect*
0 Rectangle with rounded corners*
0 $1 Rounding radius*
0 $2 $3 $4 $5 $6 $7 $8 $9 X,Y pos of 4 corners*
0 Add a 4 corners polygon primitive as box body*
4,1,4,$2,$3,$4,$5,$6,$7,$8,$9,$2,$3,0*
0 Add four circle primitives for the rounded corners*
1,1,$1+$1,$2,$3*
1,1,$1+$1,$4,$5*
1,1,$1+$1,$6,$7*
1,1,$1+$1,$8,$9*
0 Add four rect primitives between the rounded corners*
20,1,$1+$1,$2,$3,$4,$5,0*
20,1,$1+$1,$4,$5,$6,$7,0*
20,1,$1+$1,$6,$7,$8,$9,0*
20,1,$1+$1,$8,$9,$2,$3,0*%
G04 Aperture macros list end*
%ADD10O,1.905000X2.000000*%
%ADD11R,1.905000X2.000000*%
%ADD12RoundRect,0.250000X0.450000X-0.350000X0.450000X0.350000X-0.450000X0.350000X-0.450000X-0.350000X0*%
%ADD13R,1.700000X1.700000*%
%ADD14O,1.700000X1.700000*%
%ADD15C,1.700000*%
%ADD16R,2.400000X2.400000*%
%ADD17C,2.400000*%
%ADD18R,1.600000X1.600000*%
%ADD19O,1.600000X1.600000*%
%ADD20C,1.600000*%
%ADD21RoundRect,0.250000X-0.450000X0.350000X-0.450000X-0.350000X0.450000X-0.350000X0.450000X0.350000X0*%
G04 APERTURE END LIST*
D10*
%TO.C,Q1*%
X57040000Y-66445000D03*
X54500000Y-66445000D03*
D11*
X51960000Y-66445000D03*
%TD*%
D12*
%TO.C,R1*%
X43200000Y-35500000D03*
X43200000Y-37500000D03*
%TD*%
D13*
%TO.C,J1*%
X51000000Y-44800000D03*
D14*
X51000000Y-42260000D03*
X51000000Y-39720000D03*
X51000000Y-37180000D03*
%TD*%
D13*
%TO.C,J4*%
X27500000Y-27380000D03*
D15*
X27500000Y-29920000D03*
X27500000Y-32460000D03*
X27500000Y-35000000D03*
X27500000Y-37540000D03*
X27500000Y-40080000D03*
X27500000Y-42620000D03*
%TD*%
D13*
%TO.C,J2*%
X27500000Y-48420000D03*
D14*
X27500000Y-50960000D03*
X27500000Y-53500000D03*
X27500000Y-56040000D03*
X27500000Y-58580000D03*
X27500000Y-61120000D03*
X27500000Y-63660000D03*
%TD*%
D13*
%TO.C,12V1*%
X59500000Y-26275000D03*
D14*
X59500000Y-23735000D03*
%TD*%
D16*
%TO.C,M1*%
X65900000Y-56750000D03*
D17*
X65900000Y-53250000D03*
%TD*%
D16*
%TO.C,M3*%
X65900000Y-37750000D03*
D17*
X65900000Y-34250000D03*
%TD*%
D11*
%TO.C,Q2*%
X51960000Y-59445000D03*
D10*
X54500000Y-59445000D03*
X57040000Y-59445000D03*
%TD*%
D18*
%TO.C,A1*%
X31500000Y-25920000D03*
D19*
X31500000Y-28460000D03*
X31500000Y-31000000D03*
X31500000Y-33540000D03*
X31500000Y-36080000D03*
X31500000Y-38620000D03*
X31500000Y-41160000D03*
X31500000Y-43700000D03*
X31500000Y-46240000D03*
X31500000Y-48780000D03*
X31500000Y-51320000D03*
X31500000Y-53860000D03*
X31500000Y-56400000D03*
X31500000Y-58940000D03*
X31500000Y-61480000D03*
X46740000Y-61480000D03*
X46740000Y-58940000D03*
X46740000Y-56400000D03*
X46740000Y-53860000D03*
X46740000Y-51320000D03*
X46740000Y-48780000D03*
X46740000Y-46240000D03*
X46740000Y-43700000D03*
X46740000Y-41160000D03*
X46740000Y-38620000D03*
X46740000Y-36080000D03*
X46740000Y-33540000D03*
X46740000Y-31000000D03*
X46740000Y-28460000D03*
X46740000Y-25920000D03*
%TD*%
D16*
%TO.C,M2*%
X65900000Y-47250000D03*
D17*
X65900000Y-43750000D03*
%TD*%
D13*
%TO.C,5V1*%
X50965000Y-23540000D03*
D14*
X53505000Y-23540000D03*
%TD*%
D11*
%TO.C,Q3*%
X51960000Y-52445000D03*
D10*
X54500000Y-52445000D03*
X57040000Y-52445000D03*
%TD*%
D13*
%TO.C,J3*%
X59500000Y-33475000D03*
D14*
X59500000Y-36015000D03*
X59500000Y-38555000D03*
%TD*%
D18*
%TO.C,C2*%
X51034888Y-28540000D03*
D20*
X53534888Y-28540000D03*
%TD*%
D21*
%TO.C,R2*%
X43000000Y-57000000D03*
X43000000Y-59000000D03*
%TD*%
M02*
