%TF.GenerationSoftware,KiCad,Pcbnew,9.0.1*%
%TF.CreationDate,2025-04-18T16:01:06+02:00*%
%TF.ProjectId,K-Pillar,4b2d5069-6c6c-4617-922e-6b696361645f,rev?*%
%TF.SameCoordinates,Original*%
%TF.FileFunction,Copper,L2,Bot*%
%TF.FilePolarity,Positive*%
%FSLAX46Y46*%
G04 Gerber Fmt 4.6, Leading zero omitted, Abs format (unit mm)*
G04 Created by KiCad (PCBNEW 9.0.1) date 2025-04-18 16:01:06*
%MOMM*%
%LPD*%
G01*
G04 APERTURE LIST*
G04 Aperture macros list*
%AMRoundRect*
0 Rectangle with rounded corners*
0 $1 Rounding radius*
0 $2 $3 $4 $5 $6 $7 $8 $9 X,Y pos of 4 corners*
0 Add a 4 corners polygon primitive as box body*
4,1,4,$2,$3,$4,$5,$6,$7,$8,$9,$2,$3,0*
0 Add four circle primitives for the rounded corners*
1,1,$1+$1,$2,$3*
1,1,$1+$1,$4,$5*
1,1,$1+$1,$6,$7*
1,1,$1+$1,$8,$9*
0 Add four rect primitives between the rounded corners*
20,1,$1+$1,$2,$3,$4,$5,0*
20,1,$1+$1,$4,$5,$6,$7,0*
20,1,$1+$1,$6,$7,$8,$9,0*
20,1,$1+$1,$8,$9,$2,$3,0*%
G04 Aperture macros list end*
%TA.AperFunction,ComponentPad*%
%ADD10O,1.905000X2.000000*%
%TD*%
%TA.AperFunction,ComponentPad*%
%ADD11R,1.905000X2.000000*%
%TD*%
%TA.AperFunction,SMDPad,CuDef*%
%ADD12RoundRect,0.250000X0.450000X-0.350000X0.450000X0.350000X-0.450000X0.350000X-0.450000X-0.350000X0*%
%TD*%
%TA.AperFunction,ComponentPad*%
%ADD13R,1.700000X1.700000*%
%TD*%
%TA.AperFunction,ComponentPad*%
%ADD14O,1.700000X1.700000*%
%TD*%
%TA.AperFunction,ComponentPad*%
%ADD15C,1.700000*%
%TD*%
%TA.AperFunction,ComponentPad*%
%ADD16R,2.400000X2.400000*%
%TD*%
%TA.AperFunction,ComponentPad*%
%ADD17C,2.400000*%
%TD*%
%TA.AperFunction,ComponentPad*%
%ADD18R,1.600000X1.600000*%
%TD*%
%TA.AperFunction,ComponentPad*%
%ADD19O,1.600000X1.600000*%
%TD*%
%TA.AperFunction,ComponentPad*%
%ADD20C,1.600000*%
%TD*%
%TA.AperFunction,SMDPad,CuDef*%
%ADD21RoundRect,0.250000X-0.450000X0.350000X-0.450000X-0.350000X0.450000X-0.350000X0.450000X0.350000X0*%
%TD*%
%TA.AperFunction,ViaPad*%
%ADD22C,0.600000*%
%TD*%
%TA.AperFunction,Conductor*%
%ADD23C,1.000000*%
%TD*%
%TA.AperFunction,Conductor*%
%ADD24C,0.200000*%
%TD*%
G04 APERTURE END LIST*
D10*
%TO.P,Q1,3,S*%
%TO.N,GND*%
X57040000Y-66445000D03*
%TO.P,Q1,2,D*%
%TO.N,Net-(M1--)*%
X54500000Y-66445000D03*
D11*
%TO.P,Q1,1,G*%
%TO.N,PUMP1*%
X51960000Y-66445000D03*
%TD*%
D12*
%TO.P,R1,2*%
%TO.N,+5V*%
X43200000Y-35500000D03*
%TO.P,R1,1*%
%TO.N,RTC_DS*%
X43200000Y-37500000D03*
%TD*%
D13*
%TO.P,J1,1,Pin_1*%
%TO.N,GND*%
X51000000Y-44800000D03*
D14*
%TO.P,J1,2,Pin_2*%
%TO.N,+5V*%
X51000000Y-42260000D03*
%TO.P,J1,3,Pin_3*%
%TO.N,RTC_SDA*%
X51000000Y-39720000D03*
%TO.P,J1,4,Pin_4*%
%TO.N,RTC_SCL*%
X51000000Y-37180000D03*
%TD*%
D13*
%TO.P,J4,1,Pin_1*%
%TO.N,RTC_BAT*%
X27500000Y-27380000D03*
D15*
%TO.P,J4,2,Pin_2*%
%TO.N,GND*%
X27500000Y-29920000D03*
%TO.P,J4,3,Pin_3*%
%TO.N,+5V*%
X27500000Y-32460000D03*
%TO.P,J4,4,Pin_4*%
%TO.N,RTC_SDA*%
X27500000Y-35000000D03*
%TO.P,J4,5,Pin_5*%
%TO.N,RTC_SCL*%
X27500000Y-37540000D03*
%TO.P,J4,6,Pin_6*%
%TO.N,RTC_DS*%
X27500000Y-40080000D03*
%TO.P,J4,7,Pin_7*%
%TO.N,RTC_SQ*%
X27500000Y-42620000D03*
%TD*%
D13*
%TO.P,J2,1,Pin_1*%
%TO.N,Net-(A1-D3)*%
X27500000Y-48420000D03*
D14*
%TO.P,J2,2,Pin_2*%
%TO.N,Net-(A1-D4)*%
X27500000Y-50960000D03*
%TO.P,J2,3,Pin_3*%
%TO.N,Net-(A1-D5)*%
X27500000Y-53500000D03*
%TO.P,J2,4,Pin_4*%
%TO.N,Net-(A1-D6)*%
X27500000Y-56040000D03*
%TO.P,J2,5,Pin_5*%
%TO.N,Net-(A1-D7)*%
X27500000Y-58580000D03*
%TO.P,J2,6,Pin_6*%
%TO.N,Net-(A1-D8)*%
X27500000Y-61120000D03*
%TO.P,J2,7,Pin_7*%
%TO.N,Net-(A1-D12)*%
X27500000Y-63660000D03*
%TD*%
D13*
%TO.P,12V1,1,Pin_1*%
%TO.N,+12V*%
X59500000Y-26275000D03*
D14*
%TO.P,12V1,2,Pin_2*%
%TO.N,GND*%
X59500000Y-23735000D03*
%TD*%
D16*
%TO.P,M1,1,+*%
%TO.N,+12V*%
X65900000Y-56750000D03*
D17*
%TO.P,M1,2,-*%
%TO.N,Net-(M1--)*%
X65900000Y-53250000D03*
%TD*%
D16*
%TO.P,M3,1,+*%
%TO.N,+12V*%
X65900000Y-37750000D03*
D17*
%TO.P,M3,2,-*%
%TO.N,Net-(M3--)*%
X65900000Y-34250000D03*
%TD*%
D11*
%TO.P,Q2,1,G*%
%TO.N,PUMP2*%
X51960000Y-59445000D03*
D10*
%TO.P,Q2,2,D*%
%TO.N,Net-(M2--)*%
X54500000Y-59445000D03*
%TO.P,Q2,3,S*%
%TO.N,GND*%
X57040000Y-59445000D03*
%TD*%
D18*
%TO.P,A1,1,D1/TX*%
%TO.N,unconnected-(A1-D1{slash}TX-Pad1)*%
X31500000Y-25920000D03*
D19*
%TO.P,A1,2,D0/RX*%
%TO.N,unconnected-(A1-D0{slash}RX-Pad2)*%
X31500000Y-28460000D03*
%TO.P,A1,3,~{RESET}*%
%TO.N,unconnected-(A1-~{RESET}-Pad3)*%
X31500000Y-31000000D03*
%TO.P,A1,4,GND*%
%TO.N,GND*%
X31500000Y-33540000D03*
%TO.P,A1,5,D2*%
%TO.N,RTC_SQ*%
X31500000Y-36080000D03*
%TO.P,A1,6,D3*%
%TO.N,Net-(A1-D3)*%
X31500000Y-38620000D03*
%TO.P,A1,7,D4*%
%TO.N,Net-(A1-D4)*%
X31500000Y-41160000D03*
%TO.P,A1,8,D5*%
%TO.N,Net-(A1-D5)*%
X31500000Y-43700000D03*
%TO.P,A1,9,D6*%
%TO.N,Net-(A1-D6)*%
X31500000Y-46240000D03*
%TO.P,A1,10,D7*%
%TO.N,Net-(A1-D7)*%
X31500000Y-48780000D03*
%TO.P,A1,11,D8*%
%TO.N,Net-(A1-D8)*%
X31500000Y-51320000D03*
%TO.P,A1,12,D9*%
%TO.N,PUMP3*%
X31500000Y-53860000D03*
%TO.P,A1,13,D10*%
%TO.N,PUMP2*%
X31500000Y-56400000D03*
%TO.P,A1,14,D11*%
%TO.N,PUMP1*%
X31500000Y-58940000D03*
%TO.P,A1,15,D12*%
%TO.N,Net-(A1-D12)*%
X31500000Y-61480000D03*
%TO.P,A1,16,D13*%
%TO.N,unconnected-(A1-D13-Pad16)*%
X46740000Y-61480000D03*
%TO.P,A1,17,3V3*%
%TO.N,Net-(A1-3V3)*%
X46740000Y-58940000D03*
%TO.P,A1,18,AREF*%
%TO.N,Net-(A1-AREF)*%
X46740000Y-56400000D03*
%TO.P,A1,19,A0*%
%TO.N,unconnected-(A1-A0-Pad19)*%
X46740000Y-53860000D03*
%TO.P,A1,20,A1*%
%TO.N,unconnected-(A1-A1-Pad20)*%
X46740000Y-51320000D03*
%TO.P,A1,21,A2*%
%TO.N,unconnected-(A1-A2-Pad21)*%
X46740000Y-48780000D03*
%TO.P,A1,22,A3*%
%TO.N,Net-(A1-A3)*%
X46740000Y-46240000D03*
%TO.P,A1,23,A4*%
%TO.N,RTC_SDA*%
X46740000Y-43700000D03*
%TO.P,A1,24,A5*%
%TO.N,RTC_SCL*%
X46740000Y-41160000D03*
%TO.P,A1,25,A6*%
%TO.N,RTC_DS*%
X46740000Y-38620000D03*
%TO.P,A1,26,A7*%
%TO.N,RTC_BAT*%
X46740000Y-36080000D03*
%TO.P,A1,27,+5V*%
%TO.N,+5V*%
X46740000Y-33540000D03*
%TO.P,A1,28,~{RESET}*%
%TO.N,unconnected-(A1-~{RESET}-Pad28)*%
X46740000Y-31000000D03*
%TO.P,A1,29,GND*%
%TO.N,GND*%
X46740000Y-28460000D03*
%TO.P,A1,30,VIN*%
%TO.N,unconnected-(A1-VIN-Pad30)*%
X46740000Y-25920000D03*
%TD*%
D16*
%TO.P,M2,1,+*%
%TO.N,+12V*%
X65900000Y-47250000D03*
D17*
%TO.P,M2,2,-*%
%TO.N,Net-(M2--)*%
X65900000Y-43750000D03*
%TD*%
D13*
%TO.P,5V1,1,Pin_1*%
%TO.N,+5V*%
X50965000Y-23540000D03*
D14*
%TO.P,5V1,2,Pin_2*%
%TO.N,GND*%
X53505000Y-23540000D03*
%TD*%
D11*
%TO.P,Q3,1,G*%
%TO.N,PUMP3*%
X51960000Y-52445000D03*
D10*
%TO.P,Q3,2,D*%
%TO.N,Net-(M3--)*%
X54500000Y-52445000D03*
%TO.P,Q3,3,S*%
%TO.N,GND*%
X57040000Y-52445000D03*
%TD*%
D13*
%TO.P,J3,1,Pin_1*%
%TO.N,GND*%
X59500000Y-33475000D03*
D14*
%TO.P,J3,2,Pin_2*%
%TO.N,+5V*%
X59500000Y-36015000D03*
%TO.P,J3,3,Pin_3*%
%TO.N,Net-(A1-A3)*%
X59500000Y-38555000D03*
%TD*%
D18*
%TO.P,C2,1*%
%TO.N,+5V*%
X51034888Y-28540000D03*
D20*
%TO.P,C2,2*%
%TO.N,GND*%
X53534888Y-28540000D03*
%TD*%
D21*
%TO.P,R2,1*%
%TO.N,Net-(A1-AREF)*%
X43000000Y-57000000D03*
%TO.P,R2,2*%
%TO.N,Net-(A1-3V3)*%
X43000000Y-59000000D03*
%TD*%
D22*
%TO.N,RTC_DS*%
X40130000Y-41870000D03*
%TO.N,+5V*%
X42550000Y-30070000D03*
%TO.N,RTC_SDA*%
X35700000Y-34800000D03*
%TO.N,+5V*%
X56000000Y-36000000D03*
%TD*%
D23*
%TO.N,Net-(M3--)*%
X62500000Y-40000000D02*
X54500000Y-48000000D01*
X54500000Y-48000000D02*
X54500000Y-52445000D01*
X62500000Y-36000000D02*
X62500000Y-40000000D01*
X64250000Y-34250000D02*
X62500000Y-36000000D01*
X65900000Y-34250000D02*
X64250000Y-34250000D01*
%TO.N,Net-(M2--)*%
X54500000Y-57500000D02*
X54500000Y-59445000D01*
X61500000Y-53000000D02*
X59000000Y-55500000D01*
X59000000Y-55500000D02*
X56500000Y-55500000D01*
X64750000Y-43750000D02*
X61500000Y-47000000D01*
X56500000Y-55500000D02*
X54500000Y-57500000D01*
X65900000Y-43750000D02*
X64750000Y-43750000D01*
X61500000Y-47000000D02*
X61500000Y-53000000D01*
D24*
%TO.N,PUMP2*%
X51960000Y-60540000D02*
X51960000Y-59445000D01*
X47000000Y-65500000D02*
X51960000Y-60540000D01*
%TO.N,PUMP3*%
X51055000Y-52445000D02*
X51960000Y-52445000D01*
X48500000Y-55000000D02*
X51055000Y-52445000D01*
X32860000Y-53860000D02*
X31500000Y-53860000D01*
X48500000Y-63000000D02*
X47000000Y-64500000D01*
X48500000Y-55000000D02*
X48500000Y-63000000D01*
X47000000Y-64500000D02*
X43500000Y-64500000D01*
X43500000Y-64500000D02*
X32860000Y-53860000D01*
%TO.N,PUMP1*%
X41945000Y-66445000D02*
X51960000Y-66445000D01*
D23*
%TO.N,Net-(M1--)*%
X54500000Y-65000000D02*
X54500000Y-66445000D01*
X59500000Y-63500000D02*
X56000000Y-63500000D01*
X56000000Y-63500000D02*
X54500000Y-65000000D01*
X64750000Y-53250000D02*
X61000000Y-57000000D01*
X65900000Y-53250000D02*
X64750000Y-53250000D01*
X61000000Y-57000000D02*
X61000000Y-62000000D01*
X61000000Y-62000000D02*
X59500000Y-63500000D01*
D24*
%TO.N,PUMP2*%
X42500000Y-65500000D02*
X33400000Y-56400000D01*
X47000000Y-65500000D02*
X42500000Y-65500000D01*
X33400000Y-56400000D02*
X31500000Y-56400000D01*
%TO.N,RTC_DS*%
X38130000Y-39870000D02*
X40130000Y-41870000D01*
X37070000Y-39870000D02*
X38130000Y-39870000D01*
X34860000Y-39870000D02*
X37070000Y-39870000D01*
X27710000Y-39870000D02*
X34860000Y-39870000D01*
X27500000Y-40080000D02*
X27710000Y-39870000D01*
%TO.N,+5V*%
X27680000Y-32280000D02*
X27500000Y-32460000D01*
X36110000Y-32280000D02*
X27680000Y-32280000D01*
X38320000Y-30070000D02*
X36110000Y-32280000D01*
X42550000Y-30070000D02*
X38320000Y-30070000D01*
X44260000Y-33540000D02*
X46740000Y-33540000D01*
X43200000Y-34600000D02*
X44260000Y-33540000D01*
X43200000Y-35500000D02*
X43200000Y-34600000D01*
%TO.N,RTC_DS*%
X44320000Y-38620000D02*
X43200000Y-37500000D01*
X46740000Y-38620000D02*
X44320000Y-38620000D01*
%TO.N,RTC_SDA*%
X27700000Y-34800000D02*
X27500000Y-35000000D01*
X35700000Y-34800000D02*
X27700000Y-34800000D01*
%TO.N,RTC_SCL*%
X27640000Y-37400000D02*
X27500000Y-37540000D01*
X36900000Y-37400000D02*
X27640000Y-37400000D01*
X40660000Y-41160000D02*
X36900000Y-37400000D01*
X46740000Y-41160000D02*
X40660000Y-41160000D01*
%TO.N,Net-(A1-A3)*%
X59500000Y-38555000D02*
X59500000Y-40000000D01*
X59500000Y-40000000D02*
X51500000Y-48000000D01*
X51500000Y-48000000D02*
X48500000Y-48000000D01*
X48500000Y-48000000D02*
X46740000Y-46240000D01*
%TO.N,RTC_SQ*%
X31340000Y-35920000D02*
X31500000Y-36080000D01*
%TO.N,Net-(A1-D5)*%
X31340000Y-43540000D02*
X31500000Y-43700000D01*
%TO.N,GND*%
X41660000Y-33540000D02*
X31500000Y-33540000D01*
X52500000Y-26500000D02*
X48700000Y-26500000D01*
X53534888Y-28540000D02*
X53534888Y-27534888D01*
X53534888Y-27534888D02*
X52500000Y-26500000D01*
X46740000Y-28460000D02*
X41660000Y-33540000D01*
X48700000Y-26500000D02*
X46740000Y-28460000D01*
%TO.N,Net-(A1-D4)*%
X28000000Y-51160000D02*
X28160000Y-51320000D01*
%TO.N,Net-(A1-D7)*%
X31340000Y-48620000D02*
X31500000Y-48780000D01*
%TO.N,Net-(A1-3V3)*%
X43000000Y-59500000D02*
X43500000Y-60000000D01*
X43000000Y-59000000D02*
X43000000Y-59500000D01*
X45680000Y-60000000D02*
X46740000Y-58940000D01*
X43500000Y-60000000D02*
X45680000Y-60000000D01*
%TO.N,+5V*%
X54000000Y-36000000D02*
X53000000Y-35000000D01*
X56000000Y-36000000D02*
X54000000Y-36000000D01*
X48200000Y-35000000D02*
X46740000Y-33540000D01*
X53000000Y-35000000D02*
X48200000Y-35000000D01*
%TO.N,Net-(A1-D6)*%
X31340000Y-46080000D02*
X31500000Y-46240000D01*
%TO.N,Net-(A1-AREF)*%
X46740000Y-56400000D02*
X46740000Y-56240000D01*
X46740000Y-56240000D02*
X46500000Y-56000000D01*
X43500000Y-56000000D02*
X43000000Y-56500000D01*
X43000000Y-56500000D02*
X43000000Y-57000000D01*
X46500000Y-56000000D02*
X43500000Y-56000000D01*
D23*
%TO.N,+12V*%
X69000000Y-39000000D02*
X67750000Y-37750000D01*
X69000000Y-46500000D02*
X69000000Y-39000000D01*
X67750000Y-56750000D02*
X65900000Y-56750000D01*
X65900000Y-47250000D02*
X68250000Y-47250000D01*
X68750000Y-37750000D02*
X67750000Y-37750000D01*
X69000000Y-48000000D02*
X69000000Y-46500000D01*
X65275000Y-26275000D02*
X69000000Y-30000000D01*
X68250000Y-47250000D02*
X69000000Y-48000000D01*
X69000000Y-36500000D02*
X67750000Y-37750000D01*
X69000000Y-55500000D02*
X67750000Y-56750000D01*
X69000000Y-36500000D02*
X69000000Y-37500000D01*
X59500000Y-26275000D02*
X65275000Y-26275000D01*
X69000000Y-37500000D02*
X69000000Y-39000000D01*
X67750000Y-37750000D02*
X65900000Y-37750000D01*
X68250000Y-47250000D02*
X69000000Y-46500000D01*
X69000000Y-48000000D02*
X69000000Y-55500000D01*
X69000000Y-37500000D02*
X68750000Y-37750000D01*
X69000000Y-30000000D02*
X69000000Y-36500000D01*
D24*
%TO.N,PUMP1*%
X34440000Y-58940000D02*
X31500000Y-58940000D01*
X41945000Y-66445000D02*
X34440000Y-58940000D01*
%TD*%
%TA.AperFunction,Conductor*%
%TO.N,GND*%
G36*
X30256422Y-40490185D02*
G01*
X30302177Y-40542989D01*
X30312121Y-40612147D01*
X30299868Y-40650795D01*
X30294781Y-40660776D01*
X30231522Y-40855465D01*
X30199500Y-41057648D01*
X30199500Y-41262351D01*
X30231522Y-41464534D01*
X30294781Y-41659223D01*
X30336749Y-41741588D01*
X30375408Y-41817461D01*
X30387715Y-41841613D01*
X30508028Y-42007213D01*
X30652786Y-42151971D01*
X30807749Y-42264556D01*
X30818390Y-42272287D01*
X30909840Y-42318883D01*
X30911080Y-42319515D01*
X30961876Y-42367490D01*
X30978671Y-42435311D01*
X30956134Y-42501446D01*
X30911080Y-42540485D01*
X30818386Y-42587715D01*
X30652786Y-42708028D01*
X30508028Y-42852786D01*
X30387715Y-43018386D01*
X30294781Y-43200776D01*
X30231522Y-43395465D01*
X30199500Y-43597648D01*
X30199500Y-43802351D01*
X30231522Y-44004534D01*
X30294781Y-44199223D01*
X30387715Y-44381613D01*
X30508028Y-44547213D01*
X30652786Y-44691971D01*
X30807749Y-44804556D01*
X30818390Y-44812287D01*
X30909840Y-44858883D01*
X30911080Y-44859515D01*
X30961876Y-44907490D01*
X30978671Y-44975311D01*
X30956134Y-45041446D01*
X30911080Y-45080485D01*
X30818386Y-45127715D01*
X30652786Y-45248028D01*
X30508028Y-45392786D01*
X30387715Y-45558386D01*
X30294781Y-45740776D01*
X30231522Y-45935465D01*
X30199500Y-46137648D01*
X30199500Y-46342351D01*
X30231522Y-46544534D01*
X30294781Y-46739223D01*
X30387715Y-46921613D01*
X30508028Y-47087213D01*
X30652786Y-47231971D01*
X30807749Y-47344556D01*
X30818390Y-47352287D01*
X30872417Y-47379815D01*
X30911080Y-47399515D01*
X30961876Y-47447490D01*
X30978671Y-47515311D01*
X30956134Y-47581446D01*
X30911080Y-47620485D01*
X30818386Y-47667715D01*
X30652786Y-47788028D01*
X30508028Y-47932786D01*
X30387715Y-48098386D01*
X30294781Y-48280776D01*
X30231522Y-48475465D01*
X30199500Y-48677648D01*
X30199500Y-48882351D01*
X30231522Y-49084534D01*
X30294781Y-49279223D01*
X30387715Y-49461613D01*
X30508028Y-49627213D01*
X30652786Y-49771971D01*
X30787914Y-49870145D01*
X30818390Y-49892287D01*
X30892202Y-49929896D01*
X30911080Y-49939515D01*
X30961876Y-49987490D01*
X30978671Y-50055311D01*
X30956134Y-50121446D01*
X30911080Y-50160485D01*
X30818386Y-50207715D01*
X30652786Y-50328028D01*
X30508028Y-50472786D01*
X30387715Y-50638386D01*
X30294781Y-50820776D01*
X30231522Y-51015465D01*
X30199500Y-51217648D01*
X30199500Y-51422351D01*
X30231522Y-51624534D01*
X30294781Y-51819223D01*
X30333392Y-51895000D01*
X30381850Y-51990104D01*
X30387715Y-52001613D01*
X30508028Y-52167213D01*
X30652786Y-52311971D01*
X30807749Y-52424556D01*
X30818390Y-52432287D01*
X30892190Y-52469890D01*
X30911080Y-52479515D01*
X30961876Y-52527490D01*
X30978671Y-52595311D01*
X30956134Y-52661446D01*
X30911080Y-52700485D01*
X30818386Y-52747715D01*
X30652786Y-52868028D01*
X30508028Y-53012786D01*
X30387715Y-53178386D01*
X30294781Y-53360776D01*
X30231522Y-53555465D01*
X30199500Y-53757648D01*
X30199500Y-53962351D01*
X30231522Y-54164534D01*
X30294781Y-54359223D01*
X30305259Y-54379786D01*
X30382433Y-54531248D01*
X30387715Y-54541613D01*
X30508028Y-54707213D01*
X30652786Y-54851971D01*
X30807749Y-54964556D01*
X30818390Y-54972287D01*
X30892190Y-55009890D01*
X30911080Y-55019515D01*
X30961876Y-55067490D01*
X30978671Y-55135311D01*
X30956134Y-55201446D01*
X30911080Y-55240485D01*
X30818386Y-55287715D01*
X30652786Y-55408028D01*
X30508028Y-55552786D01*
X30387715Y-55718386D01*
X30294781Y-55900776D01*
X30231522Y-56095465D01*
X30199500Y-56297648D01*
X30199500Y-56502351D01*
X30231522Y-56704534D01*
X30294781Y-56899223D01*
X30346385Y-57000500D01*
X30381850Y-57070104D01*
X30387715Y-57081613D01*
X30508028Y-57247213D01*
X30652786Y-57391971D01*
X30754379Y-57465781D01*
X30818390Y-57512287D01*
X30892190Y-57549890D01*
X30911080Y-57559515D01*
X30961876Y-57607490D01*
X30978671Y-57675311D01*
X30956134Y-57741446D01*
X30911080Y-57780485D01*
X30818386Y-57827715D01*
X30652786Y-57948028D01*
X30508028Y-58092786D01*
X30387715Y-58258386D01*
X30294781Y-58440776D01*
X30231522Y-58635465D01*
X30199500Y-58837648D01*
X30199500Y-59042352D01*
X30201879Y-59057371D01*
X30231522Y-59244534D01*
X30294781Y-59439223D01*
X30346385Y-59540500D01*
X30381850Y-59610104D01*
X30387715Y-59621613D01*
X30508028Y-59787213D01*
X30652786Y-59931971D01*
X30794340Y-60034814D01*
X30818390Y-60052287D01*
X30892190Y-60089890D01*
X30911080Y-60099515D01*
X30961876Y-60147490D01*
X30978671Y-60215311D01*
X30956134Y-60281446D01*
X30911080Y-60320485D01*
X30818386Y-60367715D01*
X30652786Y-60488028D01*
X30508028Y-60632786D01*
X30387715Y-60798386D01*
X30294781Y-60980776D01*
X30231522Y-61175465D01*
X30199500Y-61377648D01*
X30199500Y-61582351D01*
X30231522Y-61784534D01*
X30294781Y-61979223D01*
X30355578Y-62098541D01*
X30381850Y-62150104D01*
X30387715Y-62161613D01*
X30508028Y-62327213D01*
X30652786Y-62471971D01*
X30786598Y-62569189D01*
X30818390Y-62592287D01*
X30892202Y-62629896D01*
X31000776Y-62685218D01*
X31000778Y-62685218D01*
X31000781Y-62685220D01*
X31045971Y-62699903D01*
X31195465Y-62748477D01*
X31213068Y-62751265D01*
X31397648Y-62780500D01*
X31397649Y-62780500D01*
X31602351Y-62780500D01*
X31602352Y-62780500D01*
X31804534Y-62748477D01*
X31999219Y-62685220D01*
X32181610Y-62592287D01*
X32301819Y-62504951D01*
X32347213Y-62471971D01*
X32347215Y-62471968D01*
X32347219Y-62471966D01*
X32491966Y-62327219D01*
X32491968Y-62327215D01*
X32491971Y-62327213D01*
X32547413Y-62250902D01*
X32612287Y-62161610D01*
X32705220Y-61979219D01*
X32768477Y-61784534D01*
X32800500Y-61582352D01*
X32800500Y-61377648D01*
X32768477Y-61175465D01*
X32707765Y-60988614D01*
X32705220Y-60980781D01*
X32705218Y-60980778D01*
X32705218Y-60980776D01*
X32658351Y-60888796D01*
X32612287Y-60798390D01*
X32604556Y-60787749D01*
X32491971Y-60632786D01*
X32347213Y-60488028D01*
X32181614Y-60367715D01*
X32175006Y-60364348D01*
X32088917Y-60320483D01*
X32038123Y-60272511D01*
X32021328Y-60204690D01*
X32043865Y-60138555D01*
X32088917Y-60099516D01*
X32181610Y-60052287D01*
X32205662Y-60034812D01*
X32347213Y-59931971D01*
X32347215Y-59931968D01*
X32347219Y-59931966D01*
X32491966Y-59787219D01*
X32491968Y-59787215D01*
X32491971Y-59787213D01*
X32612284Y-59621614D01*
X32612285Y-59621613D01*
X32612287Y-59621610D01*
X32619117Y-59608204D01*
X32667091Y-59557409D01*
X32729602Y-59540500D01*
X34139903Y-59540500D01*
X34206942Y-59560185D01*
X34227583Y-59576818D01*
X41576284Y-66925520D01*
X41713215Y-67004577D01*
X41865943Y-67045501D01*
X41865946Y-67045501D01*
X42031654Y-67045501D01*
X42031670Y-67045500D01*
X50383001Y-67045500D01*
X50450040Y-67065185D01*
X50495795Y-67117989D01*
X50507001Y-67169500D01*
X50507001Y-67492876D01*
X50513408Y-67552483D01*
X50563702Y-67687328D01*
X50563706Y-67687335D01*
X50649952Y-67802544D01*
X50649955Y-67802547D01*
X50765164Y-67888793D01*
X50765171Y-67888797D01*
X50900017Y-67939091D01*
X50900016Y-67939091D01*
X50906944Y-67939835D01*
X50959627Y-67945500D01*
X52960372Y-67945499D01*
X53019983Y-67939091D01*
X53154831Y-67888796D01*
X53270046Y-67802546D01*
X53356296Y-67687331D01*
X53366690Y-67659460D01*
X53408560Y-67603527D01*
X53474023Y-67579108D01*
X53542297Y-67593958D01*
X53555746Y-67602465D01*
X53738462Y-67735217D01*
X53846255Y-67790140D01*
X53942244Y-67839049D01*
X54159751Y-67909721D01*
X54159752Y-67909721D01*
X54159755Y-67909722D01*
X54385646Y-67945500D01*
X54385647Y-67945500D01*
X54614353Y-67945500D01*
X54614354Y-67945500D01*
X54840245Y-67909722D01*
X54840248Y-67909721D01*
X54840249Y-67909721D01*
X55057755Y-67839049D01*
X55057755Y-67839048D01*
X55057758Y-67839048D01*
X55261538Y-67735217D01*
X55446566Y-67600786D01*
X55608286Y-67439066D01*
X55669992Y-67354134D01*
X55725319Y-67311470D01*
X55794932Y-67305491D01*
X55856727Y-67338096D01*
X55870626Y-67354135D01*
X55932097Y-67438741D01*
X55932097Y-67438742D01*
X56093757Y-67600402D01*
X56278723Y-67734788D01*
X56482429Y-67838582D01*
X56699871Y-67909234D01*
X56790000Y-67923509D01*
X56790000Y-66935747D01*
X56827708Y-66957518D01*
X56967591Y-66995000D01*
X57112409Y-66995000D01*
X57252292Y-66957518D01*
X57290000Y-66935747D01*
X57290000Y-67923508D01*
X57380128Y-67909234D01*
X57597570Y-67838582D01*
X57801276Y-67734788D01*
X57986242Y-67600402D01*
X58147902Y-67438742D01*
X58282288Y-67253776D01*
X58386082Y-67050070D01*
X58456734Y-66832628D01*
X58478532Y-66695000D01*
X57530748Y-66695000D01*
X57552518Y-66657292D01*
X57590000Y-66517409D01*
X57590000Y-66372591D01*
X57552518Y-66232708D01*
X57530748Y-66195000D01*
X58478532Y-66195000D01*
X58456734Y-66057371D01*
X58386082Y-65839929D01*
X58282288Y-65636223D01*
X58147902Y-65451257D01*
X57986242Y-65289597D01*
X57801276Y-65155211D01*
X57597568Y-65051417D01*
X57380124Y-64980765D01*
X57290000Y-64966490D01*
X57290000Y-65954252D01*
X57252292Y-65932482D01*
X57112409Y-65895000D01*
X56967591Y-65895000D01*
X56827708Y-65932482D01*
X56790000Y-65954252D01*
X56790000Y-64966490D01*
X56789999Y-64966490D01*
X56699875Y-64980765D01*
X56482431Y-65051417D01*
X56278723Y-65155211D01*
X56093757Y-65289597D01*
X55932097Y-65451257D01*
X55870627Y-65535864D01*
X55815297Y-65578529D01*
X55745684Y-65584508D01*
X55683889Y-65551902D01*
X55669991Y-65535863D01*
X55609813Y-65453035D01*
X55586333Y-65387229D01*
X55602159Y-65319175D01*
X55622446Y-65292473D01*
X56378102Y-64536819D01*
X56439425Y-64503334D01*
X56465783Y-64500500D01*
X59598542Y-64500500D01*
X59612832Y-64497657D01*
X59695188Y-64481275D01*
X59791836Y-64462051D01*
X59851978Y-64437139D01*
X59973914Y-64386632D01*
X60137782Y-64277139D01*
X60277139Y-64137782D01*
X60277139Y-64137780D01*
X60287347Y-64127573D01*
X60287348Y-64127570D01*
X61777139Y-62637782D01*
X61843847Y-62537946D01*
X61886631Y-62473916D01*
X61886636Y-62473906D01*
X61936911Y-62352528D01*
X61962051Y-62291835D01*
X61987955Y-62161610D01*
X62000500Y-62098543D01*
X62000500Y-57465781D01*
X62020185Y-57398742D01*
X62036814Y-57378105D01*
X63987819Y-55427099D01*
X64049142Y-55393615D01*
X64118834Y-55398599D01*
X64174767Y-55440471D01*
X64199184Y-55505935D01*
X64199500Y-55514781D01*
X64199500Y-57997870D01*
X64199501Y-57997876D01*
X64205908Y-58057483D01*
X64256202Y-58192328D01*
X64256206Y-58192335D01*
X64342452Y-58307544D01*
X64342455Y-58307547D01*
X64457664Y-58393793D01*
X64457671Y-58393797D01*
X64592517Y-58444091D01*
X64592516Y-58444091D01*
X64599444Y-58444835D01*
X64652127Y-58450500D01*
X67147872Y-58450499D01*
X67207483Y-58444091D01*
X67342331Y-58393796D01*
X67457546Y-58307546D01*
X67543796Y-58192331D01*
X67594091Y-58057483D01*
X67600500Y-57997873D01*
X67600500Y-57874500D01*
X67601489Y-57871129D01*
X67600686Y-57867710D01*
X67611262Y-57837846D01*
X67620185Y-57807461D01*
X67622838Y-57805161D01*
X67624012Y-57801849D01*
X67649060Y-57782439D01*
X67672989Y-57761706D01*
X67677283Y-57760571D01*
X67679242Y-57759054D01*
X67692562Y-57756536D01*
X67713600Y-57750980D01*
X67719039Y-57750500D01*
X67848540Y-57750500D01*
X67848541Y-57750500D01*
X67945188Y-57731275D01*
X68041836Y-57712051D01*
X68095165Y-57689961D01*
X68223914Y-57636632D01*
X68387782Y-57527139D01*
X68527139Y-57387782D01*
X68527140Y-57387779D01*
X68534206Y-57380714D01*
X68534209Y-57380710D01*
X69637778Y-56277141D01*
X69637782Y-56277139D01*
X69777139Y-56137782D01*
X69779804Y-56133793D01*
X69787434Y-56126096D01*
X69813127Y-56111919D01*
X69837387Y-56095393D01*
X69843370Y-56095232D01*
X69848609Y-56092342D01*
X69877889Y-56094306D01*
X69907232Y-56093520D01*
X69912351Y-56096619D01*
X69918322Y-56097020D01*
X69941892Y-56114502D01*
X69967002Y-56129704D01*
X69969633Y-56135079D01*
X69974439Y-56138644D01*
X69984815Y-56166093D01*
X69997721Y-56192459D01*
X69998573Y-56202492D01*
X69999144Y-56204001D01*
X69998828Y-56205484D01*
X69999500Y-56213391D01*
X69999500Y-66499462D01*
X69979815Y-66566501D01*
X69927011Y-66612256D01*
X69857853Y-66622200D01*
X69794297Y-66593175D01*
X69768113Y-66561462D01*
X69666924Y-66386196D01*
X69507281Y-66178148D01*
X69507274Y-66178140D01*
X69321860Y-65992726D01*
X69321851Y-65992718D01*
X69113803Y-65833075D01*
X68886700Y-65701958D01*
X68886690Y-65701953D01*
X68644428Y-65601605D01*
X68644421Y-65601603D01*
X68644419Y-65601602D01*
X68391116Y-65533730D01*
X68333339Y-65526123D01*
X68131127Y-65499500D01*
X68131120Y-65499500D01*
X67868880Y-65499500D01*
X67868872Y-65499500D01*
X67637772Y-65529926D01*
X67608884Y-65533730D01*
X67441691Y-65578529D01*
X67355581Y-65601602D01*
X67355571Y-65601605D01*
X67113309Y-65701953D01*
X67113299Y-65701958D01*
X66886196Y-65833075D01*
X66678148Y-65992718D01*
X66492718Y-66178148D01*
X66333075Y-66386196D01*
X66201958Y-66613299D01*
X66201953Y-66613309D01*
X66101605Y-66855571D01*
X66101602Y-66855581D01*
X66050714Y-67045501D01*
X66033730Y-67108885D01*
X65999500Y-67368872D01*
X65999500Y-67631127D01*
X66013205Y-67735217D01*
X66033730Y-67891116D01*
X66055178Y-67971161D01*
X66101602Y-68144418D01*
X66101605Y-68144428D01*
X66201953Y-68386690D01*
X66201958Y-68386700D01*
X66333075Y-68613803D01*
X66492718Y-68821851D01*
X66492726Y-68821860D01*
X66678140Y-69007274D01*
X66678148Y-69007281D01*
X66886196Y-69166924D01*
X67061462Y-69268113D01*
X67109677Y-69318680D01*
X67122901Y-69387287D01*
X67096933Y-69452151D01*
X67040019Y-69492680D01*
X66999462Y-69499500D01*
X29000538Y-69499500D01*
X28933499Y-69479815D01*
X28887744Y-69427011D01*
X28877800Y-69357853D01*
X28906825Y-69294297D01*
X28938538Y-69268113D01*
X29113803Y-69166924D01*
X29321851Y-69007282D01*
X29321855Y-69007277D01*
X29321860Y-69007274D01*
X29507274Y-68821860D01*
X29507277Y-68821855D01*
X29507282Y-68821851D01*
X29666924Y-68613803D01*
X29798043Y-68386697D01*
X29898398Y-68144419D01*
X29966270Y-67891116D01*
X30000500Y-67631120D01*
X30000500Y-67368880D01*
X29966270Y-67108884D01*
X29898398Y-66855581D01*
X29802019Y-66622901D01*
X29798046Y-66613309D01*
X29798041Y-66613299D01*
X29666924Y-66386196D01*
X29507281Y-66178148D01*
X29507274Y-66178140D01*
X29321860Y-65992726D01*
X29321851Y-65992718D01*
X29113803Y-65833075D01*
X28886700Y-65701958D01*
X28886690Y-65701953D01*
X28644428Y-65601605D01*
X28644421Y-65601603D01*
X28644419Y-65601602D01*
X28391116Y-65533730D01*
X28333339Y-65526123D01*
X28131127Y-65499500D01*
X28131120Y-65499500D01*
X27868880Y-65499500D01*
X27868872Y-65499500D01*
X27637772Y-65529926D01*
X27608884Y-65533730D01*
X27441691Y-65578529D01*
X27355581Y-65601602D01*
X27355571Y-65601605D01*
X27113309Y-65701953D01*
X27113299Y-65701958D01*
X26886196Y-65833075D01*
X26678148Y-65992718D01*
X26492718Y-66178148D01*
X26333075Y-66386196D01*
X26231887Y-66561462D01*
X26181320Y-66609677D01*
X26112713Y-66622901D01*
X26047849Y-66596933D01*
X26007320Y-66540019D01*
X26000500Y-66499462D01*
X26000500Y-64198226D01*
X26020185Y-64131187D01*
X26072989Y-64085432D01*
X26142147Y-64075488D01*
X26205703Y-64104513D01*
X26242431Y-64159908D01*
X26248444Y-64178414D01*
X26344951Y-64367820D01*
X26469890Y-64539786D01*
X26620213Y-64690109D01*
X26792179Y-64815048D01*
X26792181Y-64815049D01*
X26792184Y-64815051D01*
X26981588Y-64911557D01*
X27183757Y-64977246D01*
X27393713Y-65010500D01*
X27393714Y-65010500D01*
X27606286Y-65010500D01*
X27606287Y-65010500D01*
X27816243Y-64977246D01*
X28018412Y-64911557D01*
X28207816Y-64815051D01*
X28230871Y-64798301D01*
X28379786Y-64690109D01*
X28379788Y-64690106D01*
X28379792Y-64690104D01*
X28530104Y-64539792D01*
X28530106Y-64539788D01*
X28530109Y-64539786D01*
X28655048Y-64367820D01*
X28655047Y-64367820D01*
X28655051Y-64367816D01*
X28751557Y-64178412D01*
X28817246Y-63976243D01*
X28850500Y-63766287D01*
X28850500Y-63553713D01*
X28817246Y-63343757D01*
X28751557Y-63141588D01*
X28655051Y-62952184D01*
X28655049Y-62952181D01*
X28655048Y-62952179D01*
X28530109Y-62780213D01*
X28379786Y-62629890D01*
X28207820Y-62504951D01*
X28207115Y-62504591D01*
X28199054Y-62500485D01*
X28148259Y-62452512D01*
X28131463Y-62384692D01*
X28153999Y-62318556D01*
X28199054Y-62279515D01*
X28207816Y-62275051D01*
X28229789Y-62259086D01*
X28379786Y-62150109D01*
X28379788Y-62150106D01*
X28379792Y-62150104D01*
X28530104Y-61999792D01*
X28530106Y-61999788D01*
X28530109Y-61999786D01*
X28655048Y-61827820D01*
X28655047Y-61827820D01*
X28655051Y-61827816D01*
X28751557Y-61638412D01*
X28817246Y-61436243D01*
X28850500Y-61226287D01*
X28850500Y-61013713D01*
X28817246Y-60803757D01*
X28751557Y-60601588D01*
X28655051Y-60412184D01*
X28655049Y-60412181D01*
X28655048Y-60412179D01*
X28530109Y-60240213D01*
X28379786Y-60089890D01*
X28207820Y-59964951D01*
X28207115Y-59964591D01*
X28199054Y-59960485D01*
X28148259Y-59912512D01*
X28131463Y-59844692D01*
X28153999Y-59778556D01*
X28199054Y-59739515D01*
X28207816Y-59735051D01*
X28298266Y-59669336D01*
X28379786Y-59610109D01*
X28379788Y-59610106D01*
X28379792Y-59610104D01*
X28530104Y-59459792D01*
X28530106Y-59459788D01*
X28530109Y-59459786D01*
X28655048Y-59287820D01*
X28655047Y-59287820D01*
X28655051Y-59287816D01*
X28751557Y-59098412D01*
X28817246Y-58896243D01*
X28850500Y-58686287D01*
X28850500Y-58473713D01*
X28817246Y-58263757D01*
X28751557Y-58061588D01*
X28655051Y-57872184D01*
X28655049Y-57872181D01*
X28655048Y-57872179D01*
X28530109Y-57700213D01*
X28379786Y-57549890D01*
X28207820Y-57424951D01*
X28207115Y-57424591D01*
X28199054Y-57420485D01*
X28148259Y-57372512D01*
X28131463Y-57304692D01*
X28153999Y-57238556D01*
X28199054Y-57199515D01*
X28207816Y-57195051D01*
X28229789Y-57179086D01*
X28379786Y-57070109D01*
X28379788Y-57070106D01*
X28379792Y-57070104D01*
X28530104Y-56919792D01*
X28530106Y-56919788D01*
X28530109Y-56919786D01*
X28655048Y-56747820D01*
X28655047Y-56747820D01*
X28655051Y-56747816D01*
X28751557Y-56558412D01*
X28817246Y-56356243D01*
X28850500Y-56146287D01*
X28850500Y-55933713D01*
X28817246Y-55723757D01*
X28751557Y-55521588D01*
X28655051Y-55332184D01*
X28655049Y-55332181D01*
X28655048Y-55332179D01*
X28530109Y-55160213D01*
X28379786Y-55009890D01*
X28207820Y-54884951D01*
X28207115Y-54884591D01*
X28199054Y-54880485D01*
X28148259Y-54832512D01*
X28131463Y-54764692D01*
X28153999Y-54698556D01*
X28199054Y-54659515D01*
X28207816Y-54655051D01*
X28247492Y-54626225D01*
X28379786Y-54530109D01*
X28379788Y-54530106D01*
X28379792Y-54530104D01*
X28530104Y-54379792D01*
X28530106Y-54379788D01*
X28530109Y-54379786D01*
X28655048Y-54207820D01*
X28655047Y-54207820D01*
X28655051Y-54207816D01*
X28751557Y-54018412D01*
X28817246Y-53816243D01*
X28850500Y-53606287D01*
X28850500Y-53393713D01*
X28817246Y-53183757D01*
X28751557Y-52981588D01*
X28655051Y-52792184D01*
X28655049Y-52792181D01*
X28655048Y-52792179D01*
X28530109Y-52620213D01*
X28379786Y-52469890D01*
X28207820Y-52344951D01*
X28207115Y-52344591D01*
X28199054Y-52340485D01*
X28148259Y-52292512D01*
X28131463Y-52224692D01*
X28153999Y-52158556D01*
X28199054Y-52119515D01*
X28207816Y-52115051D01*
X28238991Y-52092401D01*
X28379786Y-51990109D01*
X28379788Y-51990106D01*
X28379792Y-51990104D01*
X28530104Y-51839792D01*
X28638132Y-51691102D01*
X28640519Y-51688716D01*
X28643044Y-51684341D01*
X28655051Y-51667816D01*
X28672104Y-51634344D01*
X28675172Y-51628692D01*
X28719577Y-51551785D01*
X28722200Y-51541992D01*
X28731488Y-51517797D01*
X28751557Y-51478412D01*
X28817246Y-51276243D01*
X28850500Y-51066287D01*
X28850500Y-50853713D01*
X28817246Y-50643757D01*
X28751557Y-50441588D01*
X28655051Y-50252184D01*
X28655049Y-50252181D01*
X28655048Y-50252179D01*
X28530109Y-50080213D01*
X28416569Y-49966673D01*
X28383084Y-49905350D01*
X28388068Y-49835658D01*
X28429940Y-49779725D01*
X28460915Y-49762810D01*
X28592331Y-49713796D01*
X28707546Y-49627546D01*
X28793796Y-49512331D01*
X28844091Y-49377483D01*
X28850500Y-49317873D01*
X28850499Y-47522128D01*
X28844091Y-47462517D01*
X28838486Y-47447490D01*
X28793797Y-47327671D01*
X28793793Y-47327664D01*
X28707547Y-47212455D01*
X28707544Y-47212452D01*
X28592335Y-47126206D01*
X28592328Y-47126202D01*
X28457482Y-47075908D01*
X28457483Y-47075908D01*
X28397883Y-47069501D01*
X28397881Y-47069500D01*
X28397873Y-47069500D01*
X28397864Y-47069500D01*
X26602129Y-47069500D01*
X26602123Y-47069501D01*
X26542516Y-47075908D01*
X26407671Y-47126202D01*
X26407664Y-47126206D01*
X26292455Y-47212452D01*
X26292452Y-47212455D01*
X26223766Y-47304208D01*
X26167832Y-47346079D01*
X26098141Y-47351063D01*
X26036818Y-47317577D01*
X26003334Y-47256254D01*
X26000500Y-47229897D01*
X26000500Y-43158226D01*
X26020185Y-43091187D01*
X26072989Y-43045432D01*
X26142147Y-43035488D01*
X26205703Y-43064513D01*
X26242431Y-43119908D01*
X26248444Y-43138414D01*
X26344951Y-43327820D01*
X26469890Y-43499786D01*
X26620213Y-43650109D01*
X26792179Y-43775048D01*
X26792181Y-43775049D01*
X26792184Y-43775051D01*
X26981588Y-43871557D01*
X27183757Y-43937246D01*
X27393713Y-43970500D01*
X27393714Y-43970500D01*
X27606286Y-43970500D01*
X27606287Y-43970500D01*
X27816243Y-43937246D01*
X28018412Y-43871557D01*
X28207816Y-43775051D01*
X28229789Y-43759086D01*
X28379786Y-43650109D01*
X28379788Y-43650106D01*
X28379792Y-43650104D01*
X28530104Y-43499792D01*
X28530106Y-43499788D01*
X28530109Y-43499786D01*
X28655048Y-43327820D01*
X28655047Y-43327820D01*
X28655051Y-43327816D01*
X28751557Y-43138412D01*
X28817246Y-42936243D01*
X28850500Y-42726287D01*
X28850500Y-42513713D01*
X28817246Y-42303757D01*
X28751557Y-42101588D01*
X28655051Y-41912184D01*
X28655049Y-41912181D01*
X28655048Y-41912179D01*
X28530109Y-41740213D01*
X28379786Y-41589890D01*
X28207820Y-41464951D01*
X28207002Y-41464534D01*
X28199054Y-41460485D01*
X28148259Y-41412512D01*
X28131463Y-41344692D01*
X28153999Y-41278556D01*
X28199054Y-41239515D01*
X28207816Y-41235051D01*
X28229789Y-41219086D01*
X28379786Y-41110109D01*
X28379788Y-41110106D01*
X28379792Y-41110104D01*
X28530104Y-40959792D01*
X28530106Y-40959788D01*
X28530109Y-40959786D01*
X28655048Y-40787820D01*
X28655047Y-40787820D01*
X28655051Y-40787816D01*
X28751557Y-40598412D01*
X28756849Y-40582126D01*
X28765279Y-40556182D01*
X28804716Y-40498506D01*
X28869075Y-40471308D01*
X28883210Y-40470500D01*
X30189383Y-40470500D01*
X30256422Y-40490185D01*
G37*
%TD.AperFunction*%
%TA.AperFunction,Conductor*%
G36*
X64118834Y-45898599D02*
G01*
X64174767Y-45940471D01*
X64199184Y-46005935D01*
X64199500Y-46014781D01*
X64199500Y-48497870D01*
X64199501Y-48497876D01*
X64205908Y-48557483D01*
X64256202Y-48692328D01*
X64256206Y-48692335D01*
X64342452Y-48807544D01*
X64342455Y-48807547D01*
X64457664Y-48893793D01*
X64457671Y-48893797D01*
X64592517Y-48944091D01*
X64592516Y-48944091D01*
X64599444Y-48944835D01*
X64652127Y-48950500D01*
X67147872Y-48950499D01*
X67207483Y-48944091D01*
X67342331Y-48893796D01*
X67457546Y-48807546D01*
X67543796Y-48692331D01*
X67594091Y-48557483D01*
X67600500Y-48497873D01*
X67600500Y-48374500D01*
X67603050Y-48365814D01*
X67601762Y-48356853D01*
X67612740Y-48332812D01*
X67620185Y-48307461D01*
X67627025Y-48301533D01*
X67630787Y-48293297D01*
X67653021Y-48279007D01*
X67672989Y-48261706D01*
X67683503Y-48259418D01*
X67689565Y-48255523D01*
X67724500Y-48250500D01*
X67784218Y-48250500D01*
X67851257Y-48270185D01*
X67871899Y-48286819D01*
X67963181Y-48378101D01*
X67996666Y-48439424D01*
X67999500Y-48465782D01*
X67999500Y-55034217D01*
X67979815Y-55101256D01*
X67963181Y-55121898D01*
X67743434Y-55341645D01*
X67682111Y-55375130D01*
X67612419Y-55370146D01*
X67556486Y-55328274D01*
X67546921Y-55313392D01*
X67543793Y-55307664D01*
X67457547Y-55192455D01*
X67457544Y-55192452D01*
X67342335Y-55106206D01*
X67342328Y-55106202D01*
X67207482Y-55055908D01*
X67207483Y-55055908D01*
X67147883Y-55049501D01*
X67147881Y-55049500D01*
X67147873Y-55049500D01*
X67147865Y-55049500D01*
X66622634Y-55049500D01*
X66555595Y-55029815D01*
X66509840Y-54977011D01*
X66499896Y-54907853D01*
X66528921Y-54844297D01*
X66575182Y-54810939D01*
X66653717Y-54778409D01*
X66653718Y-54778407D01*
X66653726Y-54778405D01*
X66846774Y-54666948D01*
X67023624Y-54531247D01*
X67181247Y-54373624D01*
X67316948Y-54196774D01*
X67428405Y-54003726D01*
X67513710Y-53797781D01*
X67571404Y-53582463D01*
X67600500Y-53361457D01*
X67600500Y-53138543D01*
X67571404Y-52917537D01*
X67513710Y-52702219D01*
X67428405Y-52496274D01*
X67316948Y-52303226D01*
X67222457Y-52180082D01*
X67181248Y-52126377D01*
X67181242Y-52126370D01*
X67023629Y-51968757D01*
X67023622Y-51968751D01*
X66846782Y-51833058D01*
X66846780Y-51833057D01*
X66846774Y-51833052D01*
X66653726Y-51721595D01*
X66653722Y-51721593D01*
X66447790Y-51636293D01*
X66447783Y-51636291D01*
X66447781Y-51636290D01*
X66232463Y-51578596D01*
X66232457Y-51578595D01*
X66232452Y-51578594D01*
X66011466Y-51549501D01*
X66011463Y-51549500D01*
X66011457Y-51549500D01*
X65788543Y-51549500D01*
X65788537Y-51549500D01*
X65788533Y-51549501D01*
X65567547Y-51578594D01*
X65567540Y-51578595D01*
X65567537Y-51578596D01*
X65370200Y-51631472D01*
X65352219Y-51636290D01*
X65352209Y-51636293D01*
X65146277Y-51721593D01*
X65146273Y-51721595D01*
X64953226Y-51833052D01*
X64953217Y-51833058D01*
X64776377Y-51968751D01*
X64776370Y-51968757D01*
X64618757Y-52126370D01*
X64529779Y-52242329D01*
X64476023Y-52282536D01*
X64466060Y-52286378D01*
X64458164Y-52287949D01*
X64407903Y-52308768D01*
X64406519Y-52309341D01*
X64406473Y-52309359D01*
X64276092Y-52363364D01*
X64276079Y-52363371D01*
X64112219Y-52472859D01*
X64067670Y-52517409D01*
X63972861Y-52612218D01*
X63972858Y-52612221D01*
X60362221Y-56222858D01*
X60362218Y-56222861D01*
X60307940Y-56277139D01*
X60222859Y-56362219D01*
X60113371Y-56526079D01*
X60113364Y-56526092D01*
X60064186Y-56644819D01*
X60064183Y-56644829D01*
X60061437Y-56651459D01*
X60037949Y-56708164D01*
X60019766Y-56799577D01*
X60018790Y-56804481D01*
X60018788Y-56804490D01*
X59999500Y-56901456D01*
X59999500Y-61534217D01*
X59979815Y-61601256D01*
X59963181Y-61621898D01*
X59121899Y-62463181D01*
X59060576Y-62496666D01*
X59034218Y-62499500D01*
X55901456Y-62499500D01*
X55708171Y-62537946D01*
X55708167Y-62537948D01*
X55708165Y-62537948D01*
X55708164Y-62537949D01*
X55632745Y-62569188D01*
X55632743Y-62569189D01*
X55526089Y-62613366D01*
X55526079Y-62613371D01*
X55362218Y-62722860D01*
X55362214Y-62722863D01*
X54221898Y-63863181D01*
X53862220Y-64222859D01*
X53862218Y-64222861D01*
X53807940Y-64277139D01*
X53722859Y-64362219D01*
X53613371Y-64526079D01*
X53613366Y-64526089D01*
X53560038Y-64654835D01*
X53537949Y-64708161D01*
X53537947Y-64708167D01*
X53520018Y-64798301D01*
X53520017Y-64798311D01*
X53518724Y-64804812D01*
X53499500Y-64901459D01*
X53499500Y-65026963D01*
X53499004Y-65032491D01*
X53488155Y-65060043D01*
X53479815Y-65088447D01*
X53475498Y-65092187D01*
X53473406Y-65097502D01*
X53449384Y-65114815D01*
X53427011Y-65134202D01*
X53421358Y-65135014D01*
X53416724Y-65138355D01*
X53387158Y-65139932D01*
X53357853Y-65144146D01*
X53352656Y-65141772D01*
X53346954Y-65142077D01*
X53321235Y-65127423D01*
X53294297Y-65115121D01*
X53288256Y-65108632D01*
X53286247Y-65107488D01*
X53285038Y-65105177D01*
X53276235Y-65095721D01*
X53270046Y-65087454D01*
X53270044Y-65087452D01*
X53154835Y-65001206D01*
X53154828Y-65001202D01*
X53019982Y-64950908D01*
X53019983Y-64950908D01*
X52960383Y-64944501D01*
X52960381Y-64944500D01*
X52960373Y-64944500D01*
X52960364Y-64944500D01*
X50959629Y-64944500D01*
X50959623Y-64944501D01*
X50900016Y-64950908D01*
X50765171Y-65001202D01*
X50765164Y-65001206D01*
X50649955Y-65087452D01*
X50649952Y-65087455D01*
X50563706Y-65202664D01*
X50563702Y-65202671D01*
X50513408Y-65337517D01*
X50507001Y-65397116D01*
X50507000Y-65397135D01*
X50507000Y-65720500D01*
X50487315Y-65787539D01*
X50434511Y-65833294D01*
X50383000Y-65844500D01*
X47804097Y-65844500D01*
X47737058Y-65824815D01*
X47691303Y-65772011D01*
X47681359Y-65702853D01*
X47710384Y-65639297D01*
X47716416Y-65632819D01*
X48848735Y-64500500D01*
X52328713Y-61020521D01*
X52328716Y-61020520D01*
X52367421Y-60981814D01*
X52402814Y-60962489D01*
X52428740Y-60948333D01*
X52428743Y-60948332D01*
X52428747Y-60948332D01*
X52455099Y-60945499D01*
X52960371Y-60945499D01*
X52960372Y-60945499D01*
X53019983Y-60939091D01*
X53154831Y-60888796D01*
X53270046Y-60802546D01*
X53356296Y-60687331D01*
X53366690Y-60659460D01*
X53408560Y-60603527D01*
X53474023Y-60579108D01*
X53542297Y-60593958D01*
X53555746Y-60602465D01*
X53738462Y-60735217D01*
X53941327Y-60838582D01*
X53942244Y-60839049D01*
X54159751Y-60909721D01*
X54159752Y-60909721D01*
X54159755Y-60909722D01*
X54385646Y-60945500D01*
X54385647Y-60945500D01*
X54614353Y-60945500D01*
X54614354Y-60945500D01*
X54840245Y-60909722D01*
X54840248Y-60909721D01*
X54840249Y-60909721D01*
X55057755Y-60839049D01*
X55057755Y-60839048D01*
X55057758Y-60839048D01*
X55261538Y-60735217D01*
X55446566Y-60600786D01*
X55608286Y-60439066D01*
X55669992Y-60354134D01*
X55725319Y-60311470D01*
X55794932Y-60305491D01*
X55856727Y-60338096D01*
X55870626Y-60354135D01*
X55932097Y-60438741D01*
X55932097Y-60438742D01*
X56093757Y-60600402D01*
X56278723Y-60734788D01*
X56482429Y-60838582D01*
X56699871Y-60909234D01*
X56790000Y-60923509D01*
X56790000Y-59935747D01*
X56827708Y-59957518D01*
X56967591Y-59995000D01*
X57112409Y-59995000D01*
X57252292Y-59957518D01*
X57290000Y-59935747D01*
X57290000Y-60923508D01*
X57380128Y-60909234D01*
X57597570Y-60838582D01*
X57801276Y-60734788D01*
X57986242Y-60600402D01*
X58147902Y-60438742D01*
X58282288Y-60253776D01*
X58386082Y-60050070D01*
X58456734Y-59832628D01*
X58478532Y-59695000D01*
X57530748Y-59695000D01*
X57552518Y-59657292D01*
X57590000Y-59517409D01*
X57590000Y-59372591D01*
X57552518Y-59232708D01*
X57530748Y-59195000D01*
X58478532Y-59195000D01*
X58456734Y-59057371D01*
X58386082Y-58839929D01*
X58282288Y-58636223D01*
X58147902Y-58451257D01*
X57986242Y-58289597D01*
X57801276Y-58155211D01*
X57597568Y-58051417D01*
X57380124Y-57980765D01*
X57290000Y-57966490D01*
X57290000Y-58954252D01*
X57252292Y-58932482D01*
X57112409Y-58895000D01*
X56967591Y-58895000D01*
X56827708Y-58932482D01*
X56790000Y-58954252D01*
X56790000Y-57966490D01*
X56789999Y-57966490D01*
X56699875Y-57980765D01*
X56482431Y-58051417D01*
X56278723Y-58155211D01*
X56093757Y-58289597D01*
X55932097Y-58451257D01*
X55870627Y-58535864D01*
X55852006Y-58550221D01*
X55836459Y-58567860D01*
X55824851Y-58571161D01*
X55815297Y-58578529D01*
X55791873Y-58580540D01*
X55769255Y-58586974D01*
X55757704Y-58583475D01*
X55745684Y-58584508D01*
X55724891Y-58573536D01*
X55702385Y-58566720D01*
X55690478Y-58555379D01*
X55683889Y-58551902D01*
X55675909Y-58543381D01*
X55672805Y-58539736D01*
X55608286Y-58450934D01*
X55533311Y-58375959D01*
X55530100Y-58372189D01*
X55517796Y-58344630D01*
X55503334Y-58318144D01*
X55502497Y-58310360D01*
X55501617Y-58308389D01*
X55502008Y-58305819D01*
X55500500Y-58291786D01*
X55500500Y-57965782D01*
X55520185Y-57898743D01*
X55536819Y-57878101D01*
X56878101Y-56536819D01*
X56939424Y-56503334D01*
X56965782Y-56500500D01*
X59098543Y-56500500D01*
X59131386Y-56493966D01*
X59206341Y-56479057D01*
X59291836Y-56462051D01*
X59345165Y-56439961D01*
X59473914Y-56386632D01*
X59637782Y-56277139D01*
X59777139Y-56137782D01*
X59777140Y-56137779D01*
X59784206Y-56130714D01*
X59784209Y-56130710D01*
X62137778Y-53777141D01*
X62137782Y-53777139D01*
X62277139Y-53637782D01*
X62386632Y-53473914D01*
X62462051Y-53291835D01*
X62474632Y-53228582D01*
X62500500Y-53098543D01*
X62500500Y-47465781D01*
X62520185Y-47398742D01*
X62536814Y-47378105D01*
X63987819Y-45927099D01*
X64049142Y-45893615D01*
X64118834Y-45898599D01*
G37*
%TD.AperFunction*%
%TA.AperFunction,Conductor*%
G36*
X64596998Y-35392190D02*
G01*
X64623358Y-35394076D01*
X64632411Y-35399894D01*
X64639451Y-35401426D01*
X64667705Y-35422577D01*
X64776370Y-35531242D01*
X64776377Y-35531248D01*
X64826535Y-35569735D01*
X64953226Y-35666948D01*
X65146274Y-35778405D01*
X65146277Y-35778406D01*
X65146282Y-35778409D01*
X65224818Y-35810939D01*
X65279222Y-35854779D01*
X65301287Y-35921073D01*
X65284008Y-35988773D01*
X65232871Y-36036384D01*
X65177366Y-36049500D01*
X64652129Y-36049500D01*
X64652123Y-36049501D01*
X64592516Y-36055908D01*
X64457671Y-36106202D01*
X64457664Y-36106206D01*
X64342455Y-36192452D01*
X64342452Y-36192455D01*
X64256206Y-36307664D01*
X64256202Y-36307671D01*
X64205908Y-36442517D01*
X64199501Y-36502116D01*
X64199500Y-36502135D01*
X64199500Y-38997870D01*
X64199501Y-38997876D01*
X64205908Y-39057483D01*
X64256202Y-39192328D01*
X64256206Y-39192335D01*
X64342452Y-39307544D01*
X64342455Y-39307547D01*
X64457664Y-39393793D01*
X64457671Y-39393797D01*
X64592517Y-39444091D01*
X64592516Y-39444091D01*
X64599444Y-39444835D01*
X64652127Y-39450500D01*
X67147872Y-39450499D01*
X67207483Y-39444091D01*
X67342331Y-39393796D01*
X67457546Y-39307546D01*
X67536866Y-39201588D01*
X67543794Y-39192334D01*
X67546920Y-39186610D01*
X67596324Y-39137204D01*
X67664596Y-39122351D01*
X67730061Y-39146766D01*
X67743434Y-39158354D01*
X67963181Y-39378101D01*
X67996666Y-39439424D01*
X67999500Y-39465782D01*
X67999500Y-46034218D01*
X67990855Y-46063658D01*
X67984332Y-46093645D01*
X67980577Y-46098660D01*
X67979815Y-46101257D01*
X67963181Y-46121899D01*
X67871899Y-46213181D01*
X67810576Y-46246666D01*
X67784218Y-46249500D01*
X67724499Y-46249500D01*
X67657460Y-46229815D01*
X67611705Y-46177011D01*
X67600499Y-46125500D01*
X67600499Y-46002129D01*
X67600498Y-46002123D01*
X67594091Y-45942516D01*
X67543797Y-45807671D01*
X67543793Y-45807664D01*
X67457547Y-45692455D01*
X67457544Y-45692452D01*
X67342335Y-45606206D01*
X67342328Y-45606202D01*
X67207482Y-45555908D01*
X67207483Y-45555908D01*
X67147883Y-45549501D01*
X67147881Y-45549500D01*
X67147873Y-45549500D01*
X67147865Y-45549500D01*
X66622634Y-45549500D01*
X66555595Y-45529815D01*
X66509840Y-45477011D01*
X66499896Y-45407853D01*
X66528921Y-45344297D01*
X66575182Y-45310939D01*
X66653717Y-45278409D01*
X66653718Y-45278407D01*
X66653726Y-45278405D01*
X66846774Y-45166948D01*
X67023624Y-45031247D01*
X67181247Y-44873624D01*
X67316948Y-44696774D01*
X67428405Y-44503726D01*
X67513710Y-44297781D01*
X67571404Y-44082463D01*
X67600500Y-43861457D01*
X67600500Y-43638543D01*
X67571404Y-43417537D01*
X67513710Y-43202219D01*
X67513114Y-43200781D01*
X67428406Y-42996277D01*
X67428405Y-42996274D01*
X67316948Y-42803226D01*
X67243905Y-42708034D01*
X67181248Y-42626377D01*
X67181242Y-42626370D01*
X67023629Y-42468757D01*
X67023622Y-42468751D01*
X66846782Y-42333058D01*
X66846780Y-42333057D01*
X66846774Y-42333052D01*
X66653726Y-42221595D01*
X66653722Y-42221593D01*
X66447790Y-42136293D01*
X66447783Y-42136291D01*
X66447781Y-42136290D01*
X66232463Y-42078596D01*
X66232457Y-42078595D01*
X66232452Y-42078594D01*
X66011466Y-42049501D01*
X66011463Y-42049500D01*
X66011457Y-42049500D01*
X65788543Y-42049500D01*
X65788537Y-42049500D01*
X65788533Y-42049501D01*
X65567547Y-42078594D01*
X65567540Y-42078595D01*
X65567537Y-42078596D01*
X65352219Y-42136290D01*
X65352209Y-42136293D01*
X65146277Y-42221593D01*
X65146273Y-42221595D01*
X64953226Y-42333052D01*
X64953217Y-42333058D01*
X64776377Y-42468751D01*
X64776370Y-42468757D01*
X64618757Y-42626370D01*
X64529779Y-42742329D01*
X64476023Y-42782536D01*
X64466060Y-42786378D01*
X64458164Y-42787949D01*
X64407903Y-42808768D01*
X64406519Y-42809341D01*
X64406473Y-42809359D01*
X64276092Y-42863364D01*
X64276079Y-42863371D01*
X64112219Y-42972859D01*
X64066693Y-43018386D01*
X63972861Y-43112218D01*
X63972858Y-43112221D01*
X60862221Y-46222858D01*
X60862218Y-46222861D01*
X60792538Y-46292540D01*
X60722859Y-46362219D01*
X60613371Y-46526080D01*
X60613364Y-46526093D01*
X60579821Y-46607074D01*
X60579817Y-46607084D01*
X60577691Y-46612219D01*
X60537949Y-46708164D01*
X60521306Y-46791835D01*
X60520014Y-46798325D01*
X60520012Y-46798335D01*
X60499500Y-46901456D01*
X60499500Y-52534218D01*
X60479815Y-52601257D01*
X60463181Y-52621899D01*
X58621899Y-54463181D01*
X58560576Y-54496666D01*
X58534218Y-54499500D01*
X56401455Y-54499500D01*
X56306782Y-54518332D01*
X56306777Y-54518333D01*
X56304812Y-54518724D01*
X56208164Y-54537949D01*
X56199326Y-54541610D01*
X56189901Y-54545513D01*
X56189896Y-54545515D01*
X56026092Y-54613364D01*
X56026079Y-54613371D01*
X55862219Y-54722859D01*
X55820387Y-54764692D01*
X55722861Y-54862218D01*
X55722858Y-54862221D01*
X53862221Y-56722858D01*
X53862218Y-56722861D01*
X53792538Y-56792540D01*
X53722859Y-56862219D01*
X53613371Y-57026080D01*
X53613364Y-57026093D01*
X53584951Y-57094690D01*
X53584947Y-57094699D01*
X53583357Y-57098540D01*
X53537949Y-57208164D01*
X53527090Y-57262754D01*
X53525522Y-57270634D01*
X53525521Y-57270639D01*
X53499500Y-57401455D01*
X53499500Y-58021408D01*
X53479815Y-58088447D01*
X53427011Y-58134202D01*
X53357853Y-58144146D01*
X53294297Y-58115121D01*
X53276235Y-58095721D01*
X53270046Y-58087454D01*
X53270044Y-58087452D01*
X53154835Y-58001206D01*
X53154828Y-58001202D01*
X53019982Y-57950908D01*
X53019983Y-57950908D01*
X52960383Y-57944501D01*
X52960381Y-57944500D01*
X52960373Y-57944500D01*
X52960364Y-57944500D01*
X50959629Y-57944500D01*
X50959623Y-57944501D01*
X50900016Y-57950908D01*
X50765171Y-58001202D01*
X50765164Y-58001206D01*
X50649955Y-58087452D01*
X50649952Y-58087455D01*
X50563706Y-58202664D01*
X50563702Y-58202671D01*
X50513408Y-58337517D01*
X50507001Y-58397116D01*
X50507000Y-58397135D01*
X50507000Y-60492870D01*
X50507001Y-60492876D01*
X50513408Y-60552483D01*
X50563702Y-60687328D01*
X50563706Y-60687335D01*
X50599551Y-60735217D01*
X50649954Y-60802546D01*
X50649957Y-60802548D01*
X50656228Y-60808820D01*
X50655029Y-60810018D01*
X50690648Y-60857594D01*
X50695635Y-60927286D01*
X50662153Y-60988610D01*
X50662149Y-60988614D01*
X49312181Y-62338583D01*
X49250858Y-62372068D01*
X49181166Y-62367084D01*
X49125233Y-62325212D01*
X49100816Y-62259748D01*
X49100500Y-62250902D01*
X49100500Y-55300097D01*
X49120185Y-55233058D01*
X49136819Y-55212416D01*
X49819131Y-54530104D01*
X50514923Y-53834311D01*
X50576244Y-53800828D01*
X50645936Y-53805812D01*
X50676913Y-53822728D01*
X50765164Y-53888793D01*
X50765171Y-53888797D01*
X50900017Y-53939091D01*
X50900016Y-53939091D01*
X50906944Y-53939835D01*
X50959627Y-53945500D01*
X52960372Y-53945499D01*
X53019983Y-53939091D01*
X53154831Y-53888796D01*
X53270046Y-53802546D01*
X53356296Y-53687331D01*
X53366690Y-53659460D01*
X53408560Y-53603527D01*
X53474023Y-53579108D01*
X53542297Y-53593958D01*
X53555746Y-53602465D01*
X53738462Y-53735217D01*
X53861249Y-53797780D01*
X53942244Y-53839049D01*
X54159751Y-53909721D01*
X54159752Y-53909721D01*
X54159755Y-53909722D01*
X54385646Y-53945500D01*
X54385647Y-53945500D01*
X54614353Y-53945500D01*
X54614354Y-53945500D01*
X54840245Y-53909722D01*
X54840248Y-53909721D01*
X54840249Y-53909721D01*
X55057755Y-53839049D01*
X55057755Y-53839048D01*
X55057758Y-53839048D01*
X55261538Y-53735217D01*
X55446566Y-53600786D01*
X55608286Y-53439066D01*
X55669992Y-53354134D01*
X55725319Y-53311470D01*
X55794932Y-53305491D01*
X55856727Y-53338096D01*
X55870626Y-53354135D01*
X55932097Y-53438741D01*
X55932097Y-53438742D01*
X56093757Y-53600402D01*
X56278723Y-53734788D01*
X56482429Y-53838582D01*
X56699871Y-53909234D01*
X56790000Y-53923509D01*
X56790000Y-52935747D01*
X56827708Y-52957518D01*
X56967591Y-52995000D01*
X57112409Y-52995000D01*
X57252292Y-52957518D01*
X57290000Y-52935747D01*
X57290000Y-53923508D01*
X57380128Y-53909234D01*
X57597570Y-53838582D01*
X57801276Y-53734788D01*
X57986242Y-53600402D01*
X58147902Y-53438742D01*
X58282288Y-53253776D01*
X58386082Y-53050070D01*
X58456734Y-52832628D01*
X58478532Y-52695000D01*
X57530748Y-52695000D01*
X57552518Y-52657292D01*
X57590000Y-52517409D01*
X57590000Y-52372591D01*
X57552518Y-52232708D01*
X57530748Y-52195000D01*
X58478532Y-52195000D01*
X58456734Y-52057371D01*
X58386082Y-51839929D01*
X58282288Y-51636223D01*
X58147902Y-51451257D01*
X57986242Y-51289597D01*
X57801276Y-51155211D01*
X57597568Y-51051417D01*
X57380124Y-50980765D01*
X57290000Y-50966490D01*
X57290000Y-51954252D01*
X57252292Y-51932482D01*
X57112409Y-51895000D01*
X56967591Y-51895000D01*
X56827708Y-51932482D01*
X56790000Y-51954252D01*
X56790000Y-50966490D01*
X56789999Y-50966490D01*
X56699875Y-50980765D01*
X56482431Y-51051417D01*
X56278723Y-51155211D01*
X56093757Y-51289597D01*
X55932097Y-51451257D01*
X55870627Y-51535864D01*
X55852006Y-51550221D01*
X55836459Y-51567860D01*
X55824851Y-51571161D01*
X55815297Y-51578529D01*
X55791873Y-51580540D01*
X55769255Y-51586974D01*
X55757704Y-51583475D01*
X55745684Y-51584508D01*
X55724891Y-51573536D01*
X55702385Y-51566720D01*
X55690478Y-51555379D01*
X55683889Y-51551902D01*
X55675909Y-51543381D01*
X55672805Y-51539736D01*
X55608286Y-51450934D01*
X55533311Y-51375959D01*
X55530100Y-51372189D01*
X55517796Y-51344630D01*
X55503334Y-51318144D01*
X55502497Y-51310360D01*
X55501617Y-51308389D01*
X55502008Y-51305819D01*
X55500500Y-51291786D01*
X55500500Y-48465782D01*
X55520185Y-48398743D01*
X55536819Y-48378101D01*
X63277136Y-40637785D01*
X63277136Y-40637784D01*
X63277139Y-40637782D01*
X63354356Y-40522218D01*
X63386632Y-40473914D01*
X63462051Y-40291835D01*
X63465725Y-40273368D01*
X63473996Y-40231790D01*
X63500499Y-40098545D01*
X63500500Y-40098542D01*
X63500500Y-36465782D01*
X63520185Y-36398743D01*
X63536819Y-36378101D01*
X64492343Y-35422577D01*
X64500288Y-35418238D01*
X64505714Y-35410991D01*
X64530473Y-35401756D01*
X64553666Y-35389092D01*
X64562695Y-35389737D01*
X64571178Y-35386574D01*
X64596998Y-35392190D01*
G37*
%TD.AperFunction*%
%TA.AperFunction,Conductor*%
G36*
X67066501Y-20520185D02*
G01*
X67112256Y-20572989D01*
X67122200Y-20642147D01*
X67093175Y-20705703D01*
X67061462Y-20731887D01*
X66886196Y-20833075D01*
X66678148Y-20992718D01*
X66492718Y-21178148D01*
X66333075Y-21386196D01*
X66201958Y-21613299D01*
X66201953Y-21613309D01*
X66101605Y-21855571D01*
X66101602Y-21855581D01*
X66033730Y-22108885D01*
X65999500Y-22368872D01*
X65999500Y-22631127D01*
X66020436Y-22790140D01*
X66033730Y-22891116D01*
X66101602Y-23144418D01*
X66101605Y-23144428D01*
X66201953Y-23386690D01*
X66201958Y-23386700D01*
X66333075Y-23613803D01*
X66492718Y-23821851D01*
X66492726Y-23821860D01*
X66678140Y-24007274D01*
X66678148Y-24007281D01*
X66886196Y-24166924D01*
X67113299Y-24298041D01*
X67113309Y-24298046D01*
X67355571Y-24398394D01*
X67355581Y-24398398D01*
X67608884Y-24466270D01*
X67857188Y-24498960D01*
X67868135Y-24500402D01*
X67868880Y-24500500D01*
X67868887Y-24500500D01*
X68131113Y-24500500D01*
X68131120Y-24500500D01*
X68391116Y-24466270D01*
X68644419Y-24398398D01*
X68886697Y-24298043D01*
X69113803Y-24166924D01*
X69321851Y-24007282D01*
X69321855Y-24007277D01*
X69321860Y-24007274D01*
X69507274Y-23821860D01*
X69507277Y-23821855D01*
X69507282Y-23821851D01*
X69666924Y-23613803D01*
X69666927Y-23613798D01*
X69768113Y-23438538D01*
X69818679Y-23390322D01*
X69887286Y-23377098D01*
X69952151Y-23403066D01*
X69992680Y-23459980D01*
X69999500Y-23500537D01*
X69999500Y-29286608D01*
X69979815Y-29353647D01*
X69927011Y-29399402D01*
X69857853Y-29409346D01*
X69794297Y-29380321D01*
X69779647Y-29365273D01*
X69777138Y-29362216D01*
X66059209Y-25644289D01*
X66059206Y-25644285D01*
X66059206Y-25644286D01*
X66052139Y-25637219D01*
X66052139Y-25637218D01*
X65912782Y-25497861D01*
X65912781Y-25497860D01*
X65912780Y-25497859D01*
X65748920Y-25388371D01*
X65748911Y-25388366D01*
X65676315Y-25358296D01*
X65620165Y-25335038D01*
X65566836Y-25312949D01*
X65566832Y-25312948D01*
X65566828Y-25312946D01*
X65470188Y-25293724D01*
X65373544Y-25274500D01*
X65373541Y-25274500D01*
X60914141Y-25274500D01*
X60847102Y-25254815D01*
X60801347Y-25202011D01*
X60797969Y-25193859D01*
X60793796Y-25182669D01*
X60793793Y-25182665D01*
X60793793Y-25182664D01*
X60707547Y-25067455D01*
X60707544Y-25067452D01*
X60592335Y-24981206D01*
X60592328Y-24981202D01*
X60460401Y-24931997D01*
X60404467Y-24890126D01*
X60380050Y-24824662D01*
X60394902Y-24756389D01*
X60416053Y-24728133D01*
X60529728Y-24614458D01*
X60654620Y-24442557D01*
X60751095Y-24253217D01*
X60816757Y-24051129D01*
X60816757Y-24051126D01*
X60827231Y-23985000D01*
X59933012Y-23985000D01*
X59965925Y-23927993D01*
X60000000Y-23800826D01*
X60000000Y-23669174D01*
X59965925Y-23542007D01*
X59933012Y-23485000D01*
X60827231Y-23485000D01*
X60816757Y-23418873D01*
X60816757Y-23418870D01*
X60751095Y-23216782D01*
X60654620Y-23027442D01*
X60529727Y-22855540D01*
X60529723Y-22855535D01*
X60379464Y-22705276D01*
X60379459Y-22705272D01*
X60207557Y-22580379D01*
X60018215Y-22483903D01*
X59816124Y-22418241D01*
X59750000Y-22407768D01*
X59750000Y-23301988D01*
X59692993Y-23269075D01*
X59565826Y-23235000D01*
X59434174Y-23235000D01*
X59307007Y-23269075D01*
X59250000Y-23301988D01*
X59250000Y-22407768D01*
X59249999Y-22407768D01*
X59183875Y-22418241D01*
X58981784Y-22483903D01*
X58792442Y-22580379D01*
X58620540Y-22705272D01*
X58620535Y-22705276D01*
X58470276Y-22855535D01*
X58470272Y-22855540D01*
X58345379Y-23027442D01*
X58248904Y-23216782D01*
X58183242Y-23418870D01*
X58183242Y-23418873D01*
X58172769Y-23485000D01*
X59066988Y-23485000D01*
X59034075Y-23542007D01*
X59000000Y-23669174D01*
X59000000Y-23800826D01*
X59034075Y-23927993D01*
X59066988Y-23985000D01*
X58172769Y-23985000D01*
X58183242Y-24051126D01*
X58183242Y-24051129D01*
X58248904Y-24253217D01*
X58345379Y-24442557D01*
X58470272Y-24614459D01*
X58470276Y-24614464D01*
X58583946Y-24728134D01*
X58617431Y-24789457D01*
X58612447Y-24859149D01*
X58570575Y-24915082D01*
X58539598Y-24931997D01*
X58407671Y-24981202D01*
X58407664Y-24981206D01*
X58292455Y-25067452D01*
X58292452Y-25067455D01*
X58206206Y-25182664D01*
X58206202Y-25182671D01*
X58155908Y-25317517D01*
X58149501Y-25377116D01*
X58149500Y-25377135D01*
X58149500Y-27172870D01*
X58149501Y-27172876D01*
X58155908Y-27232483D01*
X58206202Y-27367328D01*
X58206206Y-27367335D01*
X58292452Y-27482544D01*
X58292455Y-27482547D01*
X58407664Y-27568793D01*
X58407671Y-27568797D01*
X58542517Y-27619091D01*
X58542516Y-27619091D01*
X58549444Y-27619835D01*
X58602127Y-27625500D01*
X60397872Y-27625499D01*
X60457483Y-27619091D01*
X60592331Y-27568796D01*
X60707546Y-27482546D01*
X60793796Y-27367331D01*
X60797960Y-27356165D01*
X60839829Y-27300234D01*
X60905293Y-27275816D01*
X60914141Y-27275500D01*
X64809218Y-27275500D01*
X64876257Y-27295185D01*
X64896899Y-27311819D01*
X67963181Y-30378101D01*
X67996666Y-30439424D01*
X67999500Y-30465782D01*
X67999500Y-36034217D01*
X67979815Y-36101256D01*
X67963181Y-36121898D01*
X67743434Y-36341645D01*
X67682111Y-36375130D01*
X67612419Y-36370146D01*
X67556486Y-36328274D01*
X67546921Y-36313392D01*
X67543793Y-36307664D01*
X67457547Y-36192455D01*
X67457544Y-36192452D01*
X67342335Y-36106206D01*
X67342328Y-36106202D01*
X67207482Y-36055908D01*
X67207483Y-36055908D01*
X67147883Y-36049501D01*
X67147881Y-36049500D01*
X67147873Y-36049500D01*
X67147865Y-36049500D01*
X66622634Y-36049500D01*
X66555595Y-36029815D01*
X66509840Y-35977011D01*
X66499896Y-35907853D01*
X66528921Y-35844297D01*
X66575182Y-35810939D01*
X66653717Y-35778409D01*
X66653718Y-35778407D01*
X66653726Y-35778405D01*
X66846774Y-35666948D01*
X67023624Y-35531247D01*
X67181247Y-35373624D01*
X67316948Y-35196774D01*
X67428405Y-35003726D01*
X67513710Y-34797781D01*
X67571404Y-34582463D01*
X67600500Y-34361457D01*
X67600500Y-34138543D01*
X67571404Y-33917537D01*
X67513710Y-33702219D01*
X67428405Y-33496274D01*
X67316948Y-33303226D01*
X67238497Y-33200986D01*
X67181248Y-33126377D01*
X67181242Y-33126370D01*
X67023629Y-32968757D01*
X67023622Y-32968751D01*
X66846782Y-32833058D01*
X66846780Y-32833057D01*
X66846774Y-32833052D01*
X66653726Y-32721595D01*
X66653722Y-32721593D01*
X66447790Y-32636293D01*
X66447783Y-32636291D01*
X66447781Y-32636290D01*
X66232463Y-32578596D01*
X66232457Y-32578595D01*
X66232452Y-32578594D01*
X66011466Y-32549501D01*
X66011463Y-32549500D01*
X66011457Y-32549500D01*
X65788543Y-32549500D01*
X65788537Y-32549500D01*
X65788533Y-32549501D01*
X65567547Y-32578594D01*
X65567540Y-32578595D01*
X65567537Y-32578596D01*
X65352219Y-32636290D01*
X65352209Y-32636293D01*
X65146277Y-32721593D01*
X65146273Y-32721595D01*
X64953226Y-32833052D01*
X64953217Y-32833058D01*
X64776377Y-32968751D01*
X64776370Y-32968757D01*
X64618757Y-33126370D01*
X64618751Y-33126377D01*
X64561503Y-33200986D01*
X64505076Y-33242189D01*
X64463127Y-33249500D01*
X64151455Y-33249500D01*
X64059233Y-33267844D01*
X64059224Y-33267846D01*
X64054812Y-33268724D01*
X63958164Y-33287949D01*
X63909238Y-33308215D01*
X63902150Y-33311150D01*
X63902146Y-33311152D01*
X63776089Y-33363366D01*
X63776075Y-33363374D01*
X63653045Y-33445579D01*
X63653046Y-33445580D01*
X63612218Y-33472859D01*
X63612215Y-33472862D01*
X62287299Y-34797780D01*
X61862220Y-35222859D01*
X61862218Y-35222861D01*
X61794477Y-35290602D01*
X61722859Y-35362219D01*
X61613371Y-35526080D01*
X61613364Y-35526093D01*
X61575072Y-35618539D01*
X61575062Y-35618565D01*
X61574128Y-35620821D01*
X61537949Y-35708164D01*
X61535026Y-35722861D01*
X61533129Y-35732395D01*
X61533127Y-35732402D01*
X61499500Y-35901456D01*
X61499500Y-39534217D01*
X61479815Y-39601256D01*
X61463181Y-39621898D01*
X53862220Y-47222859D01*
X53862218Y-47222861D01*
X53792538Y-47292540D01*
X53722859Y-47362219D01*
X53613371Y-47526080D01*
X53613364Y-47526093D01*
X53594138Y-47572511D01*
X53569794Y-47631284D01*
X53552745Y-47672445D01*
X53552744Y-47672444D01*
X53537950Y-47708160D01*
X53537947Y-47708170D01*
X53499500Y-47901456D01*
X53499500Y-51021408D01*
X53479815Y-51088447D01*
X53427011Y-51134202D01*
X53357853Y-51144146D01*
X53294297Y-51115121D01*
X53276235Y-51095721D01*
X53270046Y-51087454D01*
X53270044Y-51087452D01*
X53154835Y-51001206D01*
X53154828Y-51001202D01*
X53019982Y-50950908D01*
X53019983Y-50950908D01*
X52960383Y-50944501D01*
X52960381Y-50944500D01*
X52960373Y-50944500D01*
X52960364Y-50944500D01*
X50959629Y-50944500D01*
X50959623Y-50944501D01*
X50900016Y-50950908D01*
X50765171Y-51001202D01*
X50765164Y-51001206D01*
X50649955Y-51087452D01*
X50649952Y-51087455D01*
X50563706Y-51202664D01*
X50563702Y-51202671D01*
X50513408Y-51337517D01*
X50507001Y-51397116D01*
X50507000Y-51397135D01*
X50507000Y-52092401D01*
X50487315Y-52159440D01*
X50470681Y-52180082D01*
X48139040Y-54511723D01*
X48077717Y-54545208D01*
X48008025Y-54540224D01*
X47952092Y-54498352D01*
X47927675Y-54432888D01*
X47940876Y-54367743D01*
X47945220Y-54359219D01*
X48008477Y-54164534D01*
X48040500Y-53962352D01*
X48040500Y-53757648D01*
X48021515Y-53637782D01*
X48008477Y-53555465D01*
X47951296Y-53379481D01*
X47945220Y-53360781D01*
X47945218Y-53360778D01*
X47945218Y-53360776D01*
X47910087Y-53291829D01*
X47852287Y-53178390D01*
X47823337Y-53138543D01*
X47731971Y-53012786D01*
X47587213Y-52868028D01*
X47421614Y-52747715D01*
X47415006Y-52744348D01*
X47328917Y-52700483D01*
X47278123Y-52652511D01*
X47261328Y-52584690D01*
X47283865Y-52518555D01*
X47328917Y-52479516D01*
X47421610Y-52432287D01*
X47442770Y-52416913D01*
X47587213Y-52311971D01*
X47587215Y-52311968D01*
X47587219Y-52311966D01*
X47731966Y-52167219D01*
X47731968Y-52167215D01*
X47731971Y-52167213D01*
X47786324Y-52092401D01*
X47852287Y-52001610D01*
X47945220Y-51819219D01*
X48008477Y-51624534D01*
X48040500Y-51422352D01*
X48040500Y-51217648D01*
X48019879Y-51087452D01*
X48008477Y-51015465D01*
X47945218Y-50820776D01*
X47911503Y-50754607D01*
X47852287Y-50638390D01*
X47844556Y-50627749D01*
X47731971Y-50472786D01*
X47587213Y-50328028D01*
X47421614Y-50207715D01*
X47415006Y-50204348D01*
X47328917Y-50160483D01*
X47278123Y-50112511D01*
X47261328Y-50044690D01*
X47283865Y-49978555D01*
X47328917Y-49939516D01*
X47421610Y-49892287D01*
X47499554Y-49835658D01*
X47587213Y-49771971D01*
X47587215Y-49771968D01*
X47587219Y-49771966D01*
X47731966Y-49627219D01*
X47731968Y-49627215D01*
X47731971Y-49627213D01*
X47798392Y-49535791D01*
X47852287Y-49461610D01*
X47945220Y-49279219D01*
X48008477Y-49084534D01*
X48040500Y-48882352D01*
X48040500Y-48677648D01*
X48037666Y-48659758D01*
X48046619Y-48590470D01*
X48091614Y-48537016D01*
X48158365Y-48516375D01*
X48222138Y-48532974D01*
X48268215Y-48559577D01*
X48420943Y-48600501D01*
X48420946Y-48600501D01*
X48586653Y-48600501D01*
X48586669Y-48600500D01*
X51413331Y-48600500D01*
X51413347Y-48600501D01*
X51420943Y-48600501D01*
X51579054Y-48600501D01*
X51579057Y-48600501D01*
X51731785Y-48559577D01*
X51802861Y-48518541D01*
X51868716Y-48480520D01*
X51980520Y-48368716D01*
X51980520Y-48368714D01*
X51990724Y-48358511D01*
X51990728Y-48358506D01*
X59858506Y-40490728D01*
X59858511Y-40490724D01*
X59868714Y-40480520D01*
X59868716Y-40480520D01*
X59980520Y-40368716D01*
X60059577Y-40231784D01*
X60100500Y-40079057D01*
X60100500Y-39840718D01*
X60120185Y-39773679D01*
X60168207Y-39730233D01*
X60207815Y-39710052D01*
X60207815Y-39710051D01*
X60207816Y-39710051D01*
X60340415Y-39613713D01*
X60379786Y-39585109D01*
X60379788Y-39585106D01*
X60379792Y-39585104D01*
X60530104Y-39434792D01*
X60530106Y-39434788D01*
X60530109Y-39434786D01*
X60655048Y-39262820D01*
X60655047Y-39262820D01*
X60655051Y-39262816D01*
X60751557Y-39073412D01*
X60817246Y-38871243D01*
X60850500Y-38661287D01*
X60850500Y-38448713D01*
X60817246Y-38238757D01*
X60751557Y-38036588D01*
X60655051Y-37847184D01*
X60655049Y-37847181D01*
X60655048Y-37847179D01*
X60530109Y-37675213D01*
X60379786Y-37524890D01*
X60207820Y-37399951D01*
X60207115Y-37399591D01*
X60199054Y-37395485D01*
X60148259Y-37347512D01*
X60131463Y-37279692D01*
X60153999Y-37213556D01*
X60199054Y-37174515D01*
X60207816Y-37170051D01*
X60286272Y-37113050D01*
X60379786Y-37045109D01*
X60379788Y-37045106D01*
X60379792Y-37045104D01*
X60530104Y-36894792D01*
X60530106Y-36894788D01*
X60530109Y-36894786D01*
X60655048Y-36722820D01*
X60655047Y-36722820D01*
X60655051Y-36722816D01*
X60751557Y-36533412D01*
X60817246Y-36331243D01*
X60850500Y-36121287D01*
X60850500Y-35908713D01*
X60817246Y-35698757D01*
X60751557Y-35496588D01*
X60655051Y-35307184D01*
X60655049Y-35307181D01*
X60655048Y-35307179D01*
X60530109Y-35135213D01*
X60416181Y-35021285D01*
X60382696Y-34959962D01*
X60387680Y-34890270D01*
X60429552Y-34834337D01*
X60460529Y-34817422D01*
X60592086Y-34768354D01*
X60592093Y-34768350D01*
X60707187Y-34682190D01*
X60707190Y-34682187D01*
X60793350Y-34567093D01*
X60793354Y-34567086D01*
X60843596Y-34432379D01*
X60843598Y-34432372D01*
X60849999Y-34372844D01*
X60850000Y-34372827D01*
X60850000Y-33725000D01*
X59933012Y-33725000D01*
X59965925Y-33667993D01*
X60000000Y-33540826D01*
X60000000Y-33409174D01*
X59965925Y-33282007D01*
X59933012Y-33225000D01*
X60850000Y-33225000D01*
X60850000Y-32577172D01*
X60849999Y-32577155D01*
X60843598Y-32517627D01*
X60843596Y-32517620D01*
X60793354Y-32382913D01*
X60793350Y-32382906D01*
X60707190Y-32267812D01*
X60707187Y-32267809D01*
X60592093Y-32181649D01*
X60592086Y-32181645D01*
X60457379Y-32131403D01*
X60457372Y-32131401D01*
X60397844Y-32125000D01*
X59750000Y-32125000D01*
X59750000Y-33041988D01*
X59692993Y-33009075D01*
X59565826Y-32975000D01*
X59434174Y-32975000D01*
X59307007Y-33009075D01*
X59250000Y-33041988D01*
X59250000Y-32125000D01*
X58602155Y-32125000D01*
X58542627Y-32131401D01*
X58542620Y-32131403D01*
X58407913Y-32181645D01*
X58407906Y-32181649D01*
X58292812Y-32267809D01*
X58292809Y-32267812D01*
X58206649Y-32382906D01*
X58206645Y-32382913D01*
X58156403Y-32517620D01*
X58156401Y-32517627D01*
X58150000Y-32577155D01*
X58150000Y-33225000D01*
X59066988Y-33225000D01*
X59034075Y-33282007D01*
X59000000Y-33409174D01*
X59000000Y-33540826D01*
X59034075Y-33667993D01*
X59066988Y-33725000D01*
X58150000Y-33725000D01*
X58150000Y-34372844D01*
X58156401Y-34432372D01*
X58156403Y-34432379D01*
X58206645Y-34567086D01*
X58206649Y-34567093D01*
X58292809Y-34682187D01*
X58292812Y-34682190D01*
X58407906Y-34768350D01*
X58407913Y-34768354D01*
X58539470Y-34817422D01*
X58595404Y-34859293D01*
X58619821Y-34924758D01*
X58604969Y-34993031D01*
X58583819Y-35021285D01*
X58469889Y-35135215D01*
X58344951Y-35307179D01*
X58248444Y-35496585D01*
X58182753Y-35698760D01*
X58159279Y-35846973D01*
X58149500Y-35908713D01*
X58149500Y-36121287D01*
X58157110Y-36169334D01*
X58182283Y-36328274D01*
X58182754Y-36331243D01*
X58240800Y-36509890D01*
X58248444Y-36533414D01*
X58344951Y-36722820D01*
X58469890Y-36894786D01*
X58620213Y-37045109D01*
X58792182Y-37170050D01*
X58800946Y-37174516D01*
X58851742Y-37222491D01*
X58868536Y-37290312D01*
X58845998Y-37356447D01*
X58800946Y-37395484D01*
X58792182Y-37399949D01*
X58620213Y-37524890D01*
X58469890Y-37675213D01*
X58344951Y-37847179D01*
X58248444Y-38036585D01*
X58182753Y-38238760D01*
X58149500Y-38448713D01*
X58149500Y-38661286D01*
X58177838Y-38840208D01*
X58182754Y-38871243D01*
X58243267Y-39057483D01*
X58248444Y-39073414D01*
X58344951Y-39262820D01*
X58469890Y-39434786D01*
X58620211Y-39585107D01*
X58692694Y-39637768D01*
X58760752Y-39687215D01*
X58803419Y-39742544D01*
X58809398Y-39812157D01*
X58776793Y-39873952D01*
X58775549Y-39875214D01*
X51287584Y-47363181D01*
X51226261Y-47396666D01*
X51199903Y-47399500D01*
X48800097Y-47399500D01*
X48733058Y-47379815D01*
X48712416Y-47363181D01*
X48034077Y-46684842D01*
X48000592Y-46623519D01*
X48003828Y-46558841D01*
X48008477Y-46544534D01*
X48040500Y-46342352D01*
X48040500Y-46137648D01*
X48034325Y-46098660D01*
X48008477Y-45935465D01*
X47966953Y-45807669D01*
X47945220Y-45740781D01*
X47945218Y-45740778D01*
X47945218Y-45740776D01*
X47911503Y-45674607D01*
X47852287Y-45558390D01*
X47801708Y-45488773D01*
X47731971Y-45392786D01*
X47587213Y-45248028D01*
X47421613Y-45127715D01*
X47421612Y-45127714D01*
X47421610Y-45127713D01*
X47385125Y-45109122D01*
X47328920Y-45080485D01*
X47278124Y-45032511D01*
X47261328Y-44964690D01*
X47283865Y-44898555D01*
X47328917Y-44859516D01*
X47421610Y-44812287D01*
X47442770Y-44796913D01*
X47587213Y-44691971D01*
X47587215Y-44691968D01*
X47587219Y-44691966D01*
X47731966Y-44547219D01*
X47731968Y-44547215D01*
X47731971Y-44547213D01*
X47784732Y-44474590D01*
X47852287Y-44381610D01*
X47945220Y-44199219D01*
X48008477Y-44004534D01*
X48040500Y-43802352D01*
X48040500Y-43597648D01*
X48026087Y-43506649D01*
X48008477Y-43395465D01*
X47962419Y-43253714D01*
X47945220Y-43200781D01*
X47945218Y-43200778D01*
X47945218Y-43200776D01*
X47889379Y-43091187D01*
X47852287Y-43018390D01*
X47815543Y-42967816D01*
X47731971Y-42852786D01*
X47587213Y-42708028D01*
X47421614Y-42587715D01*
X47399091Y-42576239D01*
X47328917Y-42540483D01*
X47278123Y-42492511D01*
X47261328Y-42424690D01*
X47283865Y-42358555D01*
X47328917Y-42319516D01*
X47421610Y-42272287D01*
X47514272Y-42204965D01*
X47587213Y-42151971D01*
X47587215Y-42151968D01*
X47587219Y-42151966D01*
X47731966Y-42007219D01*
X47731968Y-42007215D01*
X47731971Y-42007213D01*
X47801016Y-41912179D01*
X47852287Y-41841610D01*
X47945220Y-41659219D01*
X48008477Y-41464534D01*
X48040500Y-41262352D01*
X48040500Y-41057648D01*
X48008477Y-40855466D01*
X47986497Y-40787820D01*
X47945218Y-40660776D01*
X47904013Y-40579908D01*
X47852287Y-40478390D01*
X47815543Y-40427816D01*
X47731971Y-40312786D01*
X47587213Y-40168028D01*
X47421614Y-40047715D01*
X47399091Y-40036239D01*
X47328917Y-40000483D01*
X47278123Y-39952511D01*
X47261328Y-39884690D01*
X47283865Y-39818555D01*
X47328917Y-39779516D01*
X47421610Y-39732287D01*
X47452214Y-39710052D01*
X47587213Y-39611971D01*
X47587215Y-39611968D01*
X47587219Y-39611966D01*
X47731966Y-39467219D01*
X47731968Y-39467215D01*
X47731971Y-39467213D01*
X47801016Y-39372179D01*
X47852287Y-39301610D01*
X47945220Y-39119219D01*
X48008477Y-38924534D01*
X48040500Y-38722352D01*
X48040500Y-38517648D01*
X48011579Y-38335048D01*
X48008477Y-38315465D01*
X47960995Y-38169331D01*
X47945220Y-38120781D01*
X47945218Y-38120778D01*
X47945218Y-38120776D01*
X47902320Y-38036585D01*
X47852287Y-37938390D01*
X47815374Y-37887583D01*
X47731971Y-37772786D01*
X47587213Y-37628028D01*
X47421614Y-37507715D01*
X47399091Y-37496239D01*
X47328917Y-37460483D01*
X47278123Y-37412511D01*
X47261328Y-37344690D01*
X47283865Y-37278555D01*
X47328917Y-37239516D01*
X47421610Y-37192287D01*
X47446073Y-37174514D01*
X47587213Y-37071971D01*
X47587215Y-37071968D01*
X47587219Y-37071966D01*
X47731966Y-36927219D01*
X47731968Y-36927215D01*
X47731971Y-36927213D01*
X47824032Y-36800500D01*
X47852287Y-36761610D01*
X47945220Y-36579219D01*
X48008477Y-36384534D01*
X48040500Y-36182352D01*
X48040500Y-35977648D01*
X48008477Y-35775466D01*
X48004369Y-35762822D01*
X48003564Y-35734701D01*
X47999561Y-35706855D01*
X48002579Y-35700244D01*
X48002372Y-35692980D01*
X48016901Y-35668884D01*
X48028586Y-35643299D01*
X48034698Y-35639370D01*
X48038451Y-35633147D01*
X48063695Y-35620734D01*
X48087363Y-35605524D01*
X48097635Y-35604047D01*
X48101152Y-35602318D01*
X48122298Y-35600501D01*
X48279058Y-35600501D01*
X48279061Y-35600500D01*
X48286669Y-35600500D01*
X50763996Y-35600500D01*
X50831035Y-35620185D01*
X50876790Y-35672989D01*
X50886734Y-35742147D01*
X50857709Y-35805703D01*
X50798931Y-35843477D01*
X50783394Y-35846973D01*
X50683760Y-35862753D01*
X50481585Y-35928444D01*
X50292179Y-36024951D01*
X50120213Y-36149890D01*
X49969890Y-36300213D01*
X49844951Y-36472179D01*
X49748444Y-36661585D01*
X49682753Y-36863760D01*
X49649500Y-37073713D01*
X49649500Y-37286286D01*
X49666795Y-37395486D01*
X49682754Y-37496243D01*
X49731506Y-37646287D01*
X49748444Y-37698414D01*
X49844951Y-37887820D01*
X49969890Y-38059786D01*
X50120213Y-38210109D01*
X50292182Y-38335050D01*
X50300946Y-38339516D01*
X50351742Y-38387491D01*
X50368536Y-38455312D01*
X50345998Y-38521447D01*
X50300946Y-38560484D01*
X50292182Y-38564949D01*
X50120213Y-38689890D01*
X49969890Y-38840213D01*
X49844951Y-39012179D01*
X49748444Y-39201585D01*
X49682753Y-39403760D01*
X49649777Y-39611966D01*
X49649500Y-39613713D01*
X49649500Y-39826287D01*
X49682754Y-40036243D01*
X49746291Y-40231790D01*
X49748444Y-40238414D01*
X49844951Y-40427820D01*
X49969890Y-40599786D01*
X50120213Y-40750109D01*
X50292182Y-40875050D01*
X50300946Y-40879516D01*
X50351742Y-40927491D01*
X50368536Y-40995312D01*
X50345998Y-41061447D01*
X50300946Y-41100484D01*
X50292182Y-41104949D01*
X50120213Y-41229890D01*
X49969890Y-41380213D01*
X49844951Y-41552179D01*
X49748444Y-41741585D01*
X49682753Y-41943760D01*
X49649777Y-42151966D01*
X49649500Y-42153713D01*
X49649500Y-42366287D01*
X49682754Y-42576243D01*
X49731506Y-42726287D01*
X49748444Y-42778414D01*
X49844951Y-42967820D01*
X49969890Y-43139786D01*
X50083818Y-43253714D01*
X50117303Y-43315037D01*
X50112319Y-43384729D01*
X50070447Y-43440662D01*
X50039471Y-43457577D01*
X49907912Y-43506646D01*
X49907906Y-43506649D01*
X49792812Y-43592809D01*
X49792809Y-43592812D01*
X49706649Y-43707906D01*
X49706645Y-43707913D01*
X49656403Y-43842620D01*
X49656401Y-43842627D01*
X49650000Y-43902155D01*
X49650000Y-44550000D01*
X50566988Y-44550000D01*
X50534075Y-44607007D01*
X50500000Y-44734174D01*
X50500000Y-44865826D01*
X50534075Y-44992993D01*
X50566988Y-45050000D01*
X49650000Y-45050000D01*
X49650000Y-45697844D01*
X49656401Y-45757372D01*
X49656403Y-45757379D01*
X49706645Y-45892086D01*
X49706649Y-45892093D01*
X49792809Y-46007187D01*
X49792812Y-46007190D01*
X49907906Y-46093350D01*
X49907913Y-46093354D01*
X50042620Y-46143596D01*
X50042627Y-46143598D01*
X50102155Y-46149999D01*
X50102172Y-46150000D01*
X50750000Y-46150000D01*
X50750000Y-45233012D01*
X50807007Y-45265925D01*
X50934174Y-45300000D01*
X51065826Y-45300000D01*
X51192993Y-45265925D01*
X51250000Y-45233012D01*
X51250000Y-46150000D01*
X51897828Y-46150000D01*
X51897844Y-46149999D01*
X51957372Y-46143598D01*
X51957379Y-46143596D01*
X52092086Y-46093354D01*
X52092093Y-46093350D01*
X52207187Y-46007190D01*
X52207190Y-46007187D01*
X52293350Y-45892093D01*
X52293354Y-45892086D01*
X52343596Y-45757379D01*
X52343598Y-45757372D01*
X52349999Y-45697844D01*
X52350000Y-45697827D01*
X52350000Y-45050000D01*
X51433012Y-45050000D01*
X51465925Y-44992993D01*
X51500000Y-44865826D01*
X51500000Y-44734174D01*
X51465925Y-44607007D01*
X51433012Y-44550000D01*
X52350000Y-44550000D01*
X52350000Y-43902172D01*
X52349999Y-43902155D01*
X52343598Y-43842627D01*
X52343596Y-43842620D01*
X52293354Y-43707913D01*
X52293350Y-43707906D01*
X52207190Y-43592812D01*
X52207187Y-43592809D01*
X52092093Y-43506649D01*
X52092088Y-43506646D01*
X51960528Y-43457577D01*
X51904595Y-43415705D01*
X51880178Y-43350241D01*
X51895030Y-43281968D01*
X51916175Y-43253720D01*
X52030104Y-43139792D01*
X52044551Y-43119908D01*
X52155048Y-42967820D01*
X52155047Y-42967820D01*
X52155051Y-42967816D01*
X52251557Y-42778412D01*
X52317246Y-42576243D01*
X52350500Y-42366287D01*
X52350500Y-42153713D01*
X52317246Y-41943757D01*
X52251557Y-41741588D01*
X52155051Y-41552184D01*
X52155049Y-41552181D01*
X52155048Y-41552179D01*
X52030109Y-41380213D01*
X51879786Y-41229890D01*
X51707820Y-41104951D01*
X51707115Y-41104591D01*
X51699054Y-41100485D01*
X51648259Y-41052512D01*
X51631463Y-40984692D01*
X51653999Y-40918556D01*
X51699054Y-40879515D01*
X51707816Y-40875051D01*
X51734774Y-40855465D01*
X51879786Y-40750109D01*
X51879788Y-40750106D01*
X51879792Y-40750104D01*
X52030104Y-40599792D01*
X52030106Y-40599788D01*
X52030109Y-40599786D01*
X52155048Y-40427820D01*
X52155047Y-40427820D01*
X52155051Y-40427816D01*
X52251557Y-40238412D01*
X52317246Y-40036243D01*
X52350500Y-39826287D01*
X52350500Y-39613713D01*
X52317246Y-39403757D01*
X52251557Y-39201588D01*
X52155051Y-39012184D01*
X52155049Y-39012181D01*
X52155048Y-39012179D01*
X52030109Y-38840213D01*
X51879786Y-38689890D01*
X51707820Y-38564951D01*
X51707115Y-38564591D01*
X51699054Y-38560485D01*
X51648259Y-38512512D01*
X51631463Y-38444692D01*
X51653999Y-38378556D01*
X51699054Y-38339515D01*
X51707816Y-38335051D01*
X51734780Y-38315461D01*
X51879786Y-38210109D01*
X51879788Y-38210106D01*
X51879792Y-38210104D01*
X52030104Y-38059792D01*
X52030106Y-38059788D01*
X52030109Y-38059786D01*
X52155048Y-37887820D01*
X52155047Y-37887820D01*
X52155051Y-37887816D01*
X52251557Y-37698412D01*
X52317246Y-37496243D01*
X52350500Y-37286287D01*
X52350500Y-37073713D01*
X52317246Y-36863757D01*
X52251557Y-36661588D01*
X52155051Y-36472184D01*
X52155049Y-36472181D01*
X52155048Y-36472179D01*
X52030109Y-36300213D01*
X51879786Y-36149890D01*
X51707820Y-36024951D01*
X51518414Y-35928444D01*
X51518413Y-35928443D01*
X51518412Y-35928443D01*
X51316243Y-35862754D01*
X51316241Y-35862753D01*
X51316240Y-35862753D01*
X51216606Y-35846973D01*
X51153471Y-35817044D01*
X51116540Y-35757732D01*
X51117538Y-35687870D01*
X51156148Y-35629637D01*
X51220111Y-35601523D01*
X51236004Y-35600500D01*
X52699903Y-35600500D01*
X52766942Y-35620185D01*
X52787583Y-35636818D01*
X53631284Y-36480520D01*
X53631286Y-36480521D01*
X53631290Y-36480524D01*
X53710678Y-36526358D01*
X53768216Y-36559577D01*
X53920943Y-36600501D01*
X53920945Y-36600501D01*
X54086654Y-36600501D01*
X54086670Y-36600500D01*
X55420234Y-36600500D01*
X55487273Y-36620185D01*
X55489125Y-36621398D01*
X55620814Y-36709390D01*
X55620827Y-36709397D01*
X55766498Y-36769735D01*
X55766503Y-36769737D01*
X55882810Y-36792872D01*
X55921153Y-36800499D01*
X55921156Y-36800500D01*
X55921158Y-36800500D01*
X56078844Y-36800500D01*
X56078845Y-36800499D01*
X56233497Y-36769737D01*
X56379179Y-36709394D01*
X56510289Y-36621789D01*
X56621789Y-36510289D01*
X56709394Y-36379179D01*
X56769737Y-36233497D01*
X56800500Y-36078842D01*
X56800500Y-35921158D01*
X56800500Y-35921155D01*
X56800499Y-35921153D01*
X56800483Y-35921073D01*
X56769737Y-35766503D01*
X56766104Y-35757732D01*
X56709397Y-35620827D01*
X56709390Y-35620814D01*
X56621789Y-35489711D01*
X56621786Y-35489707D01*
X56510292Y-35378213D01*
X56510288Y-35378210D01*
X56379185Y-35290609D01*
X56379172Y-35290602D01*
X56233501Y-35230264D01*
X56233489Y-35230261D01*
X56078845Y-35199500D01*
X56078842Y-35199500D01*
X55921158Y-35199500D01*
X55921155Y-35199500D01*
X55766510Y-35230261D01*
X55766498Y-35230264D01*
X55620827Y-35290602D01*
X55620814Y-35290609D01*
X55489125Y-35378602D01*
X55422447Y-35399480D01*
X55420234Y-35399500D01*
X54300098Y-35399500D01*
X54233059Y-35379815D01*
X54212417Y-35363181D01*
X53487590Y-34638355D01*
X53487588Y-34638352D01*
X53368717Y-34519481D01*
X53368716Y-34519480D01*
X53274675Y-34465186D01*
X53274674Y-34465185D01*
X53231783Y-34440422D01*
X53175881Y-34425443D01*
X53079057Y-34399499D01*
X52920943Y-34399499D01*
X52913347Y-34399499D01*
X52913331Y-34399500D01*
X48500098Y-34399500D01*
X48433059Y-34379815D01*
X48412417Y-34363181D01*
X48034077Y-33984841D01*
X48000592Y-33923518D01*
X48003827Y-33858842D01*
X48008477Y-33844534D01*
X48009119Y-33840484D01*
X48040500Y-33642351D01*
X48040500Y-33437648D01*
X48008477Y-33235465D01*
X47973032Y-33126377D01*
X47945220Y-33040781D01*
X47945218Y-33040778D01*
X47945218Y-33040776D01*
X47904013Y-32959908D01*
X47852287Y-32858390D01*
X47838618Y-32839576D01*
X47731971Y-32692786D01*
X47587213Y-32548028D01*
X47421614Y-32427715D01*
X47415006Y-32424348D01*
X47328917Y-32380483D01*
X47278123Y-32332511D01*
X47261328Y-32264690D01*
X47283865Y-32198555D01*
X47328917Y-32159516D01*
X47421610Y-32112287D01*
X47514272Y-32044965D01*
X47587213Y-31991971D01*
X47587215Y-31991968D01*
X47587219Y-31991966D01*
X47731966Y-31847219D01*
X47731968Y-31847215D01*
X47731971Y-31847213D01*
X47801016Y-31752179D01*
X47852287Y-31681610D01*
X47945220Y-31499219D01*
X48008477Y-31304534D01*
X48040500Y-31102352D01*
X48040500Y-30897648D01*
X48021770Y-30779394D01*
X48008477Y-30695465D01*
X47945218Y-30500776D01*
X47888556Y-30389572D01*
X47852287Y-30318390D01*
X47819712Y-30273554D01*
X47731971Y-30152786D01*
X47587213Y-30008028D01*
X47421611Y-29887713D01*
X47328369Y-29840203D01*
X47277574Y-29792229D01*
X47260779Y-29724407D01*
X47283317Y-29658273D01*
X47328371Y-29619234D01*
X47421347Y-29571861D01*
X47586894Y-29451582D01*
X47586895Y-29451582D01*
X47731582Y-29306895D01*
X47731582Y-29306894D01*
X47851859Y-29141349D01*
X47944755Y-28959029D01*
X48007990Y-28764413D01*
X48016609Y-28710000D01*
X47173012Y-28710000D01*
X47205925Y-28652993D01*
X47240000Y-28525826D01*
X47240000Y-28394174D01*
X47205925Y-28267007D01*
X47173012Y-28210000D01*
X48016609Y-28210000D01*
X48007990Y-28155586D01*
X47944755Y-27960970D01*
X47851859Y-27778649D01*
X47839539Y-27761693D01*
X47839538Y-27761692D01*
X47789002Y-27692135D01*
X49734388Y-27692135D01*
X49734388Y-29387870D01*
X49734389Y-29387876D01*
X49740796Y-29447483D01*
X49791090Y-29582328D01*
X49791094Y-29582335D01*
X49877340Y-29697544D01*
X49877343Y-29697547D01*
X49992552Y-29783793D01*
X49992559Y-29783797D01*
X50127405Y-29834091D01*
X50127404Y-29834091D01*
X50134332Y-29834835D01*
X50187015Y-29840500D01*
X51882760Y-29840499D01*
X51942371Y-29834091D01*
X52077219Y-29783796D01*
X52192434Y-29697546D01*
X52278684Y-29582331D01*
X52328979Y-29447483D01*
X52335388Y-29387873D01*
X52335387Y-29375612D01*
X52338963Y-29361052D01*
X52349230Y-29343380D01*
X52354955Y-29323760D01*
X52366427Y-29313783D01*
X52374065Y-29300640D01*
X52392255Y-29291325D01*
X52407680Y-29277913D01*
X52424168Y-29274984D01*
X52436255Y-29268795D01*
X52450906Y-29270234D01*
X52451142Y-29270192D01*
X53134888Y-28586446D01*
X53134888Y-28592661D01*
X53162147Y-28694394D01*
X53214808Y-28785606D01*
X53289282Y-28860080D01*
X53380494Y-28912741D01*
X53482227Y-28940000D01*
X53488441Y-28940000D01*
X52808964Y-29619474D01*
X52853538Y-29651859D01*
X53035856Y-29744755D01*
X53230470Y-29807990D01*
X53432571Y-29840000D01*
X53637205Y-29840000D01*
X53839305Y-29807990D01*
X54033919Y-29744755D01*
X54216237Y-29651859D01*
X54260809Y-29619474D01*
X53581335Y-28940000D01*
X53587549Y-28940000D01*
X53689282Y-28912741D01*
X53780494Y-28860080D01*
X53854968Y-28785606D01*
X53907629Y-28694394D01*
X53934888Y-28592661D01*
X53934888Y-28586447D01*
X54614362Y-29265921D01*
X54646747Y-29221349D01*
X54739643Y-29039031D01*
X54802878Y-28844417D01*
X54834888Y-28642317D01*
X54834888Y-28437682D01*
X54802878Y-28235582D01*
X54739643Y-28040968D01*
X54646747Y-27858650D01*
X54614362Y-27814077D01*
X54614362Y-27814076D01*
X53934888Y-28493551D01*
X53934888Y-28487339D01*
X53907629Y-28385606D01*
X53854968Y-28294394D01*
X53780494Y-28219920D01*
X53689282Y-28167259D01*
X53587549Y-28140000D01*
X53581334Y-28140000D01*
X54260810Y-27460524D01*
X54260809Y-27460523D01*
X54216247Y-27428147D01*
X54216238Y-27428141D01*
X54033919Y-27335244D01*
X53839305Y-27272009D01*
X53637205Y-27240000D01*
X53432571Y-27240000D01*
X53230470Y-27272009D01*
X53035856Y-27335244D01*
X52853532Y-27428143D01*
X52808965Y-27460523D01*
X52808965Y-27460524D01*
X53488442Y-28140000D01*
X53482227Y-28140000D01*
X53380494Y-28167259D01*
X53289282Y-28219920D01*
X53214808Y-28294394D01*
X53162147Y-28385606D01*
X53134888Y-28487339D01*
X53134888Y-28493553D01*
X52450401Y-27809066D01*
X52400737Y-27798633D01*
X52350981Y-27749581D01*
X52338964Y-27718947D01*
X52335387Y-27704378D01*
X52335387Y-27692128D01*
X52328979Y-27632517D01*
X52296100Y-27544365D01*
X52296099Y-27544359D01*
X52278685Y-27497671D01*
X52278681Y-27497664D01*
X52192435Y-27382455D01*
X52192432Y-27382452D01*
X52077223Y-27296206D01*
X52077216Y-27296202D01*
X51942370Y-27245908D01*
X51942371Y-27245908D01*
X51882771Y-27239501D01*
X51882769Y-27239500D01*
X51882761Y-27239500D01*
X51882752Y-27239500D01*
X50187017Y-27239500D01*
X50187011Y-27239501D01*
X50127404Y-27245908D01*
X49992559Y-27296202D01*
X49992552Y-27296206D01*
X49877343Y-27382452D01*
X49877340Y-27382455D01*
X49791094Y-27497664D01*
X49791090Y-27497671D01*
X49740796Y-27632517D01*
X49734389Y-27692116D01*
X49734388Y-27692135D01*
X47789002Y-27692135D01*
X47731582Y-27613104D01*
X47586895Y-27468417D01*
X47421349Y-27348140D01*
X47328370Y-27300765D01*
X47277574Y-27252790D01*
X47260779Y-27184969D01*
X47283316Y-27118835D01*
X47328370Y-27079795D01*
X47332788Y-27077544D01*
X47421610Y-27032287D01*
X47442770Y-27016913D01*
X47587213Y-26911971D01*
X47587215Y-26911968D01*
X47587219Y-26911966D01*
X47731966Y-26767219D01*
X47731968Y-26767215D01*
X47731971Y-26767213D01*
X47784732Y-26694590D01*
X47852287Y-26601610D01*
X47945220Y-26419219D01*
X48008477Y-26224534D01*
X48040500Y-26022352D01*
X48040500Y-25817648D01*
X48008477Y-25615466D01*
X47945220Y-25420781D01*
X47945218Y-25420778D01*
X47945218Y-25420776D01*
X47892604Y-25317517D01*
X47852287Y-25238390D01*
X47844556Y-25227749D01*
X47731971Y-25072786D01*
X47587213Y-24928028D01*
X47421613Y-24807715D01*
X47421612Y-24807714D01*
X47421610Y-24807713D01*
X47364653Y-24778691D01*
X47239223Y-24714781D01*
X47044534Y-24651522D01*
X46869995Y-24623878D01*
X46842352Y-24619500D01*
X46637648Y-24619500D01*
X46613329Y-24623351D01*
X46435465Y-24651522D01*
X46240776Y-24714781D01*
X46058386Y-24807715D01*
X45892786Y-24928028D01*
X45748028Y-25072786D01*
X45627715Y-25238386D01*
X45534781Y-25420776D01*
X45471522Y-25615465D01*
X45439500Y-25817648D01*
X45439500Y-26022351D01*
X45471522Y-26224534D01*
X45534781Y-26419223D01*
X45627715Y-26601613D01*
X45748028Y-26767213D01*
X45892786Y-26911971D01*
X46047749Y-27024556D01*
X46058390Y-27032287D01*
X46130424Y-27068990D01*
X46151629Y-27079795D01*
X46202425Y-27127770D01*
X46219220Y-27195591D01*
X46196682Y-27261726D01*
X46151629Y-27300765D01*
X46058650Y-27348140D01*
X45893105Y-27468417D01*
X45893104Y-27468417D01*
X45748417Y-27613104D01*
X45748417Y-27613105D01*
X45628140Y-27778650D01*
X45535244Y-27960970D01*
X45472009Y-28155586D01*
X45463391Y-28210000D01*
X46306988Y-28210000D01*
X46274075Y-28267007D01*
X46240000Y-28394174D01*
X46240000Y-28525826D01*
X46274075Y-28652993D01*
X46306988Y-28710000D01*
X45463391Y-28710000D01*
X45472009Y-28764413D01*
X45535244Y-28959029D01*
X45628140Y-29141349D01*
X45748417Y-29306894D01*
X45748417Y-29306895D01*
X45893104Y-29451582D01*
X46058652Y-29571861D01*
X46151628Y-29619234D01*
X46202425Y-29667208D01*
X46219220Y-29735029D01*
X46196683Y-29801164D01*
X46151630Y-29840203D01*
X46058388Y-29887713D01*
X45892786Y-30008028D01*
X45748028Y-30152786D01*
X45627715Y-30318386D01*
X45534781Y-30500776D01*
X45471522Y-30695465D01*
X45439500Y-30897648D01*
X45439500Y-31102351D01*
X45471522Y-31304534D01*
X45534781Y-31499223D01*
X45589703Y-31607011D01*
X45608132Y-31643181D01*
X45627715Y-31681613D01*
X45748028Y-31847213D01*
X45892786Y-31991971D01*
X46047749Y-32104556D01*
X46058390Y-32112287D01*
X46149840Y-32158883D01*
X46151080Y-32159515D01*
X46201876Y-32207490D01*
X46218671Y-32275311D01*
X46196134Y-32341446D01*
X46151080Y-32380485D01*
X46058386Y-32427715D01*
X45892786Y-32548028D01*
X45748028Y-32692786D01*
X45627715Y-32858385D01*
X45620883Y-32871795D01*
X45572909Y-32922591D01*
X45510398Y-32939500D01*
X44180940Y-32939500D01*
X44140019Y-32950464D01*
X44140019Y-32950465D01*
X44104778Y-32959908D01*
X44028214Y-32980423D01*
X44028209Y-32980426D01*
X43891290Y-33059475D01*
X43891282Y-33059481D01*
X42719481Y-34231282D01*
X42719480Y-34231284D01*
X42685748Y-34289711D01*
X42669913Y-34317138D01*
X42669912Y-34317139D01*
X42644408Y-34361313D01*
X42593841Y-34409529D01*
X42576028Y-34417017D01*
X42529692Y-34432372D01*
X42430668Y-34465185D01*
X42430663Y-34465187D01*
X42281342Y-34557289D01*
X42157289Y-34681342D01*
X42065187Y-34830663D01*
X42065185Y-34830668D01*
X42052749Y-34868198D01*
X42010001Y-34997203D01*
X42010001Y-34997204D01*
X42010000Y-34997204D01*
X41999500Y-35099983D01*
X41999500Y-35900001D01*
X41999501Y-35900019D01*
X42010000Y-36002796D01*
X42010001Y-36002799D01*
X42065185Y-36169331D01*
X42065187Y-36169336D01*
X42079445Y-36192452D01*
X42154041Y-36313392D01*
X42157289Y-36318657D01*
X42250951Y-36412319D01*
X42284436Y-36473642D01*
X42279452Y-36543334D01*
X42250951Y-36587681D01*
X42157289Y-36681342D01*
X42065187Y-36830663D01*
X42065185Y-36830668D01*
X42054730Y-36862219D01*
X42010001Y-36997203D01*
X42010001Y-36997204D01*
X42010000Y-36997204D01*
X41999500Y-37099983D01*
X41999500Y-37900001D01*
X41999501Y-37900019D01*
X42010000Y-38002796D01*
X42010001Y-38002799D01*
X42049095Y-38120776D01*
X42065186Y-38169334D01*
X42157288Y-38318656D01*
X42281344Y-38442712D01*
X42430666Y-38534814D01*
X42597203Y-38589999D01*
X42699991Y-38600500D01*
X43399902Y-38600499D01*
X43466941Y-38620183D01*
X43487583Y-38636818D01*
X43835139Y-38984374D01*
X43835149Y-38984385D01*
X43839479Y-38988715D01*
X43839480Y-38988716D01*
X43951284Y-39100520D01*
X44031387Y-39146766D01*
X44038095Y-39150639D01*
X44038097Y-39150641D01*
X44088213Y-39179576D01*
X44088215Y-39179577D01*
X44240942Y-39220500D01*
X44240943Y-39220500D01*
X45510398Y-39220500D01*
X45577437Y-39240185D01*
X45620883Y-39288205D01*
X45627715Y-39301614D01*
X45748028Y-39467213D01*
X45892786Y-39611971D01*
X46027786Y-39710052D01*
X46058390Y-39732287D01*
X46122065Y-39764731D01*
X46151080Y-39779515D01*
X46201876Y-39827490D01*
X46218671Y-39895311D01*
X46196134Y-39961446D01*
X46151080Y-40000485D01*
X46058386Y-40047715D01*
X45892786Y-40168028D01*
X45748028Y-40312786D01*
X45627715Y-40478385D01*
X45626627Y-40480521D01*
X45621425Y-40490732D01*
X45620883Y-40491795D01*
X45572909Y-40542591D01*
X45510398Y-40559500D01*
X40960097Y-40559500D01*
X40893058Y-40539815D01*
X40872416Y-40523181D01*
X37387590Y-37038355D01*
X37387588Y-37038352D01*
X37268717Y-36919481D01*
X37268716Y-36919480D01*
X37169536Y-36862219D01*
X37169535Y-36862218D01*
X37131783Y-36840422D01*
X37075881Y-36825443D01*
X36979057Y-36799499D01*
X36820943Y-36799499D01*
X36813347Y-36799499D01*
X36813331Y-36799500D01*
X32795331Y-36799500D01*
X32728292Y-36779815D01*
X32682537Y-36727011D01*
X32672593Y-36657853D01*
X32684846Y-36619205D01*
X32705218Y-36579223D01*
X32705218Y-36579222D01*
X32705220Y-36579219D01*
X32768477Y-36384534D01*
X32800500Y-36182352D01*
X32800500Y-35977648D01*
X32777035Y-35829500D01*
X32768477Y-35775465D01*
X32754485Y-35732402D01*
X32705220Y-35580781D01*
X32705216Y-35580773D01*
X32705215Y-35580770D01*
X32703353Y-35576272D01*
X32704305Y-35575877D01*
X32692330Y-35512132D01*
X32718603Y-35447390D01*
X32775708Y-35407130D01*
X32815712Y-35400500D01*
X35120234Y-35400500D01*
X35187273Y-35420185D01*
X35189125Y-35421398D01*
X35320814Y-35509390D01*
X35320827Y-35509397D01*
X35441974Y-35559577D01*
X35466503Y-35569737D01*
X35621153Y-35600499D01*
X35621156Y-35600500D01*
X35621158Y-35600500D01*
X35778844Y-35600500D01*
X35778845Y-35600499D01*
X35933497Y-35569737D01*
X36057403Y-35518414D01*
X36079172Y-35509397D01*
X36079172Y-35509396D01*
X36079179Y-35509394D01*
X36210289Y-35421789D01*
X36321789Y-35310289D01*
X36409394Y-35179179D01*
X36469737Y-35033497D01*
X36500500Y-34878842D01*
X36500500Y-34721158D01*
X36500500Y-34721155D01*
X36500499Y-34721153D01*
X36489230Y-34664500D01*
X36469737Y-34566503D01*
X36466119Y-34557768D01*
X36409397Y-34420827D01*
X36409390Y-34420814D01*
X36321789Y-34289711D01*
X36321786Y-34289707D01*
X36210292Y-34178213D01*
X36210288Y-34178210D01*
X36079185Y-34090609D01*
X36079172Y-34090602D01*
X35933501Y-34030264D01*
X35933489Y-34030261D01*
X35778845Y-33999500D01*
X35778842Y-33999500D01*
X35621158Y-33999500D01*
X35621155Y-33999500D01*
X35466510Y-34030261D01*
X35466498Y-34030264D01*
X35320827Y-34090602D01*
X35320814Y-34090609D01*
X35189125Y-34178602D01*
X35122447Y-34199480D01*
X35120234Y-34199500D01*
X32823287Y-34199500D01*
X32756248Y-34179815D01*
X32710493Y-34127011D01*
X32700549Y-34057853D01*
X32705356Y-34037182D01*
X32767990Y-33844413D01*
X32776609Y-33790000D01*
X31933012Y-33790000D01*
X31965925Y-33732993D01*
X32000000Y-33605826D01*
X32000000Y-33474174D01*
X31965925Y-33347007D01*
X31933012Y-33290000D01*
X32776609Y-33290000D01*
X32767990Y-33235586D01*
X32705356Y-33042818D01*
X32703361Y-32972977D01*
X32739441Y-32913144D01*
X32802142Y-32882316D01*
X32823287Y-32880500D01*
X36023331Y-32880500D01*
X36023347Y-32880501D01*
X36030943Y-32880501D01*
X36189054Y-32880501D01*
X36189057Y-32880501D01*
X36341785Y-32839577D01*
X36391904Y-32810639D01*
X36478716Y-32760520D01*
X36590520Y-32648716D01*
X36590520Y-32648714D01*
X36600728Y-32638507D01*
X36600729Y-32638504D01*
X38532416Y-30706819D01*
X38593739Y-30673334D01*
X38620097Y-30670500D01*
X41970234Y-30670500D01*
X42037273Y-30690185D01*
X42039125Y-30691398D01*
X42170814Y-30779390D01*
X42170827Y-30779397D01*
X42316498Y-30839735D01*
X42316503Y-30839737D01*
X42471153Y-30870499D01*
X42471156Y-30870500D01*
X42471158Y-30870500D01*
X42628844Y-30870500D01*
X42628845Y-30870499D01*
X42783497Y-30839737D01*
X42929179Y-30779394D01*
X43060289Y-30691789D01*
X43171789Y-30580289D01*
X43259394Y-30449179D01*
X43319737Y-30303497D01*
X43335048Y-30226520D01*
X43350500Y-30148845D01*
X43350500Y-29991155D01*
X43350499Y-29991153D01*
X43336345Y-29919999D01*
X43319737Y-29836503D01*
X43281734Y-29744755D01*
X43259397Y-29690827D01*
X43259390Y-29690814D01*
X43171789Y-29559711D01*
X43171786Y-29559707D01*
X43060292Y-29448213D01*
X43060288Y-29448210D01*
X42929185Y-29360609D01*
X42929172Y-29360602D01*
X42783501Y-29300264D01*
X42783489Y-29300261D01*
X42628845Y-29269500D01*
X42628842Y-29269500D01*
X42471158Y-29269500D01*
X42471155Y-29269500D01*
X42316510Y-29300261D01*
X42316498Y-29300264D01*
X42170827Y-29360602D01*
X42170814Y-29360609D01*
X42039125Y-29448602D01*
X41972447Y-29469480D01*
X41970234Y-29469500D01*
X38406669Y-29469500D01*
X38406653Y-29469499D01*
X38399057Y-29469499D01*
X38240943Y-29469499D01*
X38147024Y-29494665D01*
X38088210Y-29510424D01*
X38088209Y-29510425D01*
X38038096Y-29539359D01*
X38038095Y-29539360D01*
X38002853Y-29559707D01*
X37951285Y-29589479D01*
X37951282Y-29589481D01*
X37888905Y-29651859D01*
X37839480Y-29701284D01*
X37839478Y-29701286D01*
X36850580Y-30690185D01*
X35897584Y-31643181D01*
X35836261Y-31676666D01*
X35809903Y-31679500D01*
X32815712Y-31679500D01*
X32748673Y-31659815D01*
X32702918Y-31607011D01*
X32692974Y-31537853D01*
X32703742Y-31503889D01*
X32703353Y-31503728D01*
X32705215Y-31499229D01*
X32705215Y-31499228D01*
X32705220Y-31499219D01*
X32768477Y-31304534D01*
X32800500Y-31102352D01*
X32800500Y-30897648D01*
X32781770Y-30779394D01*
X32768477Y-30695465D01*
X32705218Y-30500776D01*
X32648556Y-30389572D01*
X32612287Y-30318390D01*
X32579712Y-30273554D01*
X32491971Y-30152786D01*
X32347213Y-30008028D01*
X32181614Y-29887715D01*
X32175006Y-29884348D01*
X32088917Y-29840483D01*
X32038123Y-29792511D01*
X32021328Y-29724690D01*
X32043865Y-29658555D01*
X32088917Y-29619516D01*
X32181610Y-29572287D01*
X32226929Y-29539361D01*
X32347213Y-29451971D01*
X32347215Y-29451968D01*
X32347219Y-29451966D01*
X32491966Y-29307219D01*
X32491968Y-29307215D01*
X32491971Y-29307213D01*
X32600174Y-29158282D01*
X32612287Y-29141610D01*
X32705220Y-28959219D01*
X32768477Y-28764534D01*
X32800500Y-28562352D01*
X32800500Y-28357648D01*
X32778686Y-28219920D01*
X32768477Y-28155465D01*
X32705218Y-27960776D01*
X32671503Y-27894607D01*
X32612287Y-27778390D01*
X32591356Y-27749581D01*
X32491971Y-27612786D01*
X32347219Y-27468034D01*
X32310930Y-27441669D01*
X32268264Y-27386339D01*
X32262285Y-27316726D01*
X32294890Y-27254931D01*
X32355728Y-27220573D01*
X32370562Y-27218060D01*
X32407483Y-27214091D01*
X32542328Y-27163797D01*
X32542327Y-27163797D01*
X32542331Y-27163796D01*
X32657546Y-27077546D01*
X32743796Y-26962331D01*
X32794091Y-26827483D01*
X32800500Y-26767873D01*
X32800499Y-25072128D01*
X32794091Y-25012517D01*
X32782411Y-24981202D01*
X32743797Y-24877671D01*
X32743793Y-24877664D01*
X32657547Y-24762455D01*
X32657544Y-24762452D01*
X32542335Y-24676206D01*
X32542328Y-24676202D01*
X32407482Y-24625908D01*
X32407483Y-24625908D01*
X32347883Y-24619501D01*
X32347881Y-24619500D01*
X32347873Y-24619500D01*
X32347864Y-24619500D01*
X30652129Y-24619500D01*
X30652123Y-24619501D01*
X30592516Y-24625908D01*
X30457671Y-24676202D01*
X30457664Y-24676206D01*
X30342455Y-24762452D01*
X30342452Y-24762455D01*
X30256206Y-24877664D01*
X30256202Y-24877671D01*
X30205908Y-25012517D01*
X30200002Y-25067454D01*
X30199501Y-25072123D01*
X30199500Y-25072135D01*
X30199500Y-26767870D01*
X30199501Y-26767876D01*
X30205908Y-26827483D01*
X30256202Y-26962328D01*
X30256206Y-26962335D01*
X30342452Y-27077544D01*
X30342455Y-27077547D01*
X30457664Y-27163793D01*
X30457671Y-27163797D01*
X30502618Y-27180561D01*
X30592517Y-27214091D01*
X30629441Y-27218060D01*
X30693989Y-27244796D01*
X30733838Y-27302188D01*
X30736333Y-27372013D01*
X30700681Y-27432102D01*
X30689071Y-27441666D01*
X30652784Y-27468030D01*
X30508028Y-27612786D01*
X30387715Y-27778386D01*
X30294781Y-27960776D01*
X30231522Y-28155465D01*
X30202694Y-28337482D01*
X30199500Y-28357648D01*
X30199500Y-28562352D01*
X30203490Y-28587544D01*
X30231522Y-28764534D01*
X30294781Y-28959223D01*
X30387715Y-29141613D01*
X30508028Y-29307213D01*
X30652786Y-29451971D01*
X30801075Y-29559707D01*
X30818390Y-29572287D01*
X30898280Y-29612993D01*
X30911080Y-29619515D01*
X30961876Y-29667490D01*
X30978671Y-29735311D01*
X30956134Y-29801446D01*
X30911080Y-29840485D01*
X30818386Y-29887715D01*
X30652786Y-30008028D01*
X30508028Y-30152786D01*
X30387715Y-30318386D01*
X30294781Y-30500776D01*
X30231522Y-30695465D01*
X30199500Y-30897648D01*
X30199500Y-31102351D01*
X30231522Y-31304534D01*
X30267655Y-31415737D01*
X30294780Y-31499219D01*
X30294782Y-31499223D01*
X30294784Y-31499229D01*
X30296647Y-31503728D01*
X30295694Y-31504122D01*
X30307670Y-31567868D01*
X30281397Y-31632610D01*
X30224292Y-31672870D01*
X30184288Y-31679500D01*
X28665425Y-31679500D01*
X28598386Y-31659815D01*
X28565107Y-31628385D01*
X28530107Y-31580212D01*
X28530102Y-31580206D01*
X28379786Y-31429890D01*
X28207817Y-31304949D01*
X28198504Y-31300204D01*
X28147707Y-31252230D01*
X28130912Y-31184409D01*
X28153449Y-31118274D01*
X28198507Y-31079232D01*
X28207555Y-31074622D01*
X28261716Y-31035270D01*
X28261717Y-31035270D01*
X27629408Y-30402962D01*
X27692993Y-30385925D01*
X27807007Y-30320099D01*
X27900099Y-30227007D01*
X27965925Y-30112993D01*
X27982962Y-30049408D01*
X28615270Y-30681717D01*
X28615270Y-30681716D01*
X28654622Y-30627554D01*
X28751095Y-30438217D01*
X28816757Y-30236130D01*
X28816757Y-30236127D01*
X28850000Y-30026246D01*
X28850000Y-29813753D01*
X28816757Y-29603872D01*
X28816757Y-29603869D01*
X28751095Y-29401782D01*
X28654624Y-29212449D01*
X28615270Y-29158282D01*
X28615269Y-29158282D01*
X27982962Y-29790590D01*
X27965925Y-29727007D01*
X27900099Y-29612993D01*
X27807007Y-29519901D01*
X27692993Y-29454075D01*
X27629409Y-29437037D01*
X28299627Y-28766818D01*
X28360950Y-28733333D01*
X28387307Y-28730499D01*
X28397872Y-28730499D01*
X28457483Y-28724091D01*
X28592331Y-28673796D01*
X28707546Y-28587546D01*
X28793796Y-28472331D01*
X28844091Y-28337483D01*
X28850500Y-28277873D01*
X28850499Y-26482128D01*
X28844091Y-26422517D01*
X28842862Y-26419223D01*
X28793797Y-26287671D01*
X28793793Y-26287664D01*
X28707547Y-26172455D01*
X28707544Y-26172452D01*
X28592335Y-26086206D01*
X28592328Y-26086202D01*
X28457482Y-26035908D01*
X28457483Y-26035908D01*
X28397883Y-26029501D01*
X28397881Y-26029500D01*
X28397873Y-26029500D01*
X28397864Y-26029500D01*
X26602129Y-26029500D01*
X26602123Y-26029501D01*
X26542516Y-26035908D01*
X26407671Y-26086202D01*
X26407664Y-26086206D01*
X26292455Y-26172452D01*
X26292452Y-26172455D01*
X26223766Y-26264208D01*
X26167832Y-26306079D01*
X26098141Y-26311063D01*
X26036818Y-26277577D01*
X26003334Y-26216254D01*
X26000500Y-26189897D01*
X26000500Y-23500537D01*
X26020185Y-23433498D01*
X26072989Y-23387743D01*
X26142147Y-23377799D01*
X26205703Y-23406824D01*
X26231887Y-23438538D01*
X26333072Y-23613798D01*
X26333074Y-23613802D01*
X26492718Y-23821851D01*
X26492726Y-23821860D01*
X26678140Y-24007274D01*
X26678148Y-24007281D01*
X26886196Y-24166924D01*
X27113299Y-24298041D01*
X27113309Y-24298046D01*
X27355571Y-24398394D01*
X27355581Y-24398398D01*
X27608884Y-24466270D01*
X27857188Y-24498960D01*
X27868135Y-24500402D01*
X27868880Y-24500500D01*
X27868887Y-24500500D01*
X28131113Y-24500500D01*
X28131120Y-24500500D01*
X28391116Y-24466270D01*
X28644419Y-24398398D01*
X28886697Y-24298043D01*
X29113803Y-24166924D01*
X29321851Y-24007282D01*
X29321855Y-24007277D01*
X29321860Y-24007274D01*
X29507274Y-23821860D01*
X29507277Y-23821855D01*
X29507282Y-23821851D01*
X29666924Y-23613803D01*
X29798043Y-23386697D01*
X29898398Y-23144419D01*
X29966270Y-22891116D01*
X29999050Y-22642135D01*
X49614500Y-22642135D01*
X49614500Y-24437870D01*
X49614501Y-24437876D01*
X49620908Y-24497483D01*
X49671202Y-24632328D01*
X49671206Y-24632335D01*
X49757452Y-24747544D01*
X49757455Y-24747547D01*
X49872664Y-24833793D01*
X49872671Y-24833797D01*
X50007517Y-24884091D01*
X50007516Y-24884091D01*
X50014444Y-24884835D01*
X50067127Y-24890500D01*
X51862872Y-24890499D01*
X51922483Y-24884091D01*
X52057331Y-24833796D01*
X52172546Y-24747546D01*
X52258796Y-24632331D01*
X52308002Y-24500401D01*
X52349872Y-24444468D01*
X52415337Y-24420050D01*
X52483610Y-24434901D01*
X52511865Y-24456053D01*
X52625535Y-24569723D01*
X52625540Y-24569727D01*
X52797442Y-24694620D01*
X52986782Y-24791095D01*
X53188871Y-24856757D01*
X53255000Y-24867231D01*
X53255000Y-23973012D01*
X53312007Y-24005925D01*
X53439174Y-24040000D01*
X53570826Y-24040000D01*
X53697993Y-24005925D01*
X53755000Y-23973012D01*
X53755000Y-24867230D01*
X53821126Y-24856757D01*
X53821129Y-24856757D01*
X54023217Y-24791095D01*
X54212557Y-24694620D01*
X54384459Y-24569727D01*
X54384464Y-24569723D01*
X54534723Y-24419464D01*
X54534727Y-24419459D01*
X54659620Y-24247557D01*
X54756095Y-24058217D01*
X54821757Y-23856129D01*
X54821757Y-23856126D01*
X54832231Y-23790000D01*
X53938012Y-23790000D01*
X53970925Y-23732993D01*
X54005000Y-23605826D01*
X54005000Y-23474174D01*
X53970925Y-23347007D01*
X53938012Y-23290000D01*
X54832231Y-23290000D01*
X54821757Y-23223873D01*
X54821757Y-23223870D01*
X54756095Y-23021782D01*
X54659620Y-22832442D01*
X54534727Y-22660540D01*
X54534723Y-22660535D01*
X54384464Y-22510276D01*
X54384459Y-22510272D01*
X54212557Y-22385379D01*
X54023215Y-22288903D01*
X53821124Y-22223241D01*
X53755000Y-22212768D01*
X53755000Y-23106988D01*
X53697993Y-23074075D01*
X53570826Y-23040000D01*
X53439174Y-23040000D01*
X53312007Y-23074075D01*
X53255000Y-23106988D01*
X53255000Y-22212768D01*
X53254999Y-22212768D01*
X53188875Y-22223241D01*
X52986784Y-22288903D01*
X52797442Y-22385379D01*
X52625541Y-22510271D01*
X52511865Y-22623947D01*
X52450542Y-22657431D01*
X52380850Y-22652447D01*
X52324917Y-22610575D01*
X52308002Y-22579598D01*
X52258797Y-22447671D01*
X52258793Y-22447664D01*
X52172547Y-22332455D01*
X52172544Y-22332452D01*
X52057335Y-22246206D01*
X52057328Y-22246202D01*
X51922482Y-22195908D01*
X51922483Y-22195908D01*
X51862883Y-22189501D01*
X51862881Y-22189500D01*
X51862873Y-22189500D01*
X51862864Y-22189500D01*
X50067129Y-22189500D01*
X50067123Y-22189501D01*
X50007516Y-22195908D01*
X49872671Y-22246202D01*
X49872664Y-22246206D01*
X49757455Y-22332452D01*
X49757452Y-22332455D01*
X49671206Y-22447664D01*
X49671202Y-22447671D01*
X49620908Y-22582517D01*
X49614501Y-22642116D01*
X49614500Y-22642135D01*
X29999050Y-22642135D01*
X30000500Y-22631120D01*
X30000500Y-22368880D01*
X29966270Y-22108884D01*
X29898398Y-21855581D01*
X29802019Y-21622901D01*
X29798046Y-21613309D01*
X29798041Y-21613299D01*
X29666924Y-21386196D01*
X29507281Y-21178148D01*
X29507274Y-21178140D01*
X29321860Y-20992726D01*
X29321851Y-20992718D01*
X29113803Y-20833075D01*
X28938538Y-20731887D01*
X28890323Y-20681320D01*
X28877099Y-20612713D01*
X28903067Y-20547849D01*
X28959981Y-20507320D01*
X29000538Y-20500500D01*
X66999462Y-20500500D01*
X67066501Y-20520185D01*
G37*
%TD.AperFunction*%
%TA.AperFunction,Conductor*%
G36*
X30243752Y-32900185D02*
G01*
X30289507Y-32952989D01*
X30299451Y-33022147D01*
X30294644Y-33042818D01*
X30232009Y-33235586D01*
X30223391Y-33290000D01*
X31066988Y-33290000D01*
X31034075Y-33347007D01*
X31000000Y-33474174D01*
X31000000Y-33605826D01*
X31034075Y-33732993D01*
X31066988Y-33790000D01*
X30223391Y-33790000D01*
X30232009Y-33844413D01*
X30294644Y-34037182D01*
X30296639Y-34107023D01*
X30260559Y-34166856D01*
X30197858Y-34197684D01*
X30176713Y-34199500D01*
X28650894Y-34199500D01*
X28583855Y-34179815D01*
X28550577Y-34148387D01*
X28530104Y-34120208D01*
X28379792Y-33969896D01*
X28379786Y-33969890D01*
X28207820Y-33844951D01*
X28206764Y-33844413D01*
X28199054Y-33840485D01*
X28148259Y-33792512D01*
X28131463Y-33724692D01*
X28153999Y-33658556D01*
X28199054Y-33619515D01*
X28207816Y-33615051D01*
X28371300Y-33496274D01*
X28379786Y-33490109D01*
X28379788Y-33490106D01*
X28379792Y-33490104D01*
X28530104Y-33339792D01*
X28530106Y-33339788D01*
X28530109Y-33339786D01*
X28655048Y-33167820D01*
X28655047Y-33167820D01*
X28655051Y-33167816D01*
X28751557Y-32978412D01*
X28755532Y-32966177D01*
X28794971Y-32908504D01*
X28859331Y-32881308D01*
X28873462Y-32880500D01*
X30176713Y-32880500D01*
X30243752Y-32900185D01*
G37*
%TD.AperFunction*%
%TA.AperFunction,Conductor*%
G36*
X27034075Y-30112993D02*
G01*
X27099901Y-30227007D01*
X27192993Y-30320099D01*
X27307007Y-30385925D01*
X27370590Y-30402962D01*
X26738282Y-31035269D01*
X26738282Y-31035270D01*
X26792452Y-31074626D01*
X26792451Y-31074626D01*
X26801495Y-31079234D01*
X26852292Y-31127208D01*
X26869087Y-31195029D01*
X26846550Y-31261164D01*
X26801499Y-31300202D01*
X26792182Y-31304949D01*
X26620213Y-31429890D01*
X26469890Y-31580213D01*
X26344951Y-31752179D01*
X26248445Y-31941582D01*
X26248443Y-31941587D01*
X26248443Y-31941588D01*
X26242429Y-31960094D01*
X26202992Y-32017768D01*
X26138633Y-32044965D01*
X26069787Y-32033050D01*
X26018312Y-31985805D01*
X26000500Y-31921773D01*
X26000500Y-30456611D01*
X26020185Y-30389572D01*
X26072989Y-30343817D01*
X26142147Y-30333873D01*
X26205703Y-30362898D01*
X26242432Y-30418294D01*
X26248906Y-30438221D01*
X26345375Y-30627550D01*
X26384728Y-30681716D01*
X27017037Y-30049408D01*
X27034075Y-30112993D01*
G37*
%TD.AperFunction*%
%TA.AperFunction,Conductor*%
G36*
X26205703Y-28476389D02*
G01*
X26223762Y-28495786D01*
X26292454Y-28587546D01*
X26299287Y-28592661D01*
X26407664Y-28673793D01*
X26407671Y-28673797D01*
X26452618Y-28690561D01*
X26542517Y-28724091D01*
X26602127Y-28730500D01*
X26612685Y-28730499D01*
X26679723Y-28750179D01*
X26700372Y-28766818D01*
X27370591Y-29437037D01*
X27307007Y-29454075D01*
X27192993Y-29519901D01*
X27099901Y-29612993D01*
X27034075Y-29727007D01*
X27017037Y-29790591D01*
X26384728Y-29158282D01*
X26384727Y-29158282D01*
X26345380Y-29212439D01*
X26248904Y-29401782D01*
X26242431Y-29421706D01*
X26202994Y-29479381D01*
X26138635Y-29506580D01*
X26069789Y-29494665D01*
X26018313Y-29447421D01*
X26000500Y-29383388D01*
X26000500Y-28570102D01*
X26020185Y-28503063D01*
X26072989Y-28457308D01*
X26142147Y-28447364D01*
X26205703Y-28476389D01*
G37*
%TD.AperFunction*%
%TD*%
M02*
