M48
; DRILL file {KiCad 9.0.1} date 2025-04-18T16:01:12+0200
; FORMAT={-:-/ absolute / metric / decimal}
; #@! TF.CreationDate,2025-04-18T16:01:12+02:00
; #@! TF.GenerationSoftware,Kicad,Pcbnew,9.0.1
; #@! TF.FileFunction,Plated,1,2,PTH
FMAT,2
METRIC
; #@! TA.AperFunction,Plated,PTH,ViaDrill
T1C0.300
; #@! TA.AperFunction,Plated,PTH,ComponentDrill
T2C0.800
; #@! TA.AperFunction,Plated,PTH,ComponentDrill
T3C1.000
; #@! TA.AperFunction,Plated,PTH,ComponentDrill
T4C1.100
; #@! TA.AperFunction,Plated,PTH,ComponentDrill
T5C1.200
%
G90
G05
T1
X35.7Y-34.8
X40.13Y-41.87
X42.55Y-30.07
X56.0Y-36.0
T2
X51.035Y-28.54
X53.535Y-28.54
T3
X27.5Y-27.38
X27.5Y-29.92
X27.5Y-32.46
X27.5Y-35.0
X27.5Y-37.54
X27.5Y-40.08
X27.5Y-42.62
X27.5Y-48.42
X27.5Y-50.96
X27.5Y-53.5
X27.5Y-56.04
X27.5Y-58.58
X27.5Y-61.12
X27.5Y-63.66
X31.5Y-25.92
X31.5Y-28.46
X31.5Y-31.0
X31.5Y-33.54
X31.5Y-36.08
X31.5Y-38.62
X31.5Y-41.16
X31.5Y-43.7
X31.5Y-46.24
X31.5Y-48.78
X31.5Y-51.32
X31.5Y-53.86
X31.5Y-56.4
X31.5Y-58.94
X31.5Y-61.48
X46.74Y-25.92
X46.74Y-28.46
X46.74Y-31.0
X46.74Y-33.54
X46.74Y-36.08
X46.74Y-38.62
X46.74Y-41.16
X46.74Y-43.7
X46.74Y-46.24
X46.74Y-48.78
X46.74Y-51.32
X46.74Y-53.86
X46.74Y-56.4
X46.74Y-58.94
X46.74Y-61.48
X50.965Y-23.54
X51.0Y-37.18
X51.0Y-39.72
X51.0Y-42.26
X51.0Y-44.8
X53.505Y-23.54
X59.5Y-23.735
X59.5Y-26.275
X59.5Y-33.475
X59.5Y-36.015
X59.5Y-38.555
T4
X51.96Y-52.445
X51.96Y-59.445
X51.96Y-66.445
X54.5Y-52.445
X54.5Y-59.445
X54.5Y-66.445
X57.04Y-52.445
X57.04Y-59.445
X57.04Y-66.445
T5
X65.9Y-34.25
X65.9Y-37.75
X65.9Y-43.75
X65.9Y-47.25
X65.9Y-53.25
X65.9Y-56.75
M30
