%TF.GenerationSoftware,KiCad,Pcbnew,9.0.1*%
%TF.CreationDate,2025-04-18T16:01:06+02:00*%
%TF.ProjectId,K-Pillar,4b2d5069-6c6c-4617-922e-6b696361645f,rev?*%
%TF.SameCoordinates,Original*%
%TF.FileFunction,Legend,Bot*%
%TF.FilePolarity,Positive*%
%FSLAX46Y46*%
G04 Gerber Fmt 4.6, Leading zero omitted, Abs format (unit mm)*
G04 Created by KiCad (PCBNEW 9.0.1) date 2025-04-18 16:01:06*
%MOMM*%
%LPD*%
G01*
G04 APERTURE LIST*
%ADD10C,0.150000*%
%ADD11C,0.120000*%
G04 APERTURE END LIST*
D10*
X42114819Y-36363333D02*
X41638628Y-36030000D01*
X42114819Y-35791905D02*
X41114819Y-35791905D01*
X41114819Y-35791905D02*
X41114819Y-36172857D01*
X41114819Y-36172857D02*
X41162438Y-36268095D01*
X41162438Y-36268095D02*
X41210057Y-36315714D01*
X41210057Y-36315714D02*
X41305295Y-36363333D01*
X41305295Y-36363333D02*
X41448152Y-36363333D01*
X41448152Y-36363333D02*
X41543390Y-36315714D01*
X41543390Y-36315714D02*
X41591009Y-36268095D01*
X41591009Y-36268095D02*
X41638628Y-36172857D01*
X41638628Y-36172857D02*
X41638628Y-35791905D01*
X42114819Y-37315714D02*
X42114819Y-36744286D01*
X42114819Y-37030000D02*
X41114819Y-37030000D01*
X41114819Y-37030000D02*
X41257676Y-36934762D01*
X41257676Y-36934762D02*
X41352914Y-36839524D01*
X41352914Y-36839524D02*
X41400533Y-36744286D01*
X41804819Y-57833333D02*
X41328628Y-57500000D01*
X41804819Y-57261905D02*
X40804819Y-57261905D01*
X40804819Y-57261905D02*
X40804819Y-57642857D01*
X40804819Y-57642857D02*
X40852438Y-57738095D01*
X40852438Y-57738095D02*
X40900057Y-57785714D01*
X40900057Y-57785714D02*
X40995295Y-57833333D01*
X40995295Y-57833333D02*
X41138152Y-57833333D01*
X41138152Y-57833333D02*
X41233390Y-57785714D01*
X41233390Y-57785714D02*
X41281009Y-57738095D01*
X41281009Y-57738095D02*
X41328628Y-57642857D01*
X41328628Y-57642857D02*
X41328628Y-57261905D01*
X40900057Y-58214286D02*
X40852438Y-58261905D01*
X40852438Y-58261905D02*
X40804819Y-58357143D01*
X40804819Y-58357143D02*
X40804819Y-58595238D01*
X40804819Y-58595238D02*
X40852438Y-58690476D01*
X40852438Y-58690476D02*
X40900057Y-58738095D01*
X40900057Y-58738095D02*
X40995295Y-58785714D01*
X40995295Y-58785714D02*
X41090533Y-58785714D01*
X41090533Y-58785714D02*
X41233390Y-58738095D01*
X41233390Y-58738095D02*
X41804819Y-58166667D01*
X41804819Y-58166667D02*
X41804819Y-58785714D01*
D11*
%TO.C,R1*%
X42465000Y-36727064D02*
X42465000Y-36272936D01*
X43935000Y-36727064D02*
X43935000Y-36272936D01*
%TO.C,R2*%
X42265000Y-57772936D02*
X42265000Y-58227064D01*
X43735000Y-57772936D02*
X43735000Y-58227064D01*
%TD*%
M02*
