M48
; DRILL file {KiCad 8.0.2} date 2025-02-28T20:58:45+0100
; FORMAT={-:-/ absolute / inch / decimal}
; #@! TF.CreationDate,2025-02-28T20:58:45+01:00
; #@! TF.GenerationSoftware,Kicad,Pcbnew,8.0.2
; #@! TF.FileFunction,Plated,1,2,PTH
FMAT,2
INCH
; #@! TA.AperFunction,Plated,PTH,ViaDrill
T1C0.0118
; #@! TA.AperFunction,Plated,PTH,ComponentDrill
T2C0.0315
; #@! TA.AperFunction,Plated,PTH,ComponentDrill
T3C0.0394
; #@! TA.AperFunction,Plated,PTH,ComponentDrill
T4C0.0433
; #@! TA.AperFunction,Plated,PTH,ComponentDrill
T5C0.0472
%
G90
G05
T1
X2.2047Y-1.4173
T2
X2.0092Y-1.1236
X2.1077Y-1.1236
T3
X1.1024Y-1.4142
X1.1024Y-1.5142
X1.1024Y-1.6142
X1.1024Y-1.7142
X1.1024Y-1.8142
X1.1024Y-1.9142
X1.1024Y-2.0142
X1.2402Y-1.0205
X1.2402Y-1.1205
X1.2402Y-1.2205
X1.2402Y-1.3205
X1.2402Y-1.4205
X1.2402Y-1.5205
X1.2402Y-1.6205
X1.2402Y-1.7205
X1.2402Y-1.8205
X1.2402Y-1.9205
X1.2402Y-2.0205
X1.2402Y-2.1205
X1.2402Y-2.2205
X1.2402Y-2.3205
X1.2402Y-2.4205
X1.8402Y-1.0205
X1.8402Y-1.1205
X1.8402Y-1.2205
X1.8402Y-1.3205
X1.8402Y-1.4205
X1.8402Y-1.5205
X1.8402Y-1.6205
X1.8402Y-1.7205
X1.8402Y-1.8205
X1.8402Y-1.9205
X1.8402Y-2.0205
X1.8402Y-2.1205
X1.8402Y-2.2205
X1.8402Y-2.3205
X1.8402Y-2.4205
X2.0065Y-0.9268
X2.0079Y-1.4638
X2.0079Y-1.5638
X2.0079Y-1.6638
X2.0079Y-1.7638
X2.1065Y-0.9268
X2.3425Y-0.9344
X2.3425Y-1.0344
X2.3425Y-1.3179
X2.3425Y-1.4179
X2.3425Y-1.5179
T4
X2.085Y-2.0648
X2.085Y-2.3404
X2.085Y-2.6159
X2.185Y-2.0648
X2.185Y-2.3404
X2.185Y-2.6159
X2.285Y-2.0648
X2.285Y-2.3404
X2.285Y-2.6159
T5
X2.5945Y-1.3484
X2.5945Y-1.4862
X2.5945Y-1.7224
X2.5945Y-1.8602
X2.5945Y-2.0965
X2.5945Y-2.2343
M30
