%TF.GenerationSoftware,KiCad,Pcbnew,8.0.2*%
%TF.CreationDate,2025-02-28T20:58:28+01:00*%
%TF.ProjectId,K-Pillar,4b2d5069-6c6c-4617-922e-6b696361645f,rev?*%
%TF.SameCoordinates,Original*%
%TF.FileFunction,Copper,L1,Top*%
%TF.FilePolarity,Positive*%
%FSLAX46Y46*%
G04 Gerber Fmt 4.6, Leading zero omitted, Abs format (unit mm)*
G04 Created by KiCad (PCBNEW 8.0.2) date 2025-02-28 20:58:28*
%MOMM*%
%LPD*%
G01*
G04 APERTURE LIST*
G04 Aperture macros list*
%AMRoundRect*
0 Rectangle with rounded corners*
0 $1 Rounding radius*
0 $2 $3 $4 $5 $6 $7 $8 $9 X,Y pos of 4 corners*
0 Add a 4 corners polygon primitive as box body*
4,1,4,$2,$3,$4,$5,$6,$7,$8,$9,$2,$3,0*
0 Add four circle primitives for the rounded corners*
1,1,$1+$1,$2,$3*
1,1,$1+$1,$4,$5*
1,1,$1+$1,$6,$7*
1,1,$1+$1,$8,$9*
0 Add four rect primitives between the rounded corners*
20,1,$1+$1,$2,$3,$4,$5,0*
20,1,$1+$1,$4,$5,$6,$7,0*
20,1,$1+$1,$6,$7,$8,$9,0*
20,1,$1+$1,$8,$9,$2,$3,0*%
G04 Aperture macros list end*
%TA.AperFunction,ComponentPad*%
%ADD10R,1.700000X1.700000*%
%TD*%
%TA.AperFunction,ComponentPad*%
%ADD11O,1.700000X1.700000*%
%TD*%
%TA.AperFunction,SMDPad,CuDef*%
%ADD12RoundRect,0.250000X0.337500X0.475000X-0.337500X0.475000X-0.337500X-0.475000X0.337500X-0.475000X0*%
%TD*%
%TA.AperFunction,ComponentPad*%
%ADD13R,2.400000X2.400000*%
%TD*%
%TA.AperFunction,ComponentPad*%
%ADD14C,2.400000*%
%TD*%
%TA.AperFunction,ComponentPad*%
%ADD15R,1.905000X2.000000*%
%TD*%
%TA.AperFunction,ComponentPad*%
%ADD16O,1.905000X2.000000*%
%TD*%
%TA.AperFunction,ComponentPad*%
%ADD17R,1.600000X1.600000*%
%TD*%
%TA.AperFunction,ComponentPad*%
%ADD18O,1.600000X1.600000*%
%TD*%
%TA.AperFunction,ComponentPad*%
%ADD19C,1.600000*%
%TD*%
%TA.AperFunction,ViaPad*%
%ADD20C,0.600000*%
%TD*%
%TA.AperFunction,Conductor*%
%ADD21C,0.200000*%
%TD*%
%TA.AperFunction,Conductor*%
%ADD22C,1.000000*%
%TD*%
G04 APERTURE END LIST*
D10*
%TO.P,J1,1,Pin_1*%
%TO.N,GND*%
X51000000Y-44800000D03*
D11*
%TO.P,J1,2,Pin_2*%
%TO.N,+5V*%
X51000000Y-42260000D03*
%TO.P,J1,3,Pin_3*%
%TO.N,Net-(A1-A4)*%
X51000000Y-39720000D03*
%TO.P,J1,4,Pin_4*%
%TO.N,Net-(A1-A5)*%
X51000000Y-37180000D03*
%TD*%
D10*
%TO.P,J2,1,Pin_1*%
%TO.N,Net-(A1-D2)*%
X28000000Y-35920000D03*
D11*
%TO.P,J2,2,Pin_2*%
%TO.N,Net-(A1-D3)*%
X28000000Y-38460000D03*
%TO.P,J2,3,Pin_3*%
%TO.N,Net-(A1-D4)*%
X28000000Y-41000000D03*
%TO.P,J2,4,Pin_4*%
%TO.N,Net-(A1-D5)*%
X28000000Y-43540000D03*
%TO.P,J2,5,Pin_5*%
%TO.N,Net-(A1-D6)*%
X28000000Y-46080000D03*
%TO.P,J2,6,Pin_6*%
%TO.N,Net-(A1-D7)*%
X28000000Y-48620000D03*
%TO.P,J2,7,Pin_7*%
%TO.N,Net-(A1-D8)*%
X28000000Y-51160000D03*
%TD*%
D12*
%TO.P,C1,1*%
%TO.N,GND*%
X53277500Y-33040000D03*
%TO.P,C1,2*%
%TO.N,+5V*%
X51202500Y-33040000D03*
%TD*%
D10*
%TO.P,12V1,1,Pin_1*%
%TO.N,+12V*%
X59500000Y-26275000D03*
D11*
%TO.P,12V1,2,Pin_2*%
%TO.N,GND*%
X59500000Y-23735000D03*
%TD*%
D13*
%TO.P,M1,1,+*%
%TO.N,+12V*%
X65900000Y-56750000D03*
D14*
%TO.P,M1,2,-*%
%TO.N,Net-(M1--)*%
X65900000Y-53250000D03*
%TD*%
D13*
%TO.P,M3,1,+*%
%TO.N,+12V*%
X65900000Y-37750000D03*
D14*
%TO.P,M3,2,-*%
%TO.N,Net-(M3--)*%
X65900000Y-34250000D03*
%TD*%
D15*
%TO.P,Q2,1,G*%
%TO.N,PUMP2*%
X52960000Y-59445000D03*
D16*
%TO.P,Q2,2,D*%
%TO.N,Net-(M2--)*%
X55500000Y-59445000D03*
%TO.P,Q2,3,S*%
%TO.N,GND*%
X58040000Y-59445000D03*
%TD*%
D17*
%TO.P,A1,1,D1/TX*%
%TO.N,unconnected-(A1-D1{slash}TX-Pad1)*%
X31500000Y-25920000D03*
D18*
%TO.P,A1,2,D0/RX*%
%TO.N,unconnected-(A1-D0{slash}RX-Pad2)*%
X31500000Y-28460000D03*
%TO.P,A1,3,~{RESET}*%
%TO.N,unconnected-(A1-~{RESET}-Pad3)*%
X31500000Y-31000000D03*
%TO.P,A1,4,GND*%
%TO.N,GND*%
X31500000Y-33540000D03*
%TO.P,A1,5,D2*%
%TO.N,Net-(A1-D2)*%
X31500000Y-36080000D03*
%TO.P,A1,6,D3*%
%TO.N,Net-(A1-D3)*%
X31500000Y-38620000D03*
%TO.P,A1,7,D4*%
%TO.N,Net-(A1-D4)*%
X31500000Y-41160000D03*
%TO.P,A1,8,D5*%
%TO.N,Net-(A1-D5)*%
X31500000Y-43700000D03*
%TO.P,A1,9,D6*%
%TO.N,Net-(A1-D6)*%
X31500000Y-46240000D03*
%TO.P,A1,10,D7*%
%TO.N,Net-(A1-D7)*%
X31500000Y-48780000D03*
%TO.P,A1,11,D8*%
%TO.N,Net-(A1-D8)*%
X31500000Y-51320000D03*
%TO.P,A1,12,D9*%
%TO.N,unconnected-(A1-D9-Pad12)*%
X31500000Y-53860000D03*
%TO.P,A1,13,D10*%
%TO.N,unconnected-(A1-D10-Pad13)*%
X31500000Y-56400000D03*
%TO.P,A1,14,D11*%
%TO.N,unconnected-(A1-D11-Pad14)*%
X31500000Y-58940000D03*
%TO.P,A1,15,D12*%
%TO.N,unconnected-(A1-D12-Pad15)*%
X31500000Y-61480000D03*
%TO.P,A1,16,D13*%
%TO.N,unconnected-(A1-D13-Pad16)*%
X46740000Y-61480000D03*
%TO.P,A1,17,3V3*%
%TO.N,unconnected-(A1-3V3-Pad17)*%
X46740000Y-58940000D03*
%TO.P,A1,18,AREF*%
%TO.N,unconnected-(A1-AREF-Pad18)*%
X46740000Y-56400000D03*
%TO.P,A1,19,A0*%
%TO.N,PUMP1*%
X46740000Y-53860000D03*
%TO.P,A1,20,A1*%
%TO.N,PUMP2*%
X46740000Y-51320000D03*
%TO.P,A1,21,A2*%
%TO.N,PUMP3*%
X46740000Y-48780000D03*
%TO.P,A1,22,A3*%
%TO.N,Net-(A1-A3)*%
X46740000Y-46240000D03*
%TO.P,A1,23,A4*%
%TO.N,Net-(A1-A4)*%
X46740000Y-43700000D03*
%TO.P,A1,24,A5*%
%TO.N,Net-(A1-A5)*%
X46740000Y-41160000D03*
%TO.P,A1,25,A6*%
%TO.N,unconnected-(A1-A6-Pad25)*%
X46740000Y-38620000D03*
%TO.P,A1,26,A7*%
%TO.N,unconnected-(A1-A7-Pad26)*%
X46740000Y-36080000D03*
%TO.P,A1,27,+5V*%
%TO.N,+5V*%
X46740000Y-33540000D03*
%TO.P,A1,28,~{RESET}*%
%TO.N,unconnected-(A1-~{RESET}-Pad28)*%
X46740000Y-31000000D03*
%TO.P,A1,29,GND*%
%TO.N,GND*%
X46740000Y-28460000D03*
%TO.P,A1,30,VIN*%
%TO.N,unconnected-(A1-VIN-Pad30)*%
X46740000Y-25920000D03*
%TD*%
D13*
%TO.P,M2,1,+*%
%TO.N,+12V*%
X65900000Y-47250000D03*
D14*
%TO.P,M2,2,-*%
%TO.N,Net-(M2--)*%
X65900000Y-43750000D03*
%TD*%
D10*
%TO.P,5V1,1,Pin_1*%
%TO.N,+5V*%
X50965000Y-23540000D03*
D11*
%TO.P,5V1,2,Pin_2*%
%TO.N,GND*%
X53505000Y-23540000D03*
%TD*%
D15*
%TO.P,Q3,1,G*%
%TO.N,PUMP3*%
X52960000Y-52445000D03*
D16*
%TO.P,Q3,2,D*%
%TO.N,Net-(M3--)*%
X55500000Y-52445000D03*
%TO.P,Q3,3,S*%
%TO.N,GND*%
X58040000Y-52445000D03*
%TD*%
D15*
%TO.P,Q1,1,G*%
%TO.N,PUMP1*%
X52960000Y-66445000D03*
D16*
%TO.P,Q1,2,D*%
%TO.N,Net-(M1--)*%
X55500000Y-66445000D03*
%TO.P,Q1,3,S*%
%TO.N,GND*%
X58040000Y-66445000D03*
%TD*%
D10*
%TO.P,J3,1,Pin_1*%
%TO.N,GND*%
X59500000Y-33475000D03*
D11*
%TO.P,J3,2,Pin_2*%
%TO.N,+5V*%
X59500000Y-36015000D03*
%TO.P,J3,3,Pin_3*%
%TO.N,Net-(A1-A3)*%
X59500000Y-38555000D03*
%TD*%
D17*
%TO.P,C2,1*%
%TO.N,+5V*%
X51034888Y-28540000D03*
D19*
%TO.P,C2,2*%
%TO.N,GND*%
X53534888Y-28540000D03*
%TD*%
D20*
%TO.N,+5V*%
X56000000Y-36000000D03*
%TD*%
D21*
%TO.N,Net-(A1-A4)*%
X46740000Y-43700000D02*
X50720000Y-39720000D01*
X50720000Y-39720000D02*
X51000000Y-39720000D01*
%TO.N,Net-(A1-A5)*%
X47020000Y-41160000D02*
X51000000Y-37180000D01*
X46740000Y-41160000D02*
X47020000Y-41160000D01*
%TO.N,GND*%
X59500000Y-33475000D02*
X58712500Y-34262500D01*
X51000000Y-44800000D02*
X52700000Y-44800000D01*
D22*
X58040000Y-46540000D02*
X55500000Y-44000000D01*
D21*
X52700000Y-44800000D02*
X54500000Y-43000000D01*
D22*
X55722500Y-33040000D02*
X53277500Y-33040000D01*
D21*
X59500000Y-23735000D02*
X53700000Y-23735000D01*
D22*
X56500000Y-32262500D02*
X54500000Y-34262500D01*
X57500000Y-23735000D02*
X56500000Y-24735000D01*
X54500000Y-35500000D02*
X54500000Y-34262500D01*
D21*
X53700000Y-23735000D02*
X53505000Y-23540000D01*
D22*
X54500000Y-43000000D02*
X54500000Y-35500000D01*
X54500000Y-34262500D02*
X53277500Y-33040000D01*
D21*
X53534888Y-28540000D02*
X53534888Y-23569888D01*
D22*
X56500000Y-24735000D02*
X56500000Y-32262500D01*
X59500000Y-23735000D02*
X57500000Y-23735000D01*
X58040000Y-59445000D02*
X58040000Y-52445000D01*
D21*
X53277500Y-33040000D02*
X53534888Y-32782612D01*
D22*
X58040000Y-52445000D02*
X58040000Y-46540000D01*
D21*
X53534888Y-23569888D02*
X53505000Y-23540000D01*
D22*
X55500000Y-44000000D02*
X54500000Y-43000000D01*
X56500000Y-32262500D02*
X55722500Y-33040000D01*
D21*
X53534888Y-32782612D02*
X53534888Y-28540000D01*
X58712500Y-34262500D02*
X54500000Y-34262500D01*
D22*
X58040000Y-66445000D02*
X58040000Y-59445000D01*
D21*
%TO.N,+5V*%
X51202500Y-33702500D02*
X51202500Y-33040000D01*
X53500000Y-40500000D02*
X53500000Y-36000000D01*
X51034888Y-28540000D02*
X51034888Y-32872388D01*
X59500000Y-36015000D02*
X59485000Y-36000000D01*
X51000000Y-42260000D02*
X51740000Y-42260000D01*
X51034888Y-32872388D02*
X51202500Y-33040000D01*
X53500000Y-36000000D02*
X51202500Y-33702500D01*
X59485000Y-36000000D02*
X56000000Y-36000000D01*
X51740000Y-42260000D02*
X53500000Y-40500000D01*
X50702500Y-33540000D02*
X51202500Y-33040000D01*
X46740000Y-33540000D02*
X50702500Y-33540000D01*
X50965000Y-28470112D02*
X51034888Y-28540000D01*
X50965000Y-23540000D02*
X50965000Y-28470112D01*
%TO.N,PUMP1*%
X49000000Y-55500000D02*
X47360000Y-53860000D01*
X47360000Y-53860000D02*
X46740000Y-53860000D01*
X52945000Y-66445000D02*
X49000000Y-62500000D01*
X52960000Y-66445000D02*
X52945000Y-66445000D01*
X49000000Y-62500000D02*
X49000000Y-55500000D01*
%TO.N,PUMP3*%
X52445000Y-52445000D02*
X48780000Y-48780000D01*
X48780000Y-48780000D02*
X46740000Y-48780000D01*
X52960000Y-52445000D02*
X52445000Y-52445000D01*
%TO.N,PUMP2*%
X50000000Y-53000000D02*
X48320000Y-51320000D01*
X50000000Y-57000000D02*
X50000000Y-53000000D01*
X52445000Y-59445000D02*
X50000000Y-57000000D01*
X52960000Y-59445000D02*
X52445000Y-59445000D01*
X48320000Y-51320000D02*
X46740000Y-51320000D01*
%TD*%
%TA.AperFunction,Conductor*%
%TO.N,GND*%
G36*
X67068783Y-20520185D02*
G01*
X67114538Y-20572989D01*
X67124482Y-20642147D01*
X67095457Y-20705703D01*
X67061171Y-20733332D01*
X66915690Y-20812770D01*
X66915682Y-20812775D01*
X66686612Y-20984254D01*
X66686594Y-20984270D01*
X66484270Y-21186594D01*
X66484254Y-21186612D01*
X66312775Y-21415682D01*
X66312770Y-21415690D01*
X66175635Y-21666833D01*
X66075628Y-21934962D01*
X66014804Y-22214566D01*
X65994390Y-22499998D01*
X65994390Y-22500001D01*
X66014804Y-22785433D01*
X66075628Y-23065037D01*
X66075630Y-23065043D01*
X66075631Y-23065046D01*
X66159535Y-23290000D01*
X66175635Y-23333166D01*
X66312770Y-23584309D01*
X66312775Y-23584317D01*
X66484254Y-23813387D01*
X66484270Y-23813405D01*
X66686594Y-24015729D01*
X66686612Y-24015745D01*
X66915682Y-24187224D01*
X66915690Y-24187229D01*
X67166833Y-24324364D01*
X67166832Y-24324364D01*
X67166836Y-24324365D01*
X67166839Y-24324367D01*
X67434954Y-24424369D01*
X67434960Y-24424370D01*
X67434962Y-24424371D01*
X67714566Y-24485195D01*
X67714568Y-24485195D01*
X67714572Y-24485196D01*
X67968220Y-24503337D01*
X67999999Y-24505610D01*
X68000000Y-24505610D01*
X68000001Y-24505610D01*
X68028595Y-24503564D01*
X68285428Y-24485196D01*
X68565046Y-24424369D01*
X68833161Y-24324367D01*
X69084315Y-24187226D01*
X69313395Y-24015739D01*
X69515739Y-23813395D01*
X69687226Y-23584315D01*
X69741457Y-23484999D01*
X69766668Y-23438829D01*
X69816073Y-23389424D01*
X69884346Y-23374572D01*
X69949811Y-23398989D01*
X69991682Y-23454923D01*
X69999500Y-23498256D01*
X69999500Y-66501743D01*
X69979815Y-66568782D01*
X69927011Y-66614537D01*
X69857853Y-66624481D01*
X69794297Y-66595456D01*
X69766668Y-66561170D01*
X69687229Y-66415690D01*
X69687224Y-66415682D01*
X69515745Y-66186612D01*
X69515729Y-66186594D01*
X69313405Y-65984270D01*
X69313387Y-65984254D01*
X69084317Y-65812775D01*
X69084309Y-65812770D01*
X68833166Y-65675635D01*
X68833167Y-65675635D01*
X68725915Y-65635632D01*
X68565046Y-65575631D01*
X68565043Y-65575630D01*
X68565037Y-65575628D01*
X68285433Y-65514804D01*
X68000001Y-65494390D01*
X67999999Y-65494390D01*
X67714566Y-65514804D01*
X67434962Y-65575628D01*
X67166833Y-65675635D01*
X66915690Y-65812770D01*
X66915682Y-65812775D01*
X66686612Y-65984254D01*
X66686594Y-65984270D01*
X66484270Y-66186594D01*
X66484254Y-66186612D01*
X66312775Y-66415682D01*
X66312770Y-66415690D01*
X66175635Y-66666833D01*
X66075628Y-66934962D01*
X66014804Y-67214566D01*
X65994390Y-67499998D01*
X65994390Y-67500001D01*
X66014804Y-67785433D01*
X66075628Y-68065037D01*
X66175635Y-68333166D01*
X66312770Y-68584309D01*
X66312775Y-68584317D01*
X66484254Y-68813387D01*
X66484270Y-68813405D01*
X66686594Y-69015729D01*
X66686612Y-69015745D01*
X66915682Y-69187224D01*
X66915690Y-69187229D01*
X67061171Y-69266668D01*
X67110576Y-69316073D01*
X67125428Y-69384346D01*
X67101011Y-69449811D01*
X67045077Y-69491682D01*
X67001744Y-69499500D01*
X28998256Y-69499500D01*
X28931217Y-69479815D01*
X28885462Y-69427011D01*
X28875518Y-69357853D01*
X28904543Y-69294297D01*
X28938829Y-69266668D01*
X29016982Y-69223992D01*
X29084315Y-69187226D01*
X29313395Y-69015739D01*
X29515739Y-68813395D01*
X29687226Y-68584315D01*
X29824367Y-68333161D01*
X29924369Y-68065046D01*
X29964081Y-67882492D01*
X29985195Y-67785433D01*
X29985195Y-67785432D01*
X29985196Y-67785428D01*
X30005610Y-67500000D01*
X30005100Y-67492876D01*
X29995178Y-67354137D01*
X29985196Y-67214572D01*
X29929277Y-66957518D01*
X29924371Y-66934962D01*
X29924370Y-66934960D01*
X29924369Y-66934954D01*
X29824367Y-66666839D01*
X29801754Y-66625427D01*
X29687229Y-66415690D01*
X29687224Y-66415682D01*
X29515745Y-66186612D01*
X29515729Y-66186594D01*
X29313405Y-65984270D01*
X29313387Y-65984254D01*
X29084317Y-65812775D01*
X29084309Y-65812770D01*
X28833166Y-65675635D01*
X28833167Y-65675635D01*
X28725915Y-65635632D01*
X28565046Y-65575631D01*
X28565043Y-65575630D01*
X28565037Y-65575628D01*
X28285433Y-65514804D01*
X28000001Y-65494390D01*
X27999999Y-65494390D01*
X27714566Y-65514804D01*
X27434962Y-65575628D01*
X27166833Y-65675635D01*
X26915690Y-65812770D01*
X26915682Y-65812775D01*
X26686612Y-65984254D01*
X26686594Y-65984270D01*
X26484270Y-66186594D01*
X26484254Y-66186612D01*
X26312775Y-66415682D01*
X26312770Y-66415690D01*
X26233332Y-66561170D01*
X26183926Y-66610575D01*
X26115653Y-66625427D01*
X26050189Y-66601010D01*
X26008318Y-66545076D01*
X26000500Y-66501743D01*
X26000500Y-38459999D01*
X26644341Y-38459999D01*
X26644341Y-38460000D01*
X26664936Y-38695403D01*
X26664938Y-38695413D01*
X26726094Y-38923655D01*
X26726096Y-38923659D01*
X26726097Y-38923663D01*
X26792698Y-39066488D01*
X26825965Y-39137830D01*
X26825967Y-39137834D01*
X26961501Y-39331395D01*
X26961506Y-39331402D01*
X27128597Y-39498493D01*
X27128603Y-39498498D01*
X27314158Y-39628425D01*
X27357783Y-39683002D01*
X27364977Y-39752500D01*
X27333454Y-39814855D01*
X27314158Y-39831575D01*
X27128597Y-39961505D01*
X26961505Y-40128597D01*
X26825965Y-40322169D01*
X26825964Y-40322171D01*
X26726098Y-40536335D01*
X26726094Y-40536344D01*
X26664938Y-40764586D01*
X26664936Y-40764596D01*
X26644341Y-40999999D01*
X26644341Y-41000000D01*
X26664936Y-41235403D01*
X26664938Y-41235413D01*
X26726094Y-41463655D01*
X26726096Y-41463659D01*
X26726097Y-41463663D01*
X26792698Y-41606488D01*
X26825965Y-41677830D01*
X26825967Y-41677834D01*
X26961501Y-41871395D01*
X26961506Y-41871402D01*
X27128597Y-42038493D01*
X27128603Y-42038498D01*
X27314158Y-42168425D01*
X27357783Y-42223002D01*
X27364977Y-42292500D01*
X27333454Y-42354855D01*
X27314158Y-42371575D01*
X27128597Y-42501505D01*
X26961505Y-42668597D01*
X26825965Y-42862169D01*
X26825964Y-42862171D01*
X26726098Y-43076335D01*
X26726094Y-43076344D01*
X26664938Y-43304586D01*
X26664936Y-43304596D01*
X26644341Y-43539999D01*
X26644341Y-43540000D01*
X26664936Y-43775403D01*
X26664938Y-43775413D01*
X26726094Y-44003655D01*
X26726096Y-44003659D01*
X26726097Y-44003663D01*
X26792698Y-44146488D01*
X26825965Y-44217830D01*
X26825967Y-44217834D01*
X26961501Y-44411395D01*
X26961506Y-44411402D01*
X27128597Y-44578493D01*
X27128603Y-44578498D01*
X27314158Y-44708425D01*
X27357783Y-44763002D01*
X27364977Y-44832500D01*
X27333454Y-44894855D01*
X27314158Y-44911575D01*
X27128597Y-45041505D01*
X26961505Y-45208597D01*
X26825965Y-45402169D01*
X26825964Y-45402171D01*
X26726098Y-45616335D01*
X26726094Y-45616344D01*
X26664938Y-45844586D01*
X26664936Y-45844596D01*
X26644341Y-46079999D01*
X26644341Y-46080000D01*
X26664936Y-46315403D01*
X26664938Y-46315413D01*
X26726094Y-46543655D01*
X26726096Y-46543659D01*
X26726097Y-46543663D01*
X26792698Y-46686488D01*
X26825965Y-46757830D01*
X26825967Y-46757834D01*
X26961501Y-46951395D01*
X26961506Y-46951402D01*
X27128597Y-47118493D01*
X27128603Y-47118498D01*
X27314158Y-47248425D01*
X27357783Y-47303002D01*
X27364977Y-47372500D01*
X27333454Y-47434855D01*
X27314158Y-47451575D01*
X27128597Y-47581505D01*
X26961505Y-47748597D01*
X26825965Y-47942169D01*
X26825964Y-47942171D01*
X26726098Y-48156335D01*
X26726094Y-48156344D01*
X26664938Y-48384586D01*
X26664936Y-48384596D01*
X26644341Y-48619999D01*
X26644341Y-48620000D01*
X26664936Y-48855403D01*
X26664938Y-48855413D01*
X26726094Y-49083655D01*
X26726096Y-49083659D01*
X26726097Y-49083663D01*
X26792698Y-49226488D01*
X26825965Y-49297830D01*
X26825967Y-49297834D01*
X26961501Y-49491395D01*
X26961506Y-49491402D01*
X27128597Y-49658493D01*
X27128603Y-49658498D01*
X27314158Y-49788425D01*
X27357783Y-49843002D01*
X27364977Y-49912500D01*
X27333454Y-49974855D01*
X27314158Y-49991575D01*
X27128597Y-50121505D01*
X26961505Y-50288597D01*
X26825965Y-50482169D01*
X26825964Y-50482171D01*
X26726098Y-50696335D01*
X26726094Y-50696344D01*
X26664938Y-50924586D01*
X26664936Y-50924596D01*
X26644341Y-51159999D01*
X26644341Y-51160000D01*
X26664936Y-51395403D01*
X26664938Y-51395413D01*
X26726094Y-51623655D01*
X26726096Y-51623659D01*
X26726097Y-51623663D01*
X26792698Y-51766488D01*
X26825965Y-51837830D01*
X26825967Y-51837834D01*
X26892241Y-51932482D01*
X26961505Y-52031401D01*
X27128599Y-52198495D01*
X27225384Y-52266265D01*
X27322165Y-52334032D01*
X27322167Y-52334033D01*
X27322170Y-52334035D01*
X27536337Y-52433903D01*
X27764592Y-52495063D01*
X27936565Y-52510109D01*
X27999999Y-52515659D01*
X28000000Y-52515659D01*
X28000001Y-52515659D01*
X28039234Y-52512226D01*
X28235408Y-52495063D01*
X28463663Y-52433903D01*
X28677830Y-52334035D01*
X28871401Y-52198495D01*
X29038495Y-52031401D01*
X29174035Y-51837830D01*
X29273903Y-51623663D01*
X29335063Y-51395408D01*
X29355659Y-51160000D01*
X29335063Y-50924592D01*
X29288626Y-50751285D01*
X29273905Y-50696344D01*
X29273904Y-50696343D01*
X29273903Y-50696337D01*
X29174035Y-50482171D01*
X29060450Y-50319953D01*
X29038494Y-50288597D01*
X28871402Y-50121506D01*
X28871396Y-50121501D01*
X28685842Y-49991575D01*
X28642217Y-49936998D01*
X28635023Y-49867500D01*
X28666546Y-49805145D01*
X28685842Y-49788425D01*
X28708026Y-49772891D01*
X28871401Y-49658495D01*
X29038495Y-49491401D01*
X29174035Y-49297830D01*
X29273903Y-49083663D01*
X29335063Y-48855408D01*
X29355659Y-48620000D01*
X29335063Y-48384592D01*
X29288626Y-48211285D01*
X29273905Y-48156344D01*
X29273904Y-48156343D01*
X29273903Y-48156337D01*
X29174035Y-47942171D01*
X29060450Y-47779953D01*
X29038494Y-47748597D01*
X28871402Y-47581506D01*
X28871396Y-47581501D01*
X28685842Y-47451575D01*
X28642217Y-47396998D01*
X28635023Y-47327500D01*
X28666546Y-47265145D01*
X28685842Y-47248425D01*
X28708026Y-47232891D01*
X28871401Y-47118495D01*
X29038495Y-46951401D01*
X29174035Y-46757830D01*
X29273903Y-46543663D01*
X29335063Y-46315408D01*
X29355659Y-46080000D01*
X29335063Y-45844592D01*
X29273903Y-45616337D01*
X29174035Y-45402171D01*
X29144929Y-45360602D01*
X29038494Y-45208597D01*
X28871402Y-45041506D01*
X28871396Y-45041501D01*
X28685842Y-44911575D01*
X28642217Y-44856998D01*
X28635023Y-44787500D01*
X28666546Y-44725145D01*
X28685842Y-44708425D01*
X28708026Y-44692891D01*
X28871401Y-44578495D01*
X29038495Y-44411401D01*
X29174035Y-44217830D01*
X29273903Y-44003663D01*
X29335063Y-43775408D01*
X29355659Y-43540000D01*
X29335063Y-43304592D01*
X29273903Y-43076337D01*
X29174035Y-42862171D01*
X29077046Y-42723655D01*
X29038494Y-42668597D01*
X28871402Y-42501506D01*
X28871396Y-42501501D01*
X28685842Y-42371575D01*
X28642217Y-42316998D01*
X28635023Y-42247500D01*
X28666546Y-42185145D01*
X28685842Y-42168425D01*
X28801430Y-42087489D01*
X28871401Y-42038495D01*
X29038495Y-41871401D01*
X29174035Y-41677830D01*
X29273903Y-41463663D01*
X29335063Y-41235408D01*
X29355659Y-41000000D01*
X29335063Y-40764592D01*
X29273903Y-40536337D01*
X29174035Y-40322171D01*
X29149817Y-40287583D01*
X29038494Y-40128597D01*
X28871402Y-39961506D01*
X28871396Y-39961501D01*
X28685842Y-39831575D01*
X28642217Y-39776998D01*
X28635023Y-39707500D01*
X28666546Y-39645145D01*
X28685842Y-39628425D01*
X28708026Y-39612891D01*
X28871401Y-39498495D01*
X29038495Y-39331401D01*
X29174035Y-39137830D01*
X29273903Y-38923663D01*
X29335063Y-38695408D01*
X29355659Y-38460000D01*
X29335063Y-38224592D01*
X29273903Y-37996337D01*
X29174035Y-37782171D01*
X29105014Y-37683599D01*
X29038496Y-37588600D01*
X28993652Y-37543756D01*
X28916567Y-37466671D01*
X28883084Y-37405351D01*
X28888068Y-37335659D01*
X28929939Y-37279725D01*
X28960915Y-37262810D01*
X29092331Y-37213796D01*
X29207546Y-37127546D01*
X29293796Y-37012331D01*
X29344091Y-36877483D01*
X29350500Y-36817873D01*
X29350499Y-35022128D01*
X29344091Y-34962517D01*
X29343138Y-34959963D01*
X29293797Y-34827671D01*
X29293793Y-34827664D01*
X29207547Y-34712455D01*
X29207544Y-34712452D01*
X29092335Y-34626206D01*
X29092328Y-34626202D01*
X28957482Y-34575908D01*
X28957483Y-34575908D01*
X28897883Y-34569501D01*
X28897881Y-34569500D01*
X28897873Y-34569500D01*
X28897864Y-34569500D01*
X27102129Y-34569500D01*
X27102123Y-34569501D01*
X27042516Y-34575908D01*
X26907671Y-34626202D01*
X26907664Y-34626206D01*
X26792455Y-34712452D01*
X26792452Y-34712455D01*
X26706206Y-34827664D01*
X26706202Y-34827671D01*
X26655908Y-34962517D01*
X26649590Y-35021286D01*
X26649501Y-35022123D01*
X26649500Y-35022135D01*
X26649500Y-36817870D01*
X26649501Y-36817876D01*
X26655908Y-36877483D01*
X26706202Y-37012328D01*
X26706206Y-37012335D01*
X26792452Y-37127544D01*
X26792455Y-37127547D01*
X26907664Y-37213793D01*
X26907671Y-37213797D01*
X27039081Y-37262810D01*
X27095015Y-37304681D01*
X27119432Y-37370145D01*
X27104580Y-37438418D01*
X27083430Y-37466673D01*
X26961503Y-37588600D01*
X26825965Y-37782169D01*
X26825964Y-37782171D01*
X26726098Y-37996335D01*
X26726094Y-37996344D01*
X26664938Y-38224586D01*
X26664936Y-38224596D01*
X26644341Y-38459999D01*
X26000500Y-38459999D01*
X26000500Y-28459998D01*
X30194532Y-28459998D01*
X30194532Y-28460001D01*
X30214364Y-28686686D01*
X30214366Y-28686697D01*
X30273258Y-28906488D01*
X30273261Y-28906497D01*
X30369431Y-29112732D01*
X30369432Y-29112734D01*
X30499954Y-29299141D01*
X30660858Y-29460045D01*
X30660861Y-29460047D01*
X30847266Y-29590568D01*
X30904681Y-29617341D01*
X30905275Y-29617618D01*
X30957714Y-29663791D01*
X30976866Y-29730984D01*
X30956650Y-29797865D01*
X30905275Y-29842382D01*
X30847267Y-29869431D01*
X30847265Y-29869432D01*
X30660858Y-29999954D01*
X30499954Y-30160858D01*
X30369432Y-30347265D01*
X30369431Y-30347267D01*
X30273261Y-30553502D01*
X30273258Y-30553511D01*
X30214366Y-30773302D01*
X30214364Y-30773313D01*
X30194532Y-30999998D01*
X30194532Y-31000001D01*
X30214364Y-31226686D01*
X30214366Y-31226697D01*
X30273258Y-31446488D01*
X30273261Y-31446497D01*
X30369431Y-31652732D01*
X30369432Y-31652734D01*
X30499954Y-31839141D01*
X30660858Y-32000045D01*
X30660861Y-32000047D01*
X30847266Y-32130568D01*
X30905865Y-32157893D01*
X30958305Y-32204065D01*
X30977457Y-32271258D01*
X30957242Y-32338139D01*
X30905867Y-32382657D01*
X30847515Y-32409867D01*
X30661179Y-32540342D01*
X30500342Y-32701179D01*
X30369865Y-32887517D01*
X30273734Y-33093673D01*
X30273730Y-33093682D01*
X30221127Y-33289999D01*
X30221128Y-33290000D01*
X31066988Y-33290000D01*
X31034075Y-33347007D01*
X31000000Y-33474174D01*
X31000000Y-33605826D01*
X31034075Y-33732993D01*
X31066988Y-33790000D01*
X30221128Y-33790000D01*
X30273730Y-33986317D01*
X30273734Y-33986326D01*
X30369865Y-34192482D01*
X30500342Y-34378820D01*
X30661179Y-34539657D01*
X30847518Y-34670134D01*
X30847520Y-34670135D01*
X30905865Y-34697342D01*
X30958305Y-34743514D01*
X30977457Y-34810707D01*
X30957242Y-34877589D01*
X30905867Y-34922105D01*
X30847268Y-34949431D01*
X30847264Y-34949433D01*
X30660858Y-35079954D01*
X30499954Y-35240858D01*
X30369432Y-35427265D01*
X30369431Y-35427267D01*
X30273261Y-35633502D01*
X30273258Y-35633511D01*
X30214366Y-35853302D01*
X30214364Y-35853313D01*
X30194532Y-36079998D01*
X30194532Y-36080001D01*
X30214364Y-36306686D01*
X30214366Y-36306697D01*
X30273258Y-36526488D01*
X30273261Y-36526497D01*
X30369431Y-36732732D01*
X30369432Y-36732734D01*
X30499954Y-36919141D01*
X30660858Y-37080045D01*
X30660861Y-37080047D01*
X30847266Y-37210568D01*
X30905275Y-37237618D01*
X30957714Y-37283791D01*
X30976866Y-37350984D01*
X30956650Y-37417865D01*
X30905275Y-37462381D01*
X30888272Y-37470310D01*
X30847267Y-37489431D01*
X30847265Y-37489432D01*
X30660858Y-37619954D01*
X30499954Y-37780858D01*
X30369432Y-37967265D01*
X30369431Y-37967267D01*
X30273261Y-38173502D01*
X30273258Y-38173511D01*
X30214366Y-38393302D01*
X30214364Y-38393313D01*
X30194532Y-38619998D01*
X30194532Y-38620001D01*
X30214364Y-38846686D01*
X30214366Y-38846697D01*
X30273258Y-39066488D01*
X30273261Y-39066497D01*
X30369431Y-39272732D01*
X30369432Y-39272734D01*
X30499954Y-39459141D01*
X30660858Y-39620045D01*
X30660861Y-39620047D01*
X30847266Y-39750568D01*
X30903945Y-39776998D01*
X30905275Y-39777618D01*
X30957714Y-39823791D01*
X30976866Y-39890984D01*
X30956650Y-39957865D01*
X30905275Y-40002382D01*
X30847267Y-40029431D01*
X30847265Y-40029432D01*
X30660858Y-40159954D01*
X30499954Y-40320858D01*
X30369432Y-40507265D01*
X30369431Y-40507267D01*
X30273261Y-40713502D01*
X30273258Y-40713511D01*
X30214366Y-40933302D01*
X30214364Y-40933313D01*
X30194532Y-41159998D01*
X30194532Y-41160001D01*
X30214364Y-41386686D01*
X30214366Y-41386697D01*
X30273258Y-41606488D01*
X30273261Y-41606497D01*
X30369431Y-41812732D01*
X30369432Y-41812734D01*
X30499954Y-41999141D01*
X30660858Y-42160045D01*
X30660861Y-42160047D01*
X30847266Y-42290568D01*
X30903945Y-42316998D01*
X30905275Y-42317618D01*
X30957714Y-42363791D01*
X30976866Y-42430984D01*
X30956650Y-42497865D01*
X30905275Y-42542382D01*
X30847267Y-42569431D01*
X30847265Y-42569432D01*
X30660858Y-42699954D01*
X30499954Y-42860858D01*
X30369432Y-43047265D01*
X30369431Y-43047267D01*
X30273261Y-43253502D01*
X30273258Y-43253511D01*
X30214366Y-43473302D01*
X30214364Y-43473313D01*
X30194532Y-43699998D01*
X30194532Y-43700001D01*
X30214364Y-43926686D01*
X30214366Y-43926697D01*
X30273258Y-44146488D01*
X30273261Y-44146497D01*
X30369431Y-44352732D01*
X30369432Y-44352734D01*
X30499954Y-44539141D01*
X30660858Y-44700045D01*
X30680838Y-44714035D01*
X30847266Y-44830568D01*
X30903945Y-44856998D01*
X30905275Y-44857618D01*
X30957714Y-44903791D01*
X30976866Y-44970984D01*
X30956650Y-45037865D01*
X30905275Y-45082382D01*
X30847267Y-45109431D01*
X30847265Y-45109432D01*
X30660858Y-45239954D01*
X30499954Y-45400858D01*
X30369432Y-45587265D01*
X30369431Y-45587267D01*
X30273261Y-45793502D01*
X30273258Y-45793511D01*
X30214366Y-46013302D01*
X30214364Y-46013313D01*
X30194532Y-46239998D01*
X30194532Y-46240001D01*
X30214364Y-46466686D01*
X30214366Y-46466697D01*
X30273258Y-46686488D01*
X30273261Y-46686497D01*
X30369431Y-46892732D01*
X30369432Y-46892734D01*
X30499954Y-47079141D01*
X30660858Y-47240045D01*
X30660861Y-47240047D01*
X30847266Y-47370568D01*
X30903945Y-47396998D01*
X30905275Y-47397618D01*
X30957714Y-47443791D01*
X30976866Y-47510984D01*
X30956650Y-47577865D01*
X30905275Y-47622382D01*
X30847267Y-47649431D01*
X30847265Y-47649432D01*
X30660858Y-47779954D01*
X30499954Y-47940858D01*
X30369432Y-48127265D01*
X30369431Y-48127267D01*
X30273261Y-48333502D01*
X30273258Y-48333511D01*
X30214366Y-48553302D01*
X30214364Y-48553313D01*
X30194532Y-48779998D01*
X30194532Y-48780001D01*
X30214364Y-49006686D01*
X30214366Y-49006697D01*
X30273258Y-49226488D01*
X30273261Y-49226497D01*
X30369431Y-49432732D01*
X30369432Y-49432734D01*
X30499954Y-49619141D01*
X30660858Y-49780045D01*
X30660861Y-49780047D01*
X30847266Y-49910568D01*
X30903945Y-49936998D01*
X30905275Y-49937618D01*
X30957714Y-49983791D01*
X30976866Y-50050984D01*
X30956650Y-50117865D01*
X30905275Y-50162382D01*
X30847267Y-50189431D01*
X30847265Y-50189432D01*
X30660858Y-50319954D01*
X30499954Y-50480858D01*
X30369432Y-50667265D01*
X30369431Y-50667267D01*
X30273261Y-50873502D01*
X30273258Y-50873511D01*
X30214366Y-51093302D01*
X30214364Y-51093313D01*
X30194532Y-51319998D01*
X30194532Y-51320001D01*
X30214364Y-51546686D01*
X30214366Y-51546697D01*
X30273258Y-51766488D01*
X30273261Y-51766497D01*
X30369431Y-51972732D01*
X30369432Y-51972734D01*
X30499954Y-52159141D01*
X30660858Y-52320045D01*
X30660861Y-52320047D01*
X30847266Y-52450568D01*
X30905275Y-52477618D01*
X30957714Y-52523791D01*
X30976866Y-52590984D01*
X30956650Y-52657865D01*
X30905275Y-52702382D01*
X30847267Y-52729431D01*
X30847265Y-52729432D01*
X30660858Y-52859954D01*
X30499954Y-53020858D01*
X30369432Y-53207265D01*
X30369431Y-53207267D01*
X30273261Y-53413502D01*
X30273258Y-53413511D01*
X30214366Y-53633302D01*
X30214364Y-53633313D01*
X30194532Y-53859998D01*
X30194532Y-53860001D01*
X30214364Y-54086686D01*
X30214366Y-54086697D01*
X30273258Y-54306488D01*
X30273261Y-54306497D01*
X30369431Y-54512732D01*
X30369432Y-54512734D01*
X30499954Y-54699141D01*
X30660858Y-54860045D01*
X30666074Y-54863697D01*
X30847266Y-54990568D01*
X30905275Y-55017618D01*
X30957714Y-55063791D01*
X30976866Y-55130984D01*
X30956650Y-55197865D01*
X30905275Y-55242382D01*
X30847267Y-55269431D01*
X30847265Y-55269432D01*
X30660858Y-55399954D01*
X30499954Y-55560858D01*
X30369432Y-55747265D01*
X30369431Y-55747267D01*
X30273261Y-55953502D01*
X30273258Y-55953511D01*
X30214366Y-56173302D01*
X30214364Y-56173313D01*
X30194532Y-56399998D01*
X30194532Y-56400001D01*
X30214364Y-56626686D01*
X30214366Y-56626697D01*
X30273258Y-56846488D01*
X30273261Y-56846497D01*
X30369431Y-57052732D01*
X30369432Y-57052734D01*
X30499954Y-57239141D01*
X30660858Y-57400045D01*
X30660861Y-57400047D01*
X30847266Y-57530568D01*
X30905275Y-57557618D01*
X30957714Y-57603791D01*
X30976866Y-57670984D01*
X30956650Y-57737865D01*
X30905275Y-57782382D01*
X30847267Y-57809431D01*
X30847265Y-57809432D01*
X30660858Y-57939954D01*
X30499954Y-58100858D01*
X30369432Y-58287265D01*
X30369431Y-58287267D01*
X30273261Y-58493502D01*
X30273258Y-58493511D01*
X30214366Y-58713302D01*
X30214364Y-58713313D01*
X30194532Y-58939998D01*
X30194532Y-58940001D01*
X30214364Y-59166686D01*
X30214366Y-59166697D01*
X30273258Y-59386488D01*
X30273261Y-59386497D01*
X30369431Y-59592732D01*
X30369432Y-59592734D01*
X30499954Y-59779141D01*
X30660858Y-59940045D01*
X30660861Y-59940047D01*
X30847266Y-60070568D01*
X30905275Y-60097618D01*
X30957714Y-60143791D01*
X30976866Y-60210984D01*
X30956650Y-60277865D01*
X30905275Y-60322382D01*
X30847267Y-60349431D01*
X30847265Y-60349432D01*
X30660858Y-60479954D01*
X30499954Y-60640858D01*
X30369432Y-60827265D01*
X30369431Y-60827267D01*
X30273261Y-61033502D01*
X30273258Y-61033511D01*
X30214366Y-61253302D01*
X30214364Y-61253313D01*
X30194532Y-61479998D01*
X30194532Y-61480001D01*
X30214364Y-61706686D01*
X30214366Y-61706697D01*
X30273258Y-61926488D01*
X30273261Y-61926497D01*
X30369431Y-62132732D01*
X30369432Y-62132734D01*
X30499954Y-62319141D01*
X30660858Y-62480045D01*
X30660861Y-62480047D01*
X30847266Y-62610568D01*
X31053504Y-62706739D01*
X31273308Y-62765635D01*
X31435230Y-62779801D01*
X31499998Y-62785468D01*
X31500000Y-62785468D01*
X31500002Y-62785468D01*
X31556673Y-62780509D01*
X31726692Y-62765635D01*
X31946496Y-62706739D01*
X32152734Y-62610568D01*
X32339139Y-62480047D01*
X32500047Y-62319139D01*
X32630568Y-62132734D01*
X32726739Y-61926496D01*
X32785635Y-61706692D01*
X32805468Y-61480000D01*
X32785635Y-61253308D01*
X32726739Y-61033504D01*
X32630568Y-60827266D01*
X32532583Y-60687328D01*
X32500045Y-60640858D01*
X32339141Y-60479954D01*
X32152734Y-60349432D01*
X32152728Y-60349429D01*
X32094725Y-60322382D01*
X32042285Y-60276210D01*
X32023133Y-60209017D01*
X32043348Y-60142135D01*
X32094725Y-60097618D01*
X32152734Y-60070568D01*
X32339139Y-59940047D01*
X32500047Y-59779139D01*
X32630568Y-59592734D01*
X32726739Y-59386496D01*
X32785635Y-59166692D01*
X32805468Y-58940000D01*
X32785635Y-58713308D01*
X32726739Y-58493504D01*
X32630568Y-58287266D01*
X32500047Y-58100861D01*
X32500045Y-58100858D01*
X32339141Y-57939954D01*
X32152734Y-57809432D01*
X32152728Y-57809429D01*
X32094725Y-57782382D01*
X32042285Y-57736210D01*
X32023133Y-57669017D01*
X32043348Y-57602135D01*
X32094725Y-57557618D01*
X32152734Y-57530568D01*
X32339139Y-57400047D01*
X32500047Y-57239139D01*
X32630568Y-57052734D01*
X32726739Y-56846496D01*
X32785635Y-56626692D01*
X32805468Y-56400000D01*
X32785635Y-56173308D01*
X32726739Y-55953504D01*
X32630568Y-55747266D01*
X32500047Y-55560861D01*
X32500045Y-55560858D01*
X32339141Y-55399954D01*
X32152734Y-55269432D01*
X32152728Y-55269429D01*
X32094725Y-55242382D01*
X32042285Y-55196210D01*
X32023133Y-55129017D01*
X32043348Y-55062135D01*
X32094725Y-55017618D01*
X32152734Y-54990568D01*
X32339139Y-54860047D01*
X32500047Y-54699139D01*
X32630568Y-54512734D01*
X32726739Y-54306496D01*
X32785635Y-54086692D01*
X32805468Y-53860000D01*
X32785635Y-53633308D01*
X32733588Y-53439065D01*
X32726741Y-53413511D01*
X32726738Y-53413502D01*
X32630568Y-53207266D01*
X32500047Y-53020861D01*
X32500045Y-53020858D01*
X32339141Y-52859954D01*
X32152734Y-52729432D01*
X32152728Y-52729429D01*
X32094725Y-52702382D01*
X32042285Y-52656210D01*
X32023133Y-52589017D01*
X32043348Y-52522135D01*
X32094725Y-52477618D01*
X32152734Y-52450568D01*
X32339139Y-52320047D01*
X32500047Y-52159139D01*
X32630568Y-51972734D01*
X32726739Y-51766496D01*
X32785635Y-51546692D01*
X32805468Y-51320000D01*
X32785635Y-51093308D01*
X32726739Y-50873504D01*
X32630568Y-50667266D01*
X32500047Y-50480861D01*
X32500045Y-50480858D01*
X32339141Y-50319954D01*
X32152734Y-50189432D01*
X32152728Y-50189429D01*
X32094725Y-50162382D01*
X32042285Y-50116210D01*
X32023133Y-50049017D01*
X32043348Y-49982135D01*
X32094725Y-49937618D01*
X32096055Y-49936998D01*
X32152734Y-49910568D01*
X32339139Y-49780047D01*
X32500047Y-49619139D01*
X32630568Y-49432734D01*
X32726739Y-49226496D01*
X32785635Y-49006692D01*
X32805468Y-48780000D01*
X32785635Y-48553308D01*
X32726739Y-48333504D01*
X32630568Y-48127266D01*
X32500047Y-47940861D01*
X32500045Y-47940858D01*
X32339141Y-47779954D01*
X32152734Y-47649432D01*
X32152728Y-47649429D01*
X32094725Y-47622382D01*
X32042285Y-47576210D01*
X32023133Y-47509017D01*
X32043348Y-47442135D01*
X32094725Y-47397618D01*
X32096055Y-47396998D01*
X32152734Y-47370568D01*
X32339139Y-47240047D01*
X32500047Y-47079139D01*
X32630568Y-46892734D01*
X32726739Y-46686496D01*
X32785635Y-46466692D01*
X32805468Y-46240000D01*
X32785635Y-46013308D01*
X32730535Y-45807671D01*
X32726741Y-45793511D01*
X32726738Y-45793502D01*
X32630568Y-45587266D01*
X32500047Y-45400861D01*
X32500045Y-45400858D01*
X32339141Y-45239954D01*
X32152734Y-45109432D01*
X32152728Y-45109429D01*
X32094725Y-45082382D01*
X32042285Y-45036210D01*
X32023133Y-44969017D01*
X32043348Y-44902135D01*
X32094725Y-44857618D01*
X32096055Y-44856998D01*
X32152734Y-44830568D01*
X32339139Y-44700047D01*
X32500047Y-44539139D01*
X32630568Y-44352734D01*
X32726739Y-44146496D01*
X32785635Y-43926692D01*
X32805468Y-43700000D01*
X32785635Y-43473308D01*
X32726739Y-43253504D01*
X32630568Y-43047266D01*
X32500047Y-42860861D01*
X32500045Y-42860858D01*
X32339141Y-42699954D01*
X32152734Y-42569432D01*
X32152728Y-42569429D01*
X32094725Y-42542382D01*
X32042285Y-42496210D01*
X32023133Y-42429017D01*
X32043348Y-42362135D01*
X32094725Y-42317618D01*
X32096055Y-42316998D01*
X32152734Y-42290568D01*
X32339139Y-42160047D01*
X32500047Y-41999139D01*
X32630568Y-41812734D01*
X32726739Y-41606496D01*
X32785635Y-41386692D01*
X32805468Y-41160000D01*
X32785635Y-40933308D01*
X32726739Y-40713504D01*
X32630568Y-40507266D01*
X32500047Y-40320861D01*
X32500045Y-40320858D01*
X32339141Y-40159954D01*
X32152734Y-40029432D01*
X32152728Y-40029429D01*
X32094725Y-40002382D01*
X32042285Y-39956210D01*
X32023133Y-39889017D01*
X32043348Y-39822135D01*
X32094725Y-39777618D01*
X32096055Y-39776998D01*
X32152734Y-39750568D01*
X32339139Y-39620047D01*
X32500047Y-39459139D01*
X32630568Y-39272734D01*
X32726739Y-39066496D01*
X32785635Y-38846692D01*
X32805468Y-38620000D01*
X32785635Y-38393308D01*
X32726739Y-38173504D01*
X32630568Y-37967266D01*
X32500047Y-37780861D01*
X32500045Y-37780858D01*
X32339141Y-37619954D01*
X32152734Y-37489432D01*
X32152728Y-37489429D01*
X32125038Y-37476517D01*
X32094724Y-37462381D01*
X32042285Y-37416210D01*
X32023133Y-37349017D01*
X32043348Y-37282135D01*
X32094725Y-37237618D01*
X32152734Y-37210568D01*
X32339139Y-37080047D01*
X32500047Y-36919139D01*
X32630568Y-36732734D01*
X32726739Y-36526496D01*
X32785635Y-36306692D01*
X32804675Y-36089060D01*
X32805468Y-36080001D01*
X32805468Y-36079998D01*
X32791552Y-35920943D01*
X32785635Y-35853308D01*
X32726739Y-35633504D01*
X32630568Y-35427266D01*
X32500047Y-35240861D01*
X32500045Y-35240858D01*
X32339141Y-35079954D01*
X32152734Y-34949432D01*
X32152732Y-34949431D01*
X32141275Y-34944088D01*
X32094132Y-34922105D01*
X32041694Y-34875934D01*
X32022542Y-34808740D01*
X32042758Y-34741859D01*
X32094134Y-34697341D01*
X32152484Y-34670132D01*
X32338820Y-34539657D01*
X32499657Y-34378820D01*
X32630134Y-34192482D01*
X32726265Y-33986326D01*
X32726269Y-33986317D01*
X32778872Y-33790000D01*
X31933012Y-33790000D01*
X31965925Y-33732993D01*
X32000000Y-33605826D01*
X32000000Y-33474174D01*
X31965925Y-33347007D01*
X31933012Y-33290000D01*
X32778872Y-33290000D01*
X32778872Y-33289999D01*
X32726269Y-33093682D01*
X32726265Y-33093673D01*
X32630134Y-32887517D01*
X32499657Y-32701179D01*
X32338820Y-32540342D01*
X32152482Y-32409865D01*
X32094133Y-32382657D01*
X32041694Y-32336484D01*
X32022542Y-32269291D01*
X32042758Y-32202410D01*
X32094129Y-32157895D01*
X32152734Y-32130568D01*
X32339139Y-32000047D01*
X32500047Y-31839139D01*
X32630568Y-31652734D01*
X32726739Y-31446496D01*
X32785635Y-31226692D01*
X32805468Y-31000000D01*
X32785635Y-30773308D01*
X32726739Y-30553504D01*
X32630568Y-30347266D01*
X32500047Y-30160861D01*
X32500045Y-30160858D01*
X32339141Y-29999954D01*
X32152734Y-29869432D01*
X32152728Y-29869429D01*
X32125038Y-29856517D01*
X32094724Y-29842381D01*
X32042285Y-29796210D01*
X32023133Y-29729017D01*
X32043348Y-29662135D01*
X32094725Y-29617618D01*
X32095319Y-29617341D01*
X32152734Y-29590568D01*
X32339139Y-29460047D01*
X32500047Y-29299139D01*
X32630568Y-29112734D01*
X32726739Y-28906496D01*
X32785635Y-28686692D01*
X32805468Y-28460000D01*
X32785635Y-28233308D01*
X32726739Y-28013504D01*
X32630568Y-27807266D01*
X32500047Y-27620861D01*
X32500045Y-27620858D01*
X32339143Y-27459956D01*
X32314536Y-27442726D01*
X32270912Y-27388149D01*
X32263719Y-27318650D01*
X32295241Y-27256296D01*
X32355471Y-27220882D01*
X32372404Y-27217861D01*
X32407483Y-27214091D01*
X32542331Y-27163796D01*
X32657546Y-27077546D01*
X32743796Y-26962331D01*
X32794091Y-26827483D01*
X32800500Y-26767873D01*
X32800499Y-25919998D01*
X45434532Y-25919998D01*
X45434532Y-25920001D01*
X45454364Y-26146686D01*
X45454366Y-26146697D01*
X45513258Y-26366488D01*
X45513261Y-26366497D01*
X45609431Y-26572732D01*
X45609432Y-26572734D01*
X45739954Y-26759141D01*
X45900858Y-26920045D01*
X45900861Y-26920047D01*
X46087266Y-27050568D01*
X46145865Y-27077893D01*
X46198305Y-27124065D01*
X46217457Y-27191258D01*
X46197242Y-27258139D01*
X46145867Y-27302657D01*
X46087515Y-27329867D01*
X45901179Y-27460342D01*
X45740342Y-27621179D01*
X45609865Y-27807517D01*
X45513734Y-28013673D01*
X45513730Y-28013682D01*
X45461127Y-28209999D01*
X45461128Y-28210000D01*
X46306988Y-28210000D01*
X46274075Y-28267007D01*
X46240000Y-28394174D01*
X46240000Y-28525826D01*
X46274075Y-28652993D01*
X46306988Y-28710000D01*
X45461128Y-28710000D01*
X45513730Y-28906317D01*
X45513734Y-28906326D01*
X45609865Y-29112482D01*
X45740342Y-29298820D01*
X45901179Y-29459657D01*
X46087518Y-29590134D01*
X46087520Y-29590135D01*
X46145865Y-29617342D01*
X46198305Y-29663514D01*
X46217457Y-29730707D01*
X46197242Y-29797589D01*
X46145867Y-29842105D01*
X46087268Y-29869431D01*
X46087264Y-29869433D01*
X45900858Y-29999954D01*
X45739954Y-30160858D01*
X45609432Y-30347265D01*
X45609431Y-30347267D01*
X45513261Y-30553502D01*
X45513258Y-30553511D01*
X45454366Y-30773302D01*
X45454364Y-30773313D01*
X45434532Y-30999998D01*
X45434532Y-31000001D01*
X45454364Y-31226686D01*
X45454366Y-31226697D01*
X45513258Y-31446488D01*
X45513261Y-31446497D01*
X45609431Y-31652732D01*
X45609432Y-31652734D01*
X45739954Y-31839141D01*
X45900858Y-32000045D01*
X45900861Y-32000047D01*
X46087266Y-32130568D01*
X46145275Y-32157618D01*
X46197714Y-32203791D01*
X46216866Y-32270984D01*
X46196650Y-32337865D01*
X46145275Y-32382382D01*
X46087267Y-32409431D01*
X46087265Y-32409432D01*
X45900858Y-32539954D01*
X45739954Y-32700858D01*
X45609432Y-32887265D01*
X45609431Y-32887267D01*
X45513261Y-33093502D01*
X45513258Y-33093511D01*
X45454366Y-33313302D01*
X45454364Y-33313313D01*
X45434532Y-33539998D01*
X45434532Y-33540001D01*
X45454364Y-33766686D01*
X45454366Y-33766697D01*
X45513258Y-33986488D01*
X45513261Y-33986497D01*
X45609431Y-34192732D01*
X45609432Y-34192734D01*
X45739954Y-34379141D01*
X45900858Y-34540045D01*
X45900861Y-34540047D01*
X46087266Y-34670568D01*
X46144681Y-34697341D01*
X46145275Y-34697618D01*
X46197714Y-34743791D01*
X46216866Y-34810984D01*
X46196650Y-34877865D01*
X46145275Y-34922381D01*
X46128272Y-34930310D01*
X46087267Y-34949431D01*
X46087265Y-34949432D01*
X45900858Y-35079954D01*
X45739954Y-35240858D01*
X45609432Y-35427265D01*
X45609431Y-35427267D01*
X45513261Y-35633502D01*
X45513258Y-35633511D01*
X45454366Y-35853302D01*
X45454364Y-35853313D01*
X45434532Y-36079998D01*
X45434532Y-36080001D01*
X45454364Y-36306686D01*
X45454366Y-36306697D01*
X45513258Y-36526488D01*
X45513261Y-36526497D01*
X45609431Y-36732732D01*
X45609432Y-36732734D01*
X45739954Y-36919141D01*
X45900858Y-37080045D01*
X45900861Y-37080047D01*
X46087266Y-37210568D01*
X46145275Y-37237618D01*
X46197714Y-37283791D01*
X46216866Y-37350984D01*
X46196650Y-37417865D01*
X46145275Y-37462381D01*
X46128272Y-37470310D01*
X46087267Y-37489431D01*
X46087265Y-37489432D01*
X45900858Y-37619954D01*
X45739954Y-37780858D01*
X45609432Y-37967265D01*
X45609431Y-37967267D01*
X45513261Y-38173502D01*
X45513258Y-38173511D01*
X45454366Y-38393302D01*
X45454364Y-38393313D01*
X45434532Y-38619998D01*
X45434532Y-38620001D01*
X45454364Y-38846686D01*
X45454366Y-38846697D01*
X45513258Y-39066488D01*
X45513261Y-39066497D01*
X45609431Y-39272732D01*
X45609432Y-39272734D01*
X45739954Y-39459141D01*
X45900858Y-39620045D01*
X45900861Y-39620047D01*
X46087266Y-39750568D01*
X46143945Y-39776998D01*
X46145275Y-39777618D01*
X46197714Y-39823791D01*
X46216866Y-39890984D01*
X46196650Y-39957865D01*
X46145275Y-40002382D01*
X46087267Y-40029431D01*
X46087265Y-40029432D01*
X45900858Y-40159954D01*
X45739954Y-40320858D01*
X45609432Y-40507265D01*
X45609431Y-40507267D01*
X45513261Y-40713502D01*
X45513258Y-40713511D01*
X45454366Y-40933302D01*
X45454364Y-40933313D01*
X45434532Y-41159998D01*
X45434532Y-41160001D01*
X45454364Y-41386686D01*
X45454366Y-41386697D01*
X45513258Y-41606488D01*
X45513261Y-41606497D01*
X45609431Y-41812732D01*
X45609432Y-41812734D01*
X45739954Y-41999141D01*
X45900858Y-42160045D01*
X45900861Y-42160047D01*
X46087266Y-42290568D01*
X46143945Y-42316998D01*
X46145275Y-42317618D01*
X46197714Y-42363791D01*
X46216866Y-42430984D01*
X46196650Y-42497865D01*
X46145275Y-42542382D01*
X46087267Y-42569431D01*
X46087265Y-42569432D01*
X45900858Y-42699954D01*
X45739954Y-42860858D01*
X45609432Y-43047265D01*
X45609431Y-43047267D01*
X45513261Y-43253502D01*
X45513258Y-43253511D01*
X45454366Y-43473302D01*
X45454364Y-43473313D01*
X45434532Y-43699998D01*
X45434532Y-43700001D01*
X45454364Y-43926686D01*
X45454366Y-43926697D01*
X45513258Y-44146488D01*
X45513261Y-44146497D01*
X45609431Y-44352732D01*
X45609432Y-44352734D01*
X45739954Y-44539141D01*
X45900858Y-44700045D01*
X45920838Y-44714035D01*
X46087266Y-44830568D01*
X46143945Y-44856998D01*
X46145275Y-44857618D01*
X46197714Y-44903791D01*
X46216866Y-44970984D01*
X46196650Y-45037865D01*
X46145275Y-45082382D01*
X46087267Y-45109431D01*
X46087265Y-45109432D01*
X45900858Y-45239954D01*
X45739954Y-45400858D01*
X45609432Y-45587265D01*
X45609431Y-45587267D01*
X45513261Y-45793502D01*
X45513258Y-45793511D01*
X45454366Y-46013302D01*
X45454364Y-46013313D01*
X45434532Y-46239998D01*
X45434532Y-46240001D01*
X45454364Y-46466686D01*
X45454366Y-46466697D01*
X45513258Y-46686488D01*
X45513261Y-46686497D01*
X45609431Y-46892732D01*
X45609432Y-46892734D01*
X45739954Y-47079141D01*
X45900858Y-47240045D01*
X45900861Y-47240047D01*
X46087266Y-47370568D01*
X46143945Y-47396998D01*
X46145275Y-47397618D01*
X46197714Y-47443791D01*
X46216866Y-47510984D01*
X46196650Y-47577865D01*
X46145275Y-47622382D01*
X46087267Y-47649431D01*
X46087265Y-47649432D01*
X45900858Y-47779954D01*
X45739954Y-47940858D01*
X45609432Y-48127265D01*
X45609431Y-48127267D01*
X45513261Y-48333502D01*
X45513258Y-48333511D01*
X45454366Y-48553302D01*
X45454364Y-48553313D01*
X45434532Y-48779998D01*
X45434532Y-48780001D01*
X45454364Y-49006686D01*
X45454366Y-49006697D01*
X45513258Y-49226488D01*
X45513261Y-49226497D01*
X45609431Y-49432732D01*
X45609432Y-49432734D01*
X45739954Y-49619141D01*
X45900858Y-49780045D01*
X45900861Y-49780047D01*
X46087266Y-49910568D01*
X46143945Y-49936998D01*
X46145275Y-49937618D01*
X46197714Y-49983791D01*
X46216866Y-50050984D01*
X46196650Y-50117865D01*
X46145275Y-50162382D01*
X46087267Y-50189431D01*
X46087265Y-50189432D01*
X45900858Y-50319954D01*
X45739954Y-50480858D01*
X45609432Y-50667265D01*
X45609431Y-50667267D01*
X45513261Y-50873502D01*
X45513258Y-50873511D01*
X45454366Y-51093302D01*
X45454364Y-51093313D01*
X45434532Y-51319998D01*
X45434532Y-51320001D01*
X45454364Y-51546686D01*
X45454366Y-51546697D01*
X45513258Y-51766488D01*
X45513261Y-51766497D01*
X45609431Y-51972732D01*
X45609432Y-51972734D01*
X45739954Y-52159141D01*
X45900858Y-52320045D01*
X45900861Y-52320047D01*
X46087266Y-52450568D01*
X46145275Y-52477618D01*
X46197714Y-52523791D01*
X46216866Y-52590984D01*
X46196650Y-52657865D01*
X46145275Y-52702382D01*
X46087267Y-52729431D01*
X46087265Y-52729432D01*
X45900858Y-52859954D01*
X45739954Y-53020858D01*
X45609432Y-53207265D01*
X45609431Y-53207267D01*
X45513261Y-53413502D01*
X45513258Y-53413511D01*
X45454366Y-53633302D01*
X45454364Y-53633313D01*
X45434532Y-53859998D01*
X45434532Y-53860001D01*
X45454364Y-54086686D01*
X45454366Y-54086697D01*
X45513258Y-54306488D01*
X45513261Y-54306497D01*
X45609431Y-54512732D01*
X45609432Y-54512734D01*
X45739954Y-54699141D01*
X45900858Y-54860045D01*
X45906074Y-54863697D01*
X46087266Y-54990568D01*
X46145275Y-55017618D01*
X46197714Y-55063791D01*
X46216866Y-55130984D01*
X46196650Y-55197865D01*
X46145275Y-55242382D01*
X46087267Y-55269431D01*
X46087265Y-55269432D01*
X45900858Y-55399954D01*
X45739954Y-55560858D01*
X45609432Y-55747265D01*
X45609431Y-55747267D01*
X45513261Y-55953502D01*
X45513258Y-55953511D01*
X45454366Y-56173302D01*
X45454364Y-56173313D01*
X45434532Y-56399998D01*
X45434532Y-56400001D01*
X45454364Y-56626686D01*
X45454366Y-56626697D01*
X45513258Y-56846488D01*
X45513261Y-56846497D01*
X45609431Y-57052732D01*
X45609432Y-57052734D01*
X45739954Y-57239141D01*
X45900858Y-57400045D01*
X45900861Y-57400047D01*
X46087266Y-57530568D01*
X46145275Y-57557618D01*
X46197714Y-57603791D01*
X46216866Y-57670984D01*
X46196650Y-57737865D01*
X46145275Y-57782382D01*
X46087267Y-57809431D01*
X46087265Y-57809432D01*
X45900858Y-57939954D01*
X45739954Y-58100858D01*
X45609432Y-58287265D01*
X45609431Y-58287267D01*
X45513261Y-58493502D01*
X45513258Y-58493511D01*
X45454366Y-58713302D01*
X45454364Y-58713313D01*
X45434532Y-58939998D01*
X45434532Y-58940001D01*
X45454364Y-59166686D01*
X45454366Y-59166697D01*
X45513258Y-59386488D01*
X45513261Y-59386497D01*
X45609431Y-59592732D01*
X45609432Y-59592734D01*
X45739954Y-59779141D01*
X45900858Y-59940045D01*
X45900861Y-59940047D01*
X46087266Y-60070568D01*
X46145275Y-60097618D01*
X46197714Y-60143791D01*
X46216866Y-60210984D01*
X46196650Y-60277865D01*
X46145275Y-60322382D01*
X46087267Y-60349431D01*
X46087265Y-60349432D01*
X45900858Y-60479954D01*
X45739954Y-60640858D01*
X45609432Y-60827265D01*
X45609431Y-60827267D01*
X45513261Y-61033502D01*
X45513258Y-61033511D01*
X45454366Y-61253302D01*
X45454364Y-61253313D01*
X45434532Y-61479998D01*
X45434532Y-61480001D01*
X45454364Y-61706686D01*
X45454366Y-61706697D01*
X45513258Y-61926488D01*
X45513261Y-61926497D01*
X45609431Y-62132732D01*
X45609432Y-62132734D01*
X45739954Y-62319141D01*
X45900858Y-62480045D01*
X45900861Y-62480047D01*
X46087266Y-62610568D01*
X46293504Y-62706739D01*
X46513308Y-62765635D01*
X46675230Y-62779801D01*
X46739998Y-62785468D01*
X46740000Y-62785468D01*
X46740002Y-62785468D01*
X46796673Y-62780509D01*
X46966692Y-62765635D01*
X47186496Y-62706739D01*
X47392734Y-62610568D01*
X47579139Y-62480047D01*
X47740047Y-62319139D01*
X47870568Y-62132734D01*
X47966739Y-61926496D01*
X48025635Y-61706692D01*
X48045468Y-61480000D01*
X48025635Y-61253308D01*
X47966739Y-61033504D01*
X47870568Y-60827266D01*
X47772583Y-60687328D01*
X47740045Y-60640858D01*
X47579141Y-60479954D01*
X47392734Y-60349432D01*
X47392728Y-60349429D01*
X47334725Y-60322382D01*
X47282285Y-60276210D01*
X47263133Y-60209017D01*
X47283348Y-60142135D01*
X47334725Y-60097618D01*
X47392734Y-60070568D01*
X47579139Y-59940047D01*
X47740047Y-59779139D01*
X47870568Y-59592734D01*
X47966739Y-59386496D01*
X48025635Y-59166692D01*
X48045468Y-58940000D01*
X48025635Y-58713308D01*
X47966739Y-58493504D01*
X47870568Y-58287266D01*
X47740047Y-58100861D01*
X47740045Y-58100858D01*
X47579141Y-57939954D01*
X47392734Y-57809432D01*
X47392728Y-57809429D01*
X47334725Y-57782382D01*
X47282285Y-57736210D01*
X47263133Y-57669017D01*
X47283348Y-57602135D01*
X47334725Y-57557618D01*
X47392734Y-57530568D01*
X47579139Y-57400047D01*
X47740047Y-57239139D01*
X47870568Y-57052734D01*
X47966739Y-56846496D01*
X48025635Y-56626692D01*
X48045468Y-56400000D01*
X48025635Y-56173308D01*
X47966739Y-55953504D01*
X47870568Y-55747266D01*
X47740047Y-55560861D01*
X47740045Y-55560858D01*
X47579141Y-55399954D01*
X47392734Y-55269432D01*
X47392732Y-55269431D01*
X47334725Y-55242382D01*
X47282286Y-55196209D01*
X47263134Y-55129016D01*
X47283350Y-55062135D01*
X47334726Y-55017618D01*
X47359374Y-55006123D01*
X47392734Y-54990568D01*
X47453721Y-54947864D01*
X47519925Y-54925538D01*
X47587693Y-54942548D01*
X47612524Y-54961759D01*
X48363181Y-55712416D01*
X48396666Y-55773739D01*
X48399500Y-55800097D01*
X48399500Y-62413330D01*
X48399499Y-62413348D01*
X48399499Y-62579054D01*
X48399498Y-62579054D01*
X48440423Y-62731785D01*
X48459965Y-62765631D01*
X48459966Y-62765635D01*
X48519475Y-62868709D01*
X48519481Y-62868717D01*
X48638349Y-62987585D01*
X48638355Y-62987590D01*
X51470681Y-65819916D01*
X51504166Y-65881239D01*
X51507000Y-65907597D01*
X51507000Y-67492870D01*
X51507001Y-67492876D01*
X51513408Y-67552483D01*
X51563702Y-67687328D01*
X51563706Y-67687335D01*
X51649952Y-67802544D01*
X51649955Y-67802547D01*
X51765164Y-67888793D01*
X51765171Y-67888797D01*
X51900017Y-67939091D01*
X51900016Y-67939091D01*
X51906944Y-67939835D01*
X51959627Y-67945500D01*
X53960372Y-67945499D01*
X54019983Y-67939091D01*
X54154831Y-67888796D01*
X54270046Y-67802546D01*
X54356296Y-67687331D01*
X54366690Y-67659460D01*
X54408560Y-67603527D01*
X54474023Y-67579108D01*
X54542297Y-67593958D01*
X54555746Y-67602465D01*
X54738462Y-67735217D01*
X54837007Y-67785428D01*
X54942244Y-67839049D01*
X55159751Y-67909721D01*
X55159752Y-67909721D01*
X55159755Y-67909722D01*
X55385646Y-67945500D01*
X55385647Y-67945500D01*
X55614353Y-67945500D01*
X55614354Y-67945500D01*
X55840245Y-67909722D01*
X55840248Y-67909721D01*
X55840249Y-67909721D01*
X56057755Y-67839049D01*
X56057755Y-67839048D01*
X56057758Y-67839048D01*
X56261538Y-67735217D01*
X56446566Y-67600786D01*
X56608286Y-67439066D01*
X56669992Y-67354134D01*
X56725319Y-67311470D01*
X56794932Y-67305491D01*
X56856727Y-67338096D01*
X56870626Y-67354135D01*
X56932097Y-67438741D01*
X56932097Y-67438742D01*
X57093757Y-67600402D01*
X57278723Y-67734788D01*
X57482429Y-67838582D01*
X57699871Y-67909234D01*
X57790000Y-67923509D01*
X57790000Y-66935747D01*
X57827708Y-66957518D01*
X57967591Y-66995000D01*
X58112409Y-66995000D01*
X58252292Y-66957518D01*
X58290000Y-66935747D01*
X58290000Y-67923508D01*
X58380128Y-67909234D01*
X58597570Y-67838582D01*
X58801276Y-67734788D01*
X58986242Y-67600402D01*
X59147902Y-67438742D01*
X59282288Y-67253776D01*
X59386082Y-67050070D01*
X59456734Y-66832628D01*
X59478532Y-66695000D01*
X58530748Y-66695000D01*
X58552518Y-66657292D01*
X58590000Y-66517409D01*
X58590000Y-66372591D01*
X58552518Y-66232708D01*
X58530748Y-66195000D01*
X59478532Y-66195000D01*
X59456734Y-66057371D01*
X59386082Y-65839929D01*
X59282288Y-65636223D01*
X59147902Y-65451257D01*
X58986242Y-65289597D01*
X58801276Y-65155211D01*
X58597568Y-65051417D01*
X58380124Y-64980765D01*
X58290000Y-64966490D01*
X58290000Y-65954252D01*
X58252292Y-65932482D01*
X58112409Y-65895000D01*
X57967591Y-65895000D01*
X57827708Y-65932482D01*
X57790000Y-65954252D01*
X57790000Y-64966490D01*
X57789999Y-64966490D01*
X57699875Y-64980765D01*
X57482431Y-65051417D01*
X57278723Y-65155211D01*
X57093757Y-65289597D01*
X56932097Y-65451257D01*
X56870627Y-65535864D01*
X56815297Y-65578529D01*
X56745684Y-65584508D01*
X56683889Y-65551902D01*
X56669991Y-65535864D01*
X56654690Y-65514804D01*
X56608286Y-65450934D01*
X56446566Y-65289214D01*
X56261538Y-65154783D01*
X56057755Y-65050950D01*
X55840248Y-64980278D01*
X55654812Y-64950908D01*
X55614354Y-64944500D01*
X55385646Y-64944500D01*
X55345188Y-64950908D01*
X55159753Y-64980278D01*
X55159750Y-64980278D01*
X54942244Y-65050950D01*
X54738461Y-65154783D01*
X54555759Y-65287525D01*
X54489952Y-65311005D01*
X54421898Y-65295180D01*
X54373203Y-65245074D01*
X54366690Y-65230538D01*
X54356296Y-65202669D01*
X54356293Y-65202664D01*
X54270047Y-65087455D01*
X54270044Y-65087452D01*
X54154835Y-65001206D01*
X54154828Y-65001202D01*
X54019982Y-64950908D01*
X54019983Y-64950908D01*
X53960383Y-64944501D01*
X53960381Y-64944500D01*
X53960373Y-64944500D01*
X53960365Y-64944500D01*
X52345098Y-64944500D01*
X52278059Y-64924815D01*
X52257417Y-64908181D01*
X49636819Y-62287583D01*
X49603334Y-62226260D01*
X49600500Y-62199902D01*
X49600500Y-57749097D01*
X49620185Y-57682058D01*
X49672989Y-57636303D01*
X49742147Y-57626359D01*
X49805703Y-57655384D01*
X49812181Y-57661416D01*
X51470681Y-59319916D01*
X51504166Y-59381239D01*
X51507000Y-59407597D01*
X51507000Y-60492870D01*
X51507001Y-60492876D01*
X51513408Y-60552483D01*
X51563702Y-60687328D01*
X51563706Y-60687335D01*
X51649952Y-60802544D01*
X51649955Y-60802547D01*
X51765164Y-60888793D01*
X51765171Y-60888797D01*
X51900017Y-60939091D01*
X51900016Y-60939091D01*
X51906944Y-60939835D01*
X51959627Y-60945500D01*
X53960372Y-60945499D01*
X54019983Y-60939091D01*
X54154831Y-60888796D01*
X54270046Y-60802546D01*
X54356296Y-60687331D01*
X54366690Y-60659460D01*
X54408560Y-60603527D01*
X54474023Y-60579108D01*
X54542297Y-60593958D01*
X54555746Y-60602465D01*
X54738462Y-60735217D01*
X54941327Y-60838582D01*
X54942244Y-60839049D01*
X55159751Y-60909721D01*
X55159752Y-60909721D01*
X55159755Y-60909722D01*
X55385646Y-60945500D01*
X55385647Y-60945500D01*
X55614353Y-60945500D01*
X55614354Y-60945500D01*
X55840245Y-60909722D01*
X55840248Y-60909721D01*
X55840249Y-60909721D01*
X56057755Y-60839049D01*
X56057755Y-60839048D01*
X56057758Y-60839048D01*
X56261538Y-60735217D01*
X56446566Y-60600786D01*
X56608286Y-60439066D01*
X56669992Y-60354134D01*
X56725319Y-60311470D01*
X56794932Y-60305491D01*
X56856727Y-60338096D01*
X56870626Y-60354135D01*
X56932097Y-60438741D01*
X56932097Y-60438742D01*
X57093757Y-60600402D01*
X57278723Y-60734788D01*
X57482429Y-60838582D01*
X57699871Y-60909234D01*
X57790000Y-60923509D01*
X57790000Y-59935747D01*
X57827708Y-59957518D01*
X57967591Y-59995000D01*
X58112409Y-59995000D01*
X58252292Y-59957518D01*
X58290000Y-59935747D01*
X58290000Y-60923508D01*
X58380128Y-60909234D01*
X58597570Y-60838582D01*
X58801276Y-60734788D01*
X58986242Y-60600402D01*
X59147902Y-60438742D01*
X59282288Y-60253776D01*
X59386082Y-60050070D01*
X59456734Y-59832628D01*
X59478532Y-59695000D01*
X58530748Y-59695000D01*
X58552518Y-59657292D01*
X58590000Y-59517409D01*
X58590000Y-59372591D01*
X58552518Y-59232708D01*
X58530748Y-59195000D01*
X59478532Y-59195000D01*
X59456734Y-59057371D01*
X59386082Y-58839929D01*
X59282288Y-58636223D01*
X59147902Y-58451257D01*
X58986242Y-58289597D01*
X58801276Y-58155211D01*
X58597568Y-58051417D01*
X58380124Y-57980765D01*
X58290000Y-57966490D01*
X58290000Y-58954252D01*
X58252292Y-58932482D01*
X58112409Y-58895000D01*
X57967591Y-58895000D01*
X57827708Y-58932482D01*
X57790000Y-58954252D01*
X57790000Y-57966490D01*
X57789999Y-57966490D01*
X57699875Y-57980765D01*
X57482431Y-58051417D01*
X57278723Y-58155211D01*
X57093757Y-58289597D01*
X56932097Y-58451257D01*
X56870627Y-58535864D01*
X56815297Y-58578529D01*
X56745684Y-58584508D01*
X56683889Y-58551902D01*
X56669991Y-58535864D01*
X56608286Y-58450934D01*
X56446566Y-58289214D01*
X56261538Y-58154783D01*
X56155710Y-58100861D01*
X56057755Y-58050950D01*
X55840248Y-57980278D01*
X55654812Y-57950908D01*
X55614354Y-57944500D01*
X55385646Y-57944500D01*
X55310349Y-57956426D01*
X55159753Y-57980278D01*
X55159750Y-57980278D01*
X54942244Y-58050950D01*
X54738461Y-58154783D01*
X54555759Y-58287525D01*
X54489952Y-58311005D01*
X54421898Y-58295180D01*
X54373203Y-58245074D01*
X54366690Y-58230538D01*
X54356296Y-58202669D01*
X54356293Y-58202664D01*
X54270047Y-58087455D01*
X54270044Y-58087452D01*
X54154835Y-58001206D01*
X54154828Y-58001202D01*
X54019982Y-57950908D01*
X54019983Y-57950908D01*
X53960383Y-57944501D01*
X53960381Y-57944500D01*
X53960373Y-57944500D01*
X53960364Y-57944500D01*
X51959629Y-57944500D01*
X51959623Y-57944501D01*
X51900020Y-57950908D01*
X51892474Y-57952692D01*
X51892050Y-57950900D01*
X51832242Y-57955175D01*
X51770926Y-57921691D01*
X50636819Y-56787584D01*
X50603334Y-56726261D01*
X50600500Y-56699903D01*
X50600500Y-53089060D01*
X50600501Y-53089047D01*
X50600501Y-52920945D01*
X50600501Y-52920943D01*
X50559577Y-52768215D01*
X50480520Y-52631284D01*
X48807589Y-50958354D01*
X48807588Y-50958352D01*
X48688717Y-50839481D01*
X48688716Y-50839480D01*
X48601904Y-50789360D01*
X48601904Y-50789359D01*
X48601900Y-50789358D01*
X48551785Y-50760423D01*
X48399057Y-50719499D01*
X48240943Y-50719499D01*
X48233347Y-50719499D01*
X48233331Y-50719500D01*
X47971692Y-50719500D01*
X47904653Y-50699815D01*
X47870119Y-50666625D01*
X47740047Y-50480861D01*
X47740045Y-50480858D01*
X47579141Y-50319954D01*
X47392734Y-50189432D01*
X47392728Y-50189429D01*
X47334725Y-50162382D01*
X47282285Y-50116210D01*
X47263133Y-50049017D01*
X47283348Y-49982135D01*
X47334725Y-49937618D01*
X47336055Y-49936998D01*
X47392734Y-49910568D01*
X47579139Y-49780047D01*
X47740047Y-49619139D01*
X47870118Y-49433375D01*
X47924693Y-49389752D01*
X47971692Y-49380500D01*
X48479903Y-49380500D01*
X48546942Y-49400185D01*
X48567584Y-49416819D01*
X51470681Y-52319917D01*
X51504166Y-52381240D01*
X51507000Y-52407598D01*
X51507000Y-53492870D01*
X51507001Y-53492876D01*
X51513408Y-53552483D01*
X51563702Y-53687328D01*
X51563706Y-53687335D01*
X51649952Y-53802544D01*
X51649955Y-53802547D01*
X51765164Y-53888793D01*
X51765171Y-53888797D01*
X51900017Y-53939091D01*
X51900016Y-53939091D01*
X51906944Y-53939835D01*
X51959627Y-53945500D01*
X53960372Y-53945499D01*
X54019983Y-53939091D01*
X54154831Y-53888796D01*
X54270046Y-53802546D01*
X54356296Y-53687331D01*
X54366690Y-53659460D01*
X54408560Y-53603527D01*
X54474023Y-53579108D01*
X54542297Y-53593958D01*
X54555746Y-53602465D01*
X54738462Y-53735217D01*
X54870599Y-53802544D01*
X54942244Y-53839049D01*
X55159751Y-53909721D01*
X55159752Y-53909721D01*
X55159755Y-53909722D01*
X55385646Y-53945500D01*
X55385647Y-53945500D01*
X55614353Y-53945500D01*
X55614354Y-53945500D01*
X55840245Y-53909722D01*
X55840248Y-53909721D01*
X55840249Y-53909721D01*
X56057755Y-53839049D01*
X56057755Y-53839048D01*
X56057758Y-53839048D01*
X56261538Y-53735217D01*
X56446566Y-53600786D01*
X56608286Y-53439066D01*
X56669992Y-53354134D01*
X56725319Y-53311470D01*
X56794932Y-53305491D01*
X56856727Y-53338096D01*
X56870626Y-53354135D01*
X56932097Y-53438741D01*
X56932097Y-53438742D01*
X57093757Y-53600402D01*
X57278723Y-53734788D01*
X57482429Y-53838582D01*
X57699871Y-53909234D01*
X57790000Y-53923509D01*
X57790000Y-52935747D01*
X57827708Y-52957518D01*
X57967591Y-52995000D01*
X58112409Y-52995000D01*
X58252292Y-52957518D01*
X58290000Y-52935747D01*
X58290000Y-53923508D01*
X58380128Y-53909234D01*
X58597570Y-53838582D01*
X58801276Y-53734788D01*
X58986242Y-53600402D01*
X59147902Y-53438742D01*
X59282288Y-53253776D01*
X59284215Y-53249995D01*
X64194732Y-53249995D01*
X64194732Y-53250004D01*
X64213777Y-53504154D01*
X64266515Y-53735216D01*
X64270492Y-53752637D01*
X64363607Y-53989888D01*
X64491041Y-54210612D01*
X64649950Y-54409877D01*
X64836783Y-54583232D01*
X65047366Y-54726805D01*
X65047371Y-54726807D01*
X65047372Y-54726808D01*
X65047373Y-54726809D01*
X65172126Y-54786886D01*
X65227972Y-54813780D01*
X65279832Y-54860602D01*
X65298145Y-54928029D01*
X65277097Y-54994653D01*
X65223371Y-55039321D01*
X65174171Y-55049500D01*
X64652129Y-55049500D01*
X64652123Y-55049501D01*
X64592516Y-55055908D01*
X64457671Y-55106202D01*
X64457664Y-55106206D01*
X64342455Y-55192452D01*
X64342452Y-55192455D01*
X64256206Y-55307664D01*
X64256202Y-55307671D01*
X64205908Y-55442517D01*
X64199501Y-55502116D01*
X64199501Y-55502123D01*
X64199500Y-55502135D01*
X64199500Y-57997870D01*
X64199501Y-57997876D01*
X64205908Y-58057483D01*
X64256202Y-58192328D01*
X64256206Y-58192335D01*
X64342452Y-58307544D01*
X64342455Y-58307547D01*
X64457664Y-58393793D01*
X64457671Y-58393797D01*
X64592517Y-58444091D01*
X64592516Y-58444091D01*
X64599444Y-58444835D01*
X64652127Y-58450500D01*
X67147872Y-58450499D01*
X67207483Y-58444091D01*
X67342331Y-58393796D01*
X67457546Y-58307546D01*
X67543796Y-58192331D01*
X67594091Y-58057483D01*
X67600500Y-57997873D01*
X67600499Y-55502128D01*
X67594091Y-55442517D01*
X67543796Y-55307669D01*
X67543795Y-55307668D01*
X67543793Y-55307664D01*
X67457547Y-55192455D01*
X67457544Y-55192452D01*
X67342335Y-55106206D01*
X67342328Y-55106202D01*
X67207482Y-55055908D01*
X67207483Y-55055908D01*
X67147883Y-55049501D01*
X67147881Y-55049500D01*
X67147873Y-55049500D01*
X67147865Y-55049500D01*
X66625829Y-55049500D01*
X66558790Y-55029815D01*
X66513035Y-54977011D01*
X66503091Y-54907853D01*
X66532116Y-54844297D01*
X66572027Y-54813780D01*
X66752634Y-54726805D01*
X66963217Y-54583232D01*
X67150050Y-54409877D01*
X67308959Y-54210612D01*
X67436393Y-53989888D01*
X67529508Y-53752637D01*
X67586222Y-53504157D01*
X67603489Y-53273739D01*
X67605268Y-53250004D01*
X67605268Y-53249995D01*
X67588097Y-53020861D01*
X67586222Y-52995843D01*
X67529508Y-52747363D01*
X67436393Y-52510112D01*
X67308959Y-52289388D01*
X67150050Y-52090123D01*
X66963217Y-51916768D01*
X66752634Y-51773195D01*
X66752630Y-51773193D01*
X66752627Y-51773191D01*
X66752626Y-51773190D01*
X66523006Y-51662612D01*
X66523008Y-51662612D01*
X66279466Y-51587489D01*
X66279462Y-51587488D01*
X66279458Y-51587487D01*
X66158231Y-51569214D01*
X66027440Y-51549500D01*
X66027435Y-51549500D01*
X65772565Y-51549500D01*
X65772559Y-51549500D01*
X65615609Y-51573157D01*
X65520542Y-51587487D01*
X65520539Y-51587488D01*
X65520533Y-51587489D01*
X65276992Y-51662612D01*
X65047373Y-51773190D01*
X65047372Y-51773191D01*
X64836782Y-51916768D01*
X64649952Y-52090121D01*
X64649950Y-52090123D01*
X64491041Y-52289388D01*
X64363608Y-52510109D01*
X64270492Y-52747362D01*
X64270490Y-52747369D01*
X64213777Y-52995845D01*
X64194732Y-53249995D01*
X59284215Y-53249995D01*
X59386082Y-53050070D01*
X59456734Y-52832628D01*
X59478532Y-52695000D01*
X58530748Y-52695000D01*
X58552518Y-52657292D01*
X58590000Y-52517409D01*
X58590000Y-52372591D01*
X58552518Y-52232708D01*
X58530748Y-52195000D01*
X59478532Y-52195000D01*
X59456734Y-52057371D01*
X59386082Y-51839929D01*
X59282288Y-51636223D01*
X59147902Y-51451257D01*
X58986242Y-51289597D01*
X58801276Y-51155211D01*
X58597568Y-51051417D01*
X58380124Y-50980765D01*
X58290000Y-50966490D01*
X58290000Y-51954252D01*
X58252292Y-51932482D01*
X58112409Y-51895000D01*
X57967591Y-51895000D01*
X57827708Y-51932482D01*
X57790000Y-51954252D01*
X57790000Y-50966490D01*
X57789999Y-50966490D01*
X57699875Y-50980765D01*
X57482431Y-51051417D01*
X57278723Y-51155211D01*
X57093757Y-51289597D01*
X56932097Y-51451257D01*
X56870627Y-51535864D01*
X56815297Y-51578529D01*
X56745684Y-51584508D01*
X56683889Y-51551902D01*
X56669991Y-51535864D01*
X56608286Y-51450934D01*
X56446566Y-51289214D01*
X56261538Y-51154783D01*
X56057755Y-51050950D01*
X55840248Y-50980278D01*
X55666076Y-50952692D01*
X55614354Y-50944500D01*
X55385646Y-50944500D01*
X55318273Y-50955171D01*
X55159753Y-50980278D01*
X55159750Y-50980278D01*
X54942244Y-51050950D01*
X54738461Y-51154783D01*
X54555759Y-51287525D01*
X54489952Y-51311005D01*
X54421898Y-51295180D01*
X54373203Y-51245074D01*
X54366690Y-51230538D01*
X54356296Y-51202669D01*
X54356293Y-51202664D01*
X54270047Y-51087455D01*
X54270044Y-51087452D01*
X54154835Y-51001206D01*
X54154828Y-51001202D01*
X54019982Y-50950908D01*
X54019983Y-50950908D01*
X53960383Y-50944501D01*
X53960381Y-50944500D01*
X53960373Y-50944500D01*
X53960364Y-50944500D01*
X51959629Y-50944500D01*
X51959623Y-50944501D01*
X51900015Y-50950909D01*
X51892471Y-50952692D01*
X51892048Y-50950902D01*
X51832230Y-50955171D01*
X51770926Y-50921690D01*
X49267590Y-48418355D01*
X49267588Y-48418352D01*
X49148717Y-48299481D01*
X49148716Y-48299480D01*
X49061904Y-48249360D01*
X49061904Y-48249359D01*
X49061900Y-48249358D01*
X49011785Y-48220423D01*
X48859057Y-48179499D01*
X48700943Y-48179499D01*
X48693347Y-48179499D01*
X48693331Y-48179500D01*
X47971692Y-48179500D01*
X47904653Y-48159815D01*
X47870119Y-48126625D01*
X47740047Y-47940861D01*
X47740045Y-47940858D01*
X47579141Y-47779954D01*
X47392734Y-47649432D01*
X47392728Y-47649429D01*
X47334725Y-47622382D01*
X47282285Y-47576210D01*
X47263133Y-47509017D01*
X47283348Y-47442135D01*
X47334725Y-47397618D01*
X47336055Y-47396998D01*
X47392734Y-47370568D01*
X47579139Y-47240047D01*
X47740047Y-47079139D01*
X47870568Y-46892734D01*
X47966739Y-46686496D01*
X48025635Y-46466692D01*
X48045468Y-46240000D01*
X48025635Y-46013308D01*
X47970535Y-45807671D01*
X47966741Y-45793511D01*
X47966738Y-45793502D01*
X47870568Y-45587266D01*
X47740047Y-45400861D01*
X47740045Y-45400858D01*
X47579141Y-45239954D01*
X47392734Y-45109432D01*
X47392728Y-45109429D01*
X47334725Y-45082382D01*
X47282285Y-45036210D01*
X47263133Y-44969017D01*
X47283348Y-44902135D01*
X47334725Y-44857618D01*
X47336055Y-44856998D01*
X47392734Y-44830568D01*
X47579139Y-44700047D01*
X47740047Y-44539139D01*
X47870568Y-44352734D01*
X47966739Y-44146496D01*
X48025635Y-43926692D01*
X48045468Y-43700000D01*
X48025635Y-43473308D01*
X47999847Y-43377066D01*
X48001510Y-43307217D01*
X48031939Y-43257294D01*
X49484226Y-41805007D01*
X49545547Y-41771524D01*
X49615239Y-41776508D01*
X49671172Y-41818380D01*
X49695589Y-41883844D01*
X49691680Y-41924783D01*
X49664938Y-42024586D01*
X49664936Y-42024596D01*
X49644341Y-42259999D01*
X49644341Y-42260000D01*
X49664936Y-42495403D01*
X49664938Y-42495413D01*
X49726094Y-42723655D01*
X49726096Y-42723659D01*
X49726097Y-42723663D01*
X49790072Y-42860858D01*
X49825965Y-42937830D01*
X49825967Y-42937834D01*
X49922947Y-43076335D01*
X49961501Y-43131396D01*
X49961506Y-43131402D01*
X50083818Y-43253714D01*
X50117303Y-43315037D01*
X50112319Y-43384729D01*
X50070447Y-43440662D01*
X50039471Y-43457577D01*
X49907912Y-43506646D01*
X49907906Y-43506649D01*
X49792812Y-43592809D01*
X49792809Y-43592812D01*
X49706649Y-43707906D01*
X49706645Y-43707913D01*
X49656403Y-43842620D01*
X49656401Y-43842627D01*
X49650000Y-43902155D01*
X49650000Y-44550000D01*
X50566988Y-44550000D01*
X50534075Y-44607007D01*
X50500000Y-44734174D01*
X50500000Y-44865826D01*
X50534075Y-44992993D01*
X50566988Y-45050000D01*
X49650000Y-45050000D01*
X49650000Y-45697844D01*
X49656401Y-45757372D01*
X49656403Y-45757379D01*
X49706645Y-45892086D01*
X49706649Y-45892093D01*
X49792809Y-46007187D01*
X49792812Y-46007190D01*
X49907906Y-46093350D01*
X49907913Y-46093354D01*
X50042620Y-46143596D01*
X50042627Y-46143598D01*
X50102155Y-46149999D01*
X50102172Y-46150000D01*
X50750000Y-46150000D01*
X50750000Y-45233012D01*
X50807007Y-45265925D01*
X50934174Y-45300000D01*
X51065826Y-45300000D01*
X51192993Y-45265925D01*
X51250000Y-45233012D01*
X51250000Y-46150000D01*
X51897828Y-46150000D01*
X51897844Y-46149999D01*
X51957372Y-46143598D01*
X51957379Y-46143596D01*
X52092086Y-46093354D01*
X52092093Y-46093350D01*
X52207187Y-46007190D01*
X52207190Y-46007187D01*
X52293350Y-45892093D01*
X52293354Y-45892086D01*
X52343596Y-45757379D01*
X52343598Y-45757372D01*
X52349999Y-45697844D01*
X52350000Y-45697827D01*
X52350000Y-45050000D01*
X51433012Y-45050000D01*
X51465925Y-44992993D01*
X51500000Y-44865826D01*
X51500000Y-44734174D01*
X51465925Y-44607007D01*
X51433012Y-44550000D01*
X52350000Y-44550000D01*
X52350000Y-43902172D01*
X52349999Y-43902155D01*
X52343598Y-43842627D01*
X52343596Y-43842620D01*
X52309049Y-43749995D01*
X64194732Y-43749995D01*
X64194732Y-43750004D01*
X64213777Y-44004154D01*
X64262547Y-44217830D01*
X64270492Y-44252637D01*
X64363607Y-44489888D01*
X64491041Y-44710612D01*
X64649950Y-44909877D01*
X64836783Y-45083232D01*
X65047366Y-45226805D01*
X65047371Y-45226807D01*
X65047372Y-45226808D01*
X65047373Y-45226809D01*
X65172126Y-45286886D01*
X65227972Y-45313780D01*
X65279832Y-45360602D01*
X65298145Y-45428029D01*
X65277097Y-45494653D01*
X65223371Y-45539321D01*
X65174171Y-45549500D01*
X64652129Y-45549500D01*
X64652123Y-45549501D01*
X64592516Y-45555908D01*
X64457671Y-45606202D01*
X64457664Y-45606206D01*
X64342455Y-45692452D01*
X64342452Y-45692455D01*
X64256206Y-45807664D01*
X64256202Y-45807671D01*
X64205908Y-45942517D01*
X64199501Y-46002116D01*
X64199501Y-46002123D01*
X64199500Y-46002135D01*
X64199500Y-48497870D01*
X64199501Y-48497876D01*
X64205908Y-48557483D01*
X64256202Y-48692328D01*
X64256206Y-48692335D01*
X64342452Y-48807544D01*
X64342455Y-48807547D01*
X64457664Y-48893793D01*
X64457671Y-48893797D01*
X64592517Y-48944091D01*
X64592516Y-48944091D01*
X64599444Y-48944835D01*
X64652127Y-48950500D01*
X67147872Y-48950499D01*
X67207483Y-48944091D01*
X67342331Y-48893796D01*
X67457546Y-48807546D01*
X67543796Y-48692331D01*
X67594091Y-48557483D01*
X67600500Y-48497873D01*
X67600499Y-46002128D01*
X67594091Y-45942517D01*
X67575281Y-45892086D01*
X67543797Y-45807671D01*
X67543793Y-45807664D01*
X67457547Y-45692455D01*
X67457544Y-45692452D01*
X67342335Y-45606206D01*
X67342328Y-45606202D01*
X67207482Y-45555908D01*
X67207483Y-45555908D01*
X67147883Y-45549501D01*
X67147881Y-45549500D01*
X67147873Y-45549500D01*
X67147865Y-45549500D01*
X66625829Y-45549500D01*
X66558790Y-45529815D01*
X66513035Y-45477011D01*
X66503091Y-45407853D01*
X66532116Y-45344297D01*
X66572027Y-45313780D01*
X66752634Y-45226805D01*
X66963217Y-45083232D01*
X67150050Y-44909877D01*
X67308959Y-44710612D01*
X67436393Y-44489888D01*
X67529508Y-44252637D01*
X67586222Y-44004157D01*
X67603364Y-43775408D01*
X67605268Y-43750004D01*
X67605268Y-43749995D01*
X67587032Y-43506649D01*
X67586222Y-43495843D01*
X67529508Y-43247363D01*
X67436393Y-43010112D01*
X67308959Y-42789388D01*
X67150050Y-42590123D01*
X66963217Y-42416768D01*
X66752634Y-42273195D01*
X66752630Y-42273193D01*
X66752627Y-42273191D01*
X66752626Y-42273190D01*
X66523006Y-42162612D01*
X66523008Y-42162612D01*
X66279466Y-42087489D01*
X66279462Y-42087488D01*
X66279458Y-42087487D01*
X66158231Y-42069214D01*
X66027440Y-42049500D01*
X66027435Y-42049500D01*
X65772565Y-42049500D01*
X65772559Y-42049500D01*
X65615609Y-42073157D01*
X65520542Y-42087487D01*
X65520539Y-42087488D01*
X65520533Y-42087489D01*
X65276992Y-42162612D01*
X65047373Y-42273190D01*
X65047372Y-42273191D01*
X64836782Y-42416768D01*
X64649952Y-42590121D01*
X64649950Y-42590123D01*
X64491041Y-42789388D01*
X64363608Y-43010109D01*
X64270492Y-43247362D01*
X64270490Y-43247369D01*
X64213777Y-43495845D01*
X64194732Y-43749995D01*
X52309049Y-43749995D01*
X52293354Y-43707913D01*
X52293350Y-43707906D01*
X52207190Y-43592812D01*
X52207187Y-43592809D01*
X52092093Y-43506649D01*
X52092088Y-43506646D01*
X51960528Y-43457577D01*
X51904595Y-43415705D01*
X51880178Y-43350241D01*
X51895030Y-43281968D01*
X51916175Y-43253720D01*
X52038495Y-43131401D01*
X52174035Y-42937830D01*
X52273903Y-42723663D01*
X52319596Y-42553131D01*
X52351687Y-42497546D01*
X53868713Y-40980521D01*
X53868716Y-40980520D01*
X53980520Y-40868716D01*
X54030639Y-40781904D01*
X54059577Y-40731785D01*
X54100501Y-40579057D01*
X54100501Y-40420943D01*
X54100501Y-40413348D01*
X54100500Y-40413330D01*
X54100500Y-36089060D01*
X54100501Y-36089047D01*
X54100501Y-35999996D01*
X55194435Y-35999996D01*
X55194435Y-36000003D01*
X55214630Y-36179249D01*
X55214631Y-36179254D01*
X55274211Y-36349523D01*
X55355351Y-36478655D01*
X55370184Y-36502262D01*
X55497738Y-36629816D01*
X55565023Y-36672094D01*
X55598014Y-36692824D01*
X55650478Y-36725789D01*
X55670326Y-36732734D01*
X55820745Y-36785368D01*
X55820750Y-36785369D01*
X55999996Y-36805565D01*
X56000000Y-36805565D01*
X56000004Y-36805565D01*
X56179249Y-36785369D01*
X56179252Y-36785368D01*
X56179255Y-36785368D01*
X56349522Y-36725789D01*
X56502262Y-36629816D01*
X56502267Y-36629810D01*
X56505097Y-36627555D01*
X56507275Y-36626665D01*
X56508158Y-36626111D01*
X56508255Y-36626265D01*
X56569783Y-36601145D01*
X56582412Y-36600500D01*
X58203914Y-36600500D01*
X58270953Y-36620185D01*
X58316295Y-36672094D01*
X58325962Y-36692824D01*
X58325967Y-36692834D01*
X58461501Y-36886395D01*
X58461506Y-36886402D01*
X58628597Y-37053493D01*
X58628603Y-37053498D01*
X58814158Y-37183425D01*
X58857783Y-37238002D01*
X58864977Y-37307500D01*
X58833454Y-37369855D01*
X58814158Y-37386575D01*
X58628597Y-37516505D01*
X58461505Y-37683597D01*
X58325965Y-37877169D01*
X58325964Y-37877171D01*
X58226098Y-38091335D01*
X58226094Y-38091344D01*
X58164938Y-38319586D01*
X58164936Y-38319596D01*
X58144341Y-38554999D01*
X58144341Y-38555000D01*
X58164936Y-38790403D01*
X58164938Y-38790413D01*
X58226094Y-39018655D01*
X58226096Y-39018659D01*
X58226097Y-39018663D01*
X58307079Y-39192328D01*
X58325965Y-39232830D01*
X58325967Y-39232834D01*
X58394981Y-39331395D01*
X58461505Y-39426401D01*
X58628599Y-39593495D01*
X58686496Y-39634035D01*
X58822165Y-39729032D01*
X58822167Y-39729033D01*
X58822170Y-39729035D01*
X59036337Y-39828903D01*
X59264592Y-39890063D01*
X59452918Y-39906539D01*
X59499999Y-39910659D01*
X59500000Y-39910659D01*
X59500001Y-39910659D01*
X59539234Y-39907226D01*
X59735408Y-39890063D01*
X59963663Y-39828903D01*
X60177830Y-39729035D01*
X60371401Y-39593495D01*
X60538495Y-39426401D01*
X60674035Y-39232830D01*
X60773903Y-39018663D01*
X60835063Y-38790408D01*
X60855659Y-38555000D01*
X60835063Y-38319592D01*
X60773903Y-38091337D01*
X60674035Y-37877171D01*
X60660496Y-37857834D01*
X60538494Y-37683597D01*
X60371402Y-37516506D01*
X60371396Y-37516501D01*
X60185842Y-37386575D01*
X60142217Y-37331998D01*
X60135023Y-37262500D01*
X60166546Y-37200145D01*
X60185842Y-37183425D01*
X60265648Y-37127544D01*
X60371401Y-37053495D01*
X60538495Y-36886401D01*
X60674035Y-36692830D01*
X60773903Y-36478663D01*
X60835063Y-36250408D01*
X60855659Y-36015000D01*
X60854868Y-36005964D01*
X60846131Y-35906094D01*
X60835063Y-35779592D01*
X60773903Y-35551337D01*
X60674035Y-35337171D01*
X60674034Y-35337169D01*
X60538496Y-35143600D01*
X60538495Y-35143599D01*
X60416179Y-35021283D01*
X60382696Y-34959963D01*
X60387680Y-34890271D01*
X60429551Y-34834337D01*
X60460529Y-34817422D01*
X60592086Y-34768354D01*
X60592093Y-34768350D01*
X60707187Y-34682190D01*
X60707190Y-34682187D01*
X60793350Y-34567093D01*
X60793354Y-34567086D01*
X60843596Y-34432379D01*
X60843598Y-34432372D01*
X60849999Y-34372844D01*
X60850000Y-34372827D01*
X60850000Y-34249995D01*
X64194732Y-34249995D01*
X64194732Y-34250004D01*
X64213777Y-34504154D01*
X64268409Y-34743514D01*
X64270492Y-34752637D01*
X64363607Y-34989888D01*
X64491041Y-35210612D01*
X64649950Y-35409877D01*
X64836783Y-35583232D01*
X65047366Y-35726805D01*
X65047371Y-35726807D01*
X65047372Y-35726808D01*
X65047373Y-35726809D01*
X65172126Y-35786886D01*
X65227972Y-35813780D01*
X65279832Y-35860602D01*
X65298145Y-35928029D01*
X65277097Y-35994653D01*
X65223371Y-36039321D01*
X65174171Y-36049500D01*
X64652129Y-36049500D01*
X64652123Y-36049501D01*
X64592516Y-36055908D01*
X64457671Y-36106202D01*
X64457664Y-36106206D01*
X64342455Y-36192452D01*
X64342452Y-36192455D01*
X64256206Y-36307664D01*
X64256202Y-36307671D01*
X64205908Y-36442517D01*
X64199501Y-36502116D01*
X64199501Y-36502123D01*
X64199500Y-36502135D01*
X64199500Y-38997870D01*
X64199501Y-38997876D01*
X64205908Y-39057483D01*
X64256202Y-39192328D01*
X64256206Y-39192335D01*
X64342452Y-39307544D01*
X64342455Y-39307547D01*
X64457664Y-39393793D01*
X64457671Y-39393797D01*
X64592517Y-39444091D01*
X64592516Y-39444091D01*
X64599444Y-39444835D01*
X64652127Y-39450500D01*
X67147872Y-39450499D01*
X67207483Y-39444091D01*
X67342331Y-39393796D01*
X67457546Y-39307546D01*
X67543796Y-39192331D01*
X67594091Y-39057483D01*
X67600500Y-38997873D01*
X67600499Y-36502128D01*
X67594091Y-36442517D01*
X67543796Y-36307669D01*
X67543795Y-36307668D01*
X67543793Y-36307664D01*
X67457547Y-36192455D01*
X67457544Y-36192452D01*
X67342335Y-36106206D01*
X67342328Y-36106202D01*
X67207482Y-36055908D01*
X67207483Y-36055908D01*
X67147883Y-36049501D01*
X67147881Y-36049500D01*
X67147873Y-36049500D01*
X67147865Y-36049500D01*
X66625829Y-36049500D01*
X66558790Y-36029815D01*
X66513035Y-35977011D01*
X66503091Y-35907853D01*
X66532116Y-35844297D01*
X66572027Y-35813780D01*
X66752634Y-35726805D01*
X66963217Y-35583232D01*
X67150050Y-35409877D01*
X67308959Y-35210612D01*
X67436393Y-34989888D01*
X67529508Y-34752637D01*
X67586222Y-34504157D01*
X67595591Y-34379139D01*
X67605268Y-34250004D01*
X67605268Y-34249995D01*
X67589531Y-34040000D01*
X67586222Y-33995843D01*
X67529508Y-33747363D01*
X67436393Y-33510112D01*
X67308959Y-33289388D01*
X67150050Y-33090123D01*
X66963217Y-32916768D01*
X66752634Y-32773195D01*
X66752630Y-32773193D01*
X66752627Y-32773191D01*
X66752626Y-32773190D01*
X66523006Y-32662612D01*
X66523008Y-32662612D01*
X66279466Y-32587489D01*
X66279462Y-32587488D01*
X66279458Y-32587487D01*
X66158231Y-32569214D01*
X66027440Y-32549500D01*
X66027435Y-32549500D01*
X65772565Y-32549500D01*
X65772559Y-32549500D01*
X65615609Y-32573157D01*
X65520542Y-32587487D01*
X65520539Y-32587488D01*
X65520533Y-32587489D01*
X65276992Y-32662612D01*
X65047373Y-32773190D01*
X65047372Y-32773191D01*
X64836782Y-32916768D01*
X64649952Y-33090121D01*
X64649950Y-33090123D01*
X64491041Y-33289388D01*
X64363608Y-33510109D01*
X64270492Y-33747362D01*
X64270490Y-33747369D01*
X64213777Y-33995845D01*
X64194732Y-34249995D01*
X60850000Y-34249995D01*
X60850000Y-33725000D01*
X59933012Y-33725000D01*
X59965925Y-33667993D01*
X60000000Y-33540826D01*
X60000000Y-33409174D01*
X59965925Y-33282007D01*
X59933012Y-33225000D01*
X60850000Y-33225000D01*
X60850000Y-32577172D01*
X60849999Y-32577155D01*
X60843598Y-32517627D01*
X60843596Y-32517620D01*
X60793354Y-32382913D01*
X60793350Y-32382906D01*
X60707190Y-32267812D01*
X60707187Y-32267809D01*
X60592093Y-32181649D01*
X60592086Y-32181645D01*
X60457379Y-32131403D01*
X60457372Y-32131401D01*
X60397844Y-32125000D01*
X59750000Y-32125000D01*
X59750000Y-33041988D01*
X59692993Y-33009075D01*
X59565826Y-32975000D01*
X59434174Y-32975000D01*
X59307007Y-33009075D01*
X59250000Y-33041988D01*
X59250000Y-32125000D01*
X58602155Y-32125000D01*
X58542627Y-32131401D01*
X58542620Y-32131403D01*
X58407913Y-32181645D01*
X58407906Y-32181649D01*
X58292812Y-32267809D01*
X58292809Y-32267812D01*
X58206649Y-32382906D01*
X58206645Y-32382913D01*
X58156403Y-32517620D01*
X58156401Y-32517627D01*
X58150000Y-32577155D01*
X58150000Y-33225000D01*
X59066988Y-33225000D01*
X59034075Y-33282007D01*
X59000000Y-33409174D01*
X59000000Y-33540826D01*
X59034075Y-33667993D01*
X59066988Y-33725000D01*
X58150000Y-33725000D01*
X58150000Y-34372844D01*
X58156401Y-34432372D01*
X58156403Y-34432379D01*
X58206645Y-34567086D01*
X58206649Y-34567093D01*
X58292809Y-34682187D01*
X58292812Y-34682190D01*
X58407906Y-34768350D01*
X58407913Y-34768354D01*
X58539470Y-34817421D01*
X58595403Y-34859292D01*
X58619821Y-34924756D01*
X58604970Y-34993029D01*
X58583819Y-35021284D01*
X58461503Y-35143600D01*
X58325965Y-35337170D01*
X58325776Y-35337498D01*
X58325654Y-35337613D01*
X58322860Y-35341605D01*
X58322057Y-35341043D01*
X58275210Y-35385714D01*
X58218388Y-35399500D01*
X56582412Y-35399500D01*
X56515373Y-35379815D01*
X56505097Y-35372445D01*
X56502263Y-35370185D01*
X56502262Y-35370184D01*
X56445496Y-35334515D01*
X56349523Y-35274211D01*
X56179254Y-35214631D01*
X56179249Y-35214630D01*
X56000004Y-35194435D01*
X55999996Y-35194435D01*
X55820750Y-35214630D01*
X55820745Y-35214631D01*
X55650476Y-35274211D01*
X55497737Y-35370184D01*
X55370184Y-35497737D01*
X55274211Y-35650476D01*
X55214631Y-35820745D01*
X55214630Y-35820750D01*
X55194435Y-35999996D01*
X54100501Y-35999996D01*
X54100501Y-35920944D01*
X54082379Y-35853313D01*
X54059577Y-35768216D01*
X53991602Y-35650478D01*
X53980524Y-35631290D01*
X53980518Y-35631282D01*
X52825916Y-34476680D01*
X52792431Y-34415357D01*
X52797415Y-34345665D01*
X52839287Y-34289732D01*
X52904751Y-34265315D01*
X52913597Y-34264999D01*
X53027499Y-34264999D01*
X53527500Y-34264999D01*
X53664972Y-34264999D01*
X53664986Y-34264998D01*
X53767697Y-34254505D01*
X53934119Y-34199358D01*
X53934124Y-34199356D01*
X54083345Y-34107315D01*
X54207315Y-33983345D01*
X54299356Y-33834124D01*
X54299358Y-33834119D01*
X54354505Y-33667697D01*
X54354506Y-33667690D01*
X54364999Y-33564986D01*
X54365000Y-33564973D01*
X54365000Y-33290000D01*
X53527500Y-33290000D01*
X53527500Y-34264999D01*
X53027499Y-34264999D01*
X53027500Y-34264998D01*
X53027500Y-32790000D01*
X53527500Y-32790000D01*
X54364999Y-32790000D01*
X54364999Y-32515028D01*
X54364998Y-32515013D01*
X54354505Y-32412302D01*
X54299358Y-32245880D01*
X54299356Y-32245875D01*
X54207315Y-32096654D01*
X54083345Y-31972684D01*
X53934124Y-31880643D01*
X53934119Y-31880641D01*
X53767697Y-31825494D01*
X53767690Y-31825493D01*
X53664986Y-31815000D01*
X53527500Y-31815000D01*
X53527500Y-32790000D01*
X53027500Y-32790000D01*
X53027500Y-31815000D01*
X52890027Y-31815000D01*
X52890012Y-31815001D01*
X52787302Y-31825494D01*
X52620880Y-31880641D01*
X52620875Y-31880643D01*
X52471654Y-31972684D01*
X52347683Y-32096655D01*
X52347679Y-32096660D01*
X52345826Y-32099665D01*
X52344018Y-32101290D01*
X52343202Y-32102323D01*
X52343025Y-32102183D01*
X52293874Y-32146385D01*
X52224911Y-32157601D01*
X52160831Y-32129752D01*
X52134753Y-32099653D01*
X52134737Y-32099628D01*
X52132712Y-32096344D01*
X52008656Y-31972288D01*
X51859334Y-31880186D01*
X51720383Y-31834142D01*
X51662939Y-31794369D01*
X51636116Y-31729853D01*
X51635388Y-31716436D01*
X51635388Y-29964499D01*
X51655073Y-29897460D01*
X51707877Y-29851705D01*
X51759388Y-29840499D01*
X51882759Y-29840499D01*
X51882760Y-29840499D01*
X51942371Y-29834091D01*
X52077219Y-29783796D01*
X52192434Y-29697546D01*
X52278684Y-29582331D01*
X52328979Y-29447483D01*
X52335388Y-29387873D01*
X52335387Y-29387845D01*
X52335566Y-29384547D01*
X52337071Y-29384627D01*
X52355000Y-29323326D01*
X52407756Y-29277514D01*
X52451353Y-29269981D01*
X53134888Y-28586446D01*
X53134888Y-28592661D01*
X53162147Y-28694394D01*
X53214808Y-28785606D01*
X53289282Y-28860080D01*
X53380494Y-28912741D01*
X53482227Y-28940000D01*
X53488441Y-28940000D01*
X52809414Y-29619025D01*
X52882401Y-29670132D01*
X52882409Y-29670136D01*
X53088556Y-29766264D01*
X53088570Y-29766269D01*
X53308277Y-29825139D01*
X53308288Y-29825141D01*
X53534886Y-29844966D01*
X53534890Y-29844966D01*
X53761487Y-29825141D01*
X53761498Y-29825139D01*
X53981205Y-29766269D01*
X53981219Y-29766264D01*
X54187366Y-29670136D01*
X54260359Y-29619024D01*
X53581335Y-28940000D01*
X53587549Y-28940000D01*
X53689282Y-28912741D01*
X53780494Y-28860080D01*
X53854968Y-28785606D01*
X53907629Y-28694394D01*
X53934888Y-28592661D01*
X53934888Y-28586447D01*
X54613912Y-29265471D01*
X54665024Y-29192478D01*
X54761152Y-28986331D01*
X54761157Y-28986317D01*
X54820027Y-28766610D01*
X54820029Y-28766599D01*
X54839854Y-28540002D01*
X54839854Y-28539997D01*
X54820029Y-28313400D01*
X54820027Y-28313389D01*
X54761157Y-28093682D01*
X54761152Y-28093668D01*
X54665024Y-27887521D01*
X54665020Y-27887513D01*
X54613913Y-27814526D01*
X53934888Y-28493551D01*
X53934888Y-28487339D01*
X53907629Y-28385606D01*
X53854968Y-28294394D01*
X53780494Y-28219920D01*
X53689282Y-28167259D01*
X53587549Y-28140000D01*
X53581336Y-28140000D01*
X54260360Y-27460974D01*
X54187366Y-27409863D01*
X53981219Y-27313735D01*
X53981205Y-27313730D01*
X53761498Y-27254860D01*
X53761487Y-27254858D01*
X53534890Y-27235034D01*
X53534886Y-27235034D01*
X53308288Y-27254858D01*
X53308277Y-27254860D01*
X53088570Y-27313730D01*
X53088561Y-27313734D01*
X52882404Y-27409866D01*
X52882400Y-27409868D01*
X52809414Y-27460973D01*
X52809414Y-27460974D01*
X53488441Y-28140000D01*
X53482227Y-28140000D01*
X53380494Y-28167259D01*
X53289282Y-28219920D01*
X53214808Y-28294394D01*
X53162147Y-28385606D01*
X53134888Y-28487339D01*
X53134888Y-28493552D01*
X52450687Y-27809351D01*
X52401693Y-27799505D01*
X52351510Y-27750889D01*
X52336869Y-27695366D01*
X52335788Y-27695423D01*
X52335742Y-27695429D01*
X52335741Y-27695426D01*
X52335564Y-27695436D01*
X52335387Y-27692135D01*
X52335387Y-27692128D01*
X52328979Y-27632517D01*
X52326361Y-27625499D01*
X52278685Y-27497671D01*
X52278681Y-27497664D01*
X52192435Y-27382455D01*
X52192432Y-27382452D01*
X52077223Y-27296206D01*
X52077216Y-27296202D01*
X51942370Y-27245908D01*
X51942371Y-27245908D01*
X51882771Y-27239501D01*
X51882769Y-27239500D01*
X51882761Y-27239500D01*
X51882753Y-27239500D01*
X51689500Y-27239500D01*
X51622461Y-27219815D01*
X51576706Y-27167011D01*
X51565500Y-27115500D01*
X51565500Y-25377135D01*
X58149500Y-25377135D01*
X58149500Y-27172870D01*
X58149501Y-27172876D01*
X58155908Y-27232483D01*
X58206202Y-27367328D01*
X58206206Y-27367335D01*
X58292452Y-27482544D01*
X58292455Y-27482547D01*
X58407664Y-27568793D01*
X58407671Y-27568797D01*
X58542517Y-27619091D01*
X58542516Y-27619091D01*
X58549444Y-27619835D01*
X58602127Y-27625500D01*
X60397872Y-27625499D01*
X60457483Y-27619091D01*
X60592331Y-27568796D01*
X60707546Y-27482546D01*
X60793796Y-27367331D01*
X60844091Y-27232483D01*
X60850500Y-27172873D01*
X60850499Y-25377128D01*
X60844091Y-25317517D01*
X60825348Y-25267265D01*
X60793797Y-25182671D01*
X60793793Y-25182664D01*
X60707547Y-25067455D01*
X60707544Y-25067452D01*
X60592335Y-24981206D01*
X60592328Y-24981202D01*
X60460401Y-24931997D01*
X60404467Y-24890126D01*
X60380050Y-24824662D01*
X60394902Y-24756389D01*
X60416053Y-24728133D01*
X60538108Y-24606078D01*
X60673600Y-24412578D01*
X60773429Y-24198492D01*
X60773432Y-24198486D01*
X60830636Y-23985000D01*
X59933012Y-23985000D01*
X59965925Y-23927993D01*
X60000000Y-23800826D01*
X60000000Y-23669174D01*
X59965925Y-23542007D01*
X59933012Y-23485000D01*
X60830636Y-23485000D01*
X60830635Y-23484999D01*
X60773432Y-23271513D01*
X60773429Y-23271507D01*
X60673600Y-23057422D01*
X60673599Y-23057420D01*
X60538113Y-22863926D01*
X60538108Y-22863920D01*
X60371082Y-22696894D01*
X60177578Y-22561399D01*
X59963492Y-22461570D01*
X59963486Y-22461567D01*
X59750000Y-22404364D01*
X59750000Y-23301988D01*
X59692993Y-23269075D01*
X59565826Y-23235000D01*
X59434174Y-23235000D01*
X59307007Y-23269075D01*
X59250000Y-23301988D01*
X59250000Y-22404364D01*
X59249999Y-22404364D01*
X59036513Y-22461567D01*
X59036507Y-22461570D01*
X58822422Y-22561399D01*
X58822420Y-22561400D01*
X58628926Y-22696886D01*
X58628920Y-22696891D01*
X58461891Y-22863920D01*
X58461886Y-22863926D01*
X58326400Y-23057420D01*
X58326399Y-23057422D01*
X58226570Y-23271507D01*
X58226567Y-23271513D01*
X58169364Y-23484999D01*
X58169364Y-23485000D01*
X59066988Y-23485000D01*
X59034075Y-23542007D01*
X59000000Y-23669174D01*
X59000000Y-23800826D01*
X59034075Y-23927993D01*
X59066988Y-23985000D01*
X58169364Y-23985000D01*
X58226567Y-24198486D01*
X58226570Y-24198492D01*
X58326399Y-24412578D01*
X58461894Y-24606082D01*
X58583946Y-24728134D01*
X58617431Y-24789457D01*
X58612447Y-24859149D01*
X58570575Y-24915082D01*
X58539598Y-24931997D01*
X58407671Y-24981202D01*
X58407664Y-24981206D01*
X58292455Y-25067452D01*
X58292452Y-25067455D01*
X58206206Y-25182664D01*
X58206202Y-25182671D01*
X58155908Y-25317517D01*
X58149501Y-25377116D01*
X58149501Y-25377123D01*
X58149500Y-25377135D01*
X51565500Y-25377135D01*
X51565500Y-25014499D01*
X51585185Y-24947460D01*
X51637989Y-24901705D01*
X51689500Y-24890499D01*
X51862871Y-24890499D01*
X51862872Y-24890499D01*
X51922483Y-24884091D01*
X52057331Y-24833796D01*
X52172546Y-24747546D01*
X52258796Y-24632331D01*
X52308002Y-24500401D01*
X52349872Y-24444468D01*
X52415337Y-24420050D01*
X52483610Y-24434901D01*
X52511865Y-24456053D01*
X52633917Y-24578105D01*
X52827421Y-24713600D01*
X53041507Y-24813429D01*
X53041516Y-24813433D01*
X53255000Y-24870634D01*
X53255000Y-23973012D01*
X53312007Y-24005925D01*
X53439174Y-24040000D01*
X53570826Y-24040000D01*
X53697993Y-24005925D01*
X53755000Y-23973012D01*
X53755000Y-24870633D01*
X53968483Y-24813433D01*
X53968492Y-24813429D01*
X54182578Y-24713600D01*
X54376082Y-24578105D01*
X54543105Y-24411082D01*
X54678600Y-24217578D01*
X54778429Y-24003492D01*
X54778432Y-24003486D01*
X54835636Y-23790000D01*
X53938012Y-23790000D01*
X53970925Y-23732993D01*
X54005000Y-23605826D01*
X54005000Y-23474174D01*
X53970925Y-23347007D01*
X53938012Y-23290000D01*
X54835636Y-23290000D01*
X54835635Y-23289999D01*
X54778432Y-23076513D01*
X54778429Y-23076507D01*
X54678600Y-22862422D01*
X54678599Y-22862420D01*
X54543113Y-22668926D01*
X54543108Y-22668920D01*
X54376082Y-22501894D01*
X54182578Y-22366399D01*
X53968492Y-22266570D01*
X53968486Y-22266567D01*
X53755000Y-22209364D01*
X53755000Y-23106988D01*
X53697993Y-23074075D01*
X53570826Y-23040000D01*
X53439174Y-23040000D01*
X53312007Y-23074075D01*
X53255000Y-23106988D01*
X53255000Y-22209364D01*
X53254999Y-22209364D01*
X53041513Y-22266567D01*
X53041507Y-22266570D01*
X52827422Y-22366399D01*
X52827420Y-22366400D01*
X52633926Y-22501886D01*
X52511865Y-22623947D01*
X52450542Y-22657431D01*
X52380850Y-22652447D01*
X52324917Y-22610575D01*
X52308002Y-22579598D01*
X52301214Y-22561399D01*
X52258796Y-22447669D01*
X52258795Y-22447668D01*
X52258793Y-22447664D01*
X52172547Y-22332455D01*
X52172544Y-22332452D01*
X52057335Y-22246206D01*
X52057328Y-22246202D01*
X51922482Y-22195908D01*
X51922483Y-22195908D01*
X51862883Y-22189501D01*
X51862881Y-22189500D01*
X51862873Y-22189500D01*
X51862864Y-22189500D01*
X50067129Y-22189500D01*
X50067123Y-22189501D01*
X50007516Y-22195908D01*
X49872671Y-22246202D01*
X49872664Y-22246206D01*
X49757455Y-22332452D01*
X49757452Y-22332455D01*
X49671206Y-22447664D01*
X49671202Y-22447671D01*
X49620908Y-22582517D01*
X49614501Y-22642116D01*
X49614500Y-22642135D01*
X49614500Y-24437870D01*
X49614501Y-24437876D01*
X49620908Y-24497483D01*
X49671202Y-24632328D01*
X49671206Y-24632335D01*
X49757452Y-24747544D01*
X49757455Y-24747547D01*
X49872664Y-24833793D01*
X49872671Y-24833797D01*
X49917618Y-24850561D01*
X50007517Y-24884091D01*
X50067127Y-24890500D01*
X50240500Y-24890499D01*
X50307539Y-24910183D01*
X50353294Y-24962987D01*
X50364500Y-25014499D01*
X50364500Y-27115500D01*
X50344815Y-27182539D01*
X50292011Y-27228294D01*
X50240502Y-27239500D01*
X50187018Y-27239500D01*
X50187011Y-27239501D01*
X50127404Y-27245908D01*
X49992559Y-27296202D01*
X49992552Y-27296206D01*
X49877343Y-27382452D01*
X49877340Y-27382455D01*
X49791094Y-27497664D01*
X49791090Y-27497671D01*
X49740796Y-27632517D01*
X49734389Y-27692116D01*
X49734389Y-27692123D01*
X49734388Y-27692135D01*
X49734388Y-29387870D01*
X49734389Y-29387876D01*
X49740796Y-29447483D01*
X49791090Y-29582328D01*
X49791094Y-29582335D01*
X49877340Y-29697544D01*
X49877343Y-29697547D01*
X49992552Y-29783793D01*
X49992559Y-29783797D01*
X50025101Y-29795934D01*
X50127405Y-29834091D01*
X50187015Y-29840500D01*
X50310388Y-29840499D01*
X50377427Y-29860183D01*
X50423182Y-29912987D01*
X50434388Y-29964499D01*
X50434388Y-31882882D01*
X50414703Y-31949921D01*
X50398069Y-31970563D01*
X50272289Y-32096342D01*
X50180187Y-32245663D01*
X50180185Y-32245668D01*
X50157787Y-32313261D01*
X50125001Y-32412203D01*
X50125001Y-32412204D01*
X50125000Y-32412204D01*
X50114500Y-32514983D01*
X50114500Y-32815500D01*
X50094815Y-32882539D01*
X50042011Y-32928294D01*
X49990500Y-32939500D01*
X47971692Y-32939500D01*
X47904653Y-32919815D01*
X47870119Y-32886625D01*
X47740047Y-32700861D01*
X47740045Y-32700858D01*
X47579141Y-32539954D01*
X47392734Y-32409432D01*
X47392728Y-32409429D01*
X47334725Y-32382382D01*
X47282285Y-32336210D01*
X47263133Y-32269017D01*
X47283348Y-32202135D01*
X47334725Y-32157618D01*
X47392734Y-32130568D01*
X47579139Y-32000047D01*
X47740047Y-31839139D01*
X47870568Y-31652734D01*
X47966739Y-31446496D01*
X48025635Y-31226692D01*
X48045468Y-31000000D01*
X48025635Y-30773308D01*
X47966739Y-30553504D01*
X47870568Y-30347266D01*
X47740047Y-30160861D01*
X47740045Y-30160858D01*
X47579141Y-29999954D01*
X47392734Y-29869432D01*
X47392732Y-29869431D01*
X47381275Y-29864088D01*
X47334132Y-29842105D01*
X47281694Y-29795934D01*
X47262542Y-29728740D01*
X47282758Y-29661859D01*
X47334134Y-29617341D01*
X47392484Y-29590132D01*
X47578820Y-29459657D01*
X47739657Y-29298820D01*
X47870134Y-29112482D01*
X47966265Y-28906326D01*
X47966269Y-28906317D01*
X48018872Y-28710000D01*
X47173012Y-28710000D01*
X47205925Y-28652993D01*
X47240000Y-28525826D01*
X47240000Y-28394174D01*
X47205925Y-28267007D01*
X47173012Y-28210000D01*
X48018872Y-28210000D01*
X48018872Y-28209999D01*
X47966269Y-28013682D01*
X47966265Y-28013673D01*
X47870134Y-27807517D01*
X47739657Y-27621179D01*
X47578820Y-27460342D01*
X47392482Y-27329865D01*
X47334133Y-27302657D01*
X47281694Y-27256484D01*
X47262542Y-27189291D01*
X47282758Y-27122410D01*
X47334129Y-27077895D01*
X47392734Y-27050568D01*
X47579139Y-26920047D01*
X47740047Y-26759139D01*
X47870568Y-26572734D01*
X47966739Y-26366496D01*
X48025635Y-26146692D01*
X48045468Y-25920000D01*
X48025635Y-25693308D01*
X47966739Y-25473504D01*
X47870568Y-25267266D01*
X47740047Y-25080861D01*
X47740045Y-25080858D01*
X47579141Y-24919954D01*
X47392734Y-24789432D01*
X47392732Y-24789431D01*
X47186497Y-24693261D01*
X47186488Y-24693258D01*
X46966697Y-24634366D01*
X46966693Y-24634365D01*
X46966692Y-24634365D01*
X46966691Y-24634364D01*
X46966686Y-24634364D01*
X46740002Y-24614532D01*
X46739998Y-24614532D01*
X46513313Y-24634364D01*
X46513302Y-24634366D01*
X46293511Y-24693258D01*
X46293502Y-24693261D01*
X46087267Y-24789431D01*
X46087265Y-24789432D01*
X45900858Y-24919954D01*
X45739954Y-25080858D01*
X45609432Y-25267265D01*
X45609431Y-25267267D01*
X45513261Y-25473502D01*
X45513258Y-25473511D01*
X45454366Y-25693302D01*
X45454364Y-25693313D01*
X45434532Y-25919998D01*
X32800499Y-25919998D01*
X32800499Y-25072128D01*
X32794091Y-25012517D01*
X32782411Y-24981202D01*
X32743797Y-24877671D01*
X32743793Y-24877664D01*
X32657547Y-24762455D01*
X32657544Y-24762452D01*
X32542335Y-24676206D01*
X32542328Y-24676202D01*
X32407482Y-24625908D01*
X32407483Y-24625908D01*
X32347883Y-24619501D01*
X32347881Y-24619500D01*
X32347873Y-24619500D01*
X32347864Y-24619500D01*
X30652129Y-24619500D01*
X30652123Y-24619501D01*
X30592516Y-24625908D01*
X30457671Y-24676202D01*
X30457664Y-24676206D01*
X30342455Y-24762452D01*
X30342452Y-24762455D01*
X30256206Y-24877664D01*
X30256202Y-24877671D01*
X30205908Y-25012517D01*
X30200002Y-25067454D01*
X30199501Y-25072123D01*
X30199500Y-25072135D01*
X30199500Y-26767870D01*
X30199501Y-26767876D01*
X30205908Y-26827483D01*
X30256202Y-26962328D01*
X30256206Y-26962335D01*
X30342452Y-27077544D01*
X30342455Y-27077547D01*
X30457664Y-27163793D01*
X30457671Y-27163797D01*
X30502618Y-27180561D01*
X30592517Y-27214091D01*
X30627596Y-27217862D01*
X30692144Y-27244599D01*
X30731993Y-27301991D01*
X30734488Y-27371816D01*
X30698836Y-27431905D01*
X30685464Y-27442725D01*
X30660858Y-27459954D01*
X30499954Y-27620858D01*
X30369432Y-27807265D01*
X30369431Y-27807267D01*
X30273261Y-28013502D01*
X30273258Y-28013511D01*
X30214366Y-28233302D01*
X30214364Y-28233313D01*
X30194532Y-28459998D01*
X26000500Y-28459998D01*
X26000500Y-23498256D01*
X26020185Y-23431217D01*
X26072989Y-23385462D01*
X26142147Y-23375518D01*
X26205703Y-23404543D01*
X26233332Y-23438829D01*
X26312770Y-23584309D01*
X26312775Y-23584317D01*
X26484254Y-23813387D01*
X26484270Y-23813405D01*
X26686594Y-24015729D01*
X26686612Y-24015745D01*
X26915682Y-24187224D01*
X26915690Y-24187229D01*
X27166833Y-24324364D01*
X27166832Y-24324364D01*
X27166836Y-24324365D01*
X27166839Y-24324367D01*
X27434954Y-24424369D01*
X27434960Y-24424370D01*
X27434962Y-24424371D01*
X27714566Y-24485195D01*
X27714568Y-24485195D01*
X27714572Y-24485196D01*
X27968220Y-24503337D01*
X27999999Y-24505610D01*
X28000000Y-24505610D01*
X28000001Y-24505610D01*
X28028595Y-24503564D01*
X28285428Y-24485196D01*
X28565046Y-24424369D01*
X28833161Y-24324367D01*
X29084315Y-24187226D01*
X29313395Y-24015739D01*
X29515739Y-23813395D01*
X29687226Y-23584315D01*
X29824367Y-23333161D01*
X29924369Y-23065046D01*
X29924371Y-23065037D01*
X29985195Y-22785433D01*
X29985195Y-22785432D01*
X29985196Y-22785428D01*
X30005610Y-22500000D01*
X30002861Y-22461570D01*
X29991664Y-22305007D01*
X29985196Y-22214572D01*
X29924369Y-21934954D01*
X29824367Y-21666839D01*
X29801754Y-21625427D01*
X29687229Y-21415690D01*
X29687224Y-21415682D01*
X29515745Y-21186612D01*
X29515729Y-21186594D01*
X29313405Y-20984270D01*
X29313387Y-20984254D01*
X29084317Y-20812775D01*
X29084309Y-20812770D01*
X28938829Y-20733332D01*
X28889424Y-20683927D01*
X28874572Y-20615654D01*
X28898989Y-20550189D01*
X28954923Y-20508318D01*
X28998256Y-20500500D01*
X67001744Y-20500500D01*
X67068783Y-20520185D01*
G37*
%TD.AperFunction*%
%TD*%
M02*
